<?xml version="1.0" encoding="utf-8"?>
<!-- Generator: Adobe Illustrator 17.1.0, SVG Export Plug-In . SVG Version: 6.00 Build 0)  -->
<!DOCTYPE svg PUBLIC "-//W3C//DTD SVG 1.1//EN" "http://www.w3.org/Graphics/SVG/1.1/DTD/svg11.dtd">
<svg version="1.1" xmlns="http://www.w3.org/2000/svg" xmlns:xlink="http://www.w3.org/1999/xlink" x="0px" y="0px"
	 viewBox="0 0 143 134" enable-background="new 0 0 143 134" xml:space="preserve">
<g id="Colors">
	<linearGradient id="SVGID_1_" gradientUnits="userSpaceOnUse" x1="98.169" y1="116.5481" x2="43.4705" y2="12.0914">
		<stop  offset="0" style="stop-color:#FAA61A"/>
		<stop  offset="0.6011" style="stop-color:#FFF450"/>
		<stop  offset="1" style="stop-color:#FFFFFF"/>
	</linearGradient>
	<circle fill="url(#SVGID_1_)" cx="71.7" cy="66.1" r="57"/>
	<linearGradient id="SVGID_2_" gradientUnits="userSpaceOnUse" x1="110.6638" y1="129.7341" x2="59.7675" y2="42.8783">
		<stop  offset="0" style="stop-color:#F26722"/>
		<stop  offset="1" style="stop-color:#FFF450"/>
		<stop  offset="1" style="stop-color:#FFFFFF"/>
	</linearGradient>
	<path fill="url(#SVGID_2_)" d="M109.3,24.2c5.4,7.1,9,14.7,10.8,23.4c2.5,12.5,1.8,26.3-4.5,37.7c-6.4,11.6-18.1,19.2-30.8,22.6
		c-12.6,3.3-26.3,2.9-38.5-1.5c-9.3-3.3-17-9-23.5-16.3c-0.6-0.7-1.3-1.5-1.9-2.2c3.4,5.8,6.8,11.6,11.2,16.8
		c4.2,5,9.4,9.2,15.3,12.1c6.1,3,12.9,4.6,19.6,5.1c6.9,0.5,13.9-0.1,20.6-1.7c6.3-1.6,12.4-4.2,17.8-7.9c5.2-3.6,9.7-8.3,13.2-13.5
		c3.7-5.5,6.4-11.5,8.3-17.8c1.8-6.1,2.9-12.6,2.8-19c-0.1-5.8-1.2-11.5-3.5-16.8c-2.1-5-5.2-9.4-8.5-13.6c-0.8-1-1.6-2-2.4-3
		L109.3,24.2z"/>
	<path fill="#FFFFFF" d="M62.8,26.4C50.4,20.6,43,31.9,43.4,43.5c0.2,6.1,3.6,10.4,9.9,10.7c5.5,0.3,10.4-2.1,12.5-7.3
		c2.5-5.9,2.1-12.2-0.3-18L62.8,26.4z"/>
	<path fill="#FFFFFF" d="M77.5,24.1c-1.8,5.9-2.6,11.4,0.3,17.2c2.3,4.6,6.4,9.6,11.7,10.8c6.1,1.3,10.9-3.4,11.7-9.2
		c0.7-5.5-1.7-10.8-5.5-14.6c-4.8-4.8-10.5-5.7-17-5.2L77.5,24.1z"/>
</g>
<g id="Lineart">
	<g>
		<path fill-rule="evenodd" clip-rule="evenodd" d="M71.5,8.1c-32.5,0-58.8,26.3-58.8,58.8c0,32.5,26.3,58.8,58.8,58.8
			c32.5,0,58.8-26.3,58.8-58.8C130.3,34.4,104,8.1,71.5,8.1L71.5,8.1z M88.2,37.9c-1.5,0.8-2.1,2.5-2.2,4.1c0,0,0,0,0,0.1
			c-0.7,1.8,0.1,4,1.6,5.2c1.3,1.7,3.2,2.6,5.3,0.9c0.5-0.4,0.8-0.8,1.1-1.3c1.9-1.9,1.9-5,0.6-7.3C93.3,37.4,90.3,36.7,88.2,37.9
			L88.2,37.9z M65.4,31.6c-2.8-4.1-7.7,2.1-8.2,5c-0.4,2.3,0.6,5,3.1,5.7c2.3,0.6,4.4-0.9,5.7-2.6c1.6-2.1,1.4-5.1-0.2-7.1
			c0,0-0.1-0.1-0.1-0.1C65.6,32.1,65.6,31.8,65.4,31.6L65.4,31.6z M63.3,36C63.3,36,63.3,36,63.3,36C63.3,36,63.3,36,63.3,36
			L63.3,36L63.3,36z M110.4,48.5c4-4.6,2.2-10.1,0.1-15.1c0-0.1-0.1,0-0.1,0c0.6,4,1.1,10.1-1.8,13.2
			C107.5,47.9,109.4,49.8,110.4,48.5L110.4,48.5z M37.6,44.3c1.3-3.4,0.1-7.5,1-11.2c1-4,2.8-7.6,6-10.2c0.1-0.1,0-0.2-0.1-0.2
			c-6.6,1.7-12.8,16.5-7.8,21.8C37,44.8,37.5,44.6,37.6,44.3L37.6,44.3z M84.2,22.6c4,0.9,8,2.5,10.9,5.5c1.4,1.4,2.5,3.1,3.4,4.8
			c0.9,1.7,1.1,3.5,2.5,4.8c0.2,0.2,0.4,0.1,0.5-0.1c1.3-3.4-2.3-8.1-4.9-10.1c-3.7-2.9-7.6-4.7-12.4-5.2
			C84.1,22.4,84.1,22.6,84.2,22.6L84.2,22.6z M90.6,53.5c7.3,0.4,10.8-6.4,11.2-12.7c0-0.1-0.2-0.1-0.2,0c-0.7,6-6.6,10.6-12.7,9.3
			c-4-0.8-7.1-4.3-9.2-7.6c-3.6-5.8-6.7-17.3,2-20.1c0.2-0.1,0.1-0.3,0-0.3c-12.2-1-6.7,17.6-3.2,23.1
			C81.3,49.6,85.2,53.2,90.6,53.5L90.6,53.5z M67.4,38.1c-0.7,5.1-1,9.6-5.5,12.8c-3,2.2-6.9,2.8-10.4,2c-9.3-2-7.6-12.6-5.7-19.2
			c0-0.1-0.1-0.1-0.1-0.1c-5.7,7.3-4.4,18.7,5.1,21.6c4.1,1.2,9.1,0,12.4-2.7c4.8-3.9,5.4-8.7,4.5-14.6
			C67.6,37.9,67.4,37.9,67.4,38.1L67.4,38.1z M43,33.7c2.3-4.2,6.5-6.4,11.1-7.6c6.3-1.6,9.8,1.9,13,6.7c0.1,0.2,0.4,0.1,0.4-0.1
			c0.2-6.6-5.5-9.4-11.5-9c-5.8,0.4-11.3,4.4-13.2,9.9C42.8,33.7,42.9,33.8,43,33.7L43,33.7z M78.4,71.9c-3.7,2-7.2,6.5-6.7,10.8
			c0,0.2,0.3,0.3,0.4,0.1c1.9-2.8,3.3-5.8,6-7.9c1.4-1.1,3.1-1.6,4.8-1.6c1.8,0,3.1,1.4,4.9,1.2c0.7-0.1,1.6-0.8,1.3-1.7
			C87.5,68.6,81.6,70.2,78.4,71.9L78.4,71.9z M118.9,62.5c-1.7-0.5-3.7-1-5.4-0.5c-4.8,1.2-8,2.4-12.5-0.7c-4.5-3.1-9.7-4.6-15-3
			c-6.2,1.8-8.9,8.5-16.2,8.2c-3-0.1-5.9-1.9-9-2.2c-2.7-0.3-4.9,1.5-6.8,3.1c-5,4.5-3.6,15.7-13.2,12.5c-4-1.4-8.1-4.3-12.2-1.7
			c-3.8,2.4-3.5,6.2-1.3,9.3c0.4,0.5,1.2,0.2,1.1-0.5c-0.8-3.5,1.3-8.6,5.9-7.8c2,0.4,4,1.6,5.9,2.4c2.7,1.1,5.2,1.2,7.7-0.3
			c2.6-1.6,4.6-5.7,6-8.3c3.8-6.8,10.9-3.5,17.1-4.1c3.2-0.3,5.8-1.8,8.2-3.9c2.3-2,4-4.1,7.1-5c3.3-0.9,8,0.5,10.9,2.1
			c2.3,1.3,3.2,3.4,5.8,4.5c1.7,0.7,3.5,0.7,5.3,0.5c2.1-0.2,4.1-1,6.1-1.6c2.4-0.7,9.6-2.9,6.9,3.6c-0.4,1,1.2,1.4,1.6,0.4
			C124.3,65.9,122.1,63.5,118.9,62.5L118.9,62.5z M71.8,119.7c-30,0-54.4-24.5-54.4-54.7c0-30.2,24.3-54.7,54.4-54.7
			c30,0,54.4,24.5,54.4,54.7C126.1,95.2,101.8,119.7,71.8,119.7L71.8,119.7z"/>
	</g>
</g>
</svg>
