<?xml version="1.0" encoding="utf-8"?>
<!-- Generator: Adobe Illustrator 17.1.0, SVG Export Plug-In . SVG Version: 6.00 Build 0)  -->
<!DOCTYPE svg PUBLIC "-//W3C//DTD SVG 1.1//EN" "http://www.w3.org/Graphics/SVG/1.1/DTD/svg11.dtd">
<svg version="1.1" xmlns="http://www.w3.org/2000/svg" xmlns:xlink="http://www.w3.org/1999/xlink" x="0px" y="0px"
	 viewBox="0 0 143 134" enable-background="new 0 0 143 134" xml:space="preserve">
<g id="Colors">
	<linearGradient id="SVGID_1_" gradientUnits="userSpaceOnUse" x1="98.0939" y1="117.2327" x2="43.3949" y2="12.7751">
		<stop  offset="0" style="stop-color:#FAA61A"/>
		<stop  offset="0.6011" style="stop-color:#FFF450"/>
		<stop  offset="1" style="stop-color:#FFFFFF"/>
	</linearGradient>
	<circle fill="url(#SVGID_1_)" cx="71.7" cy="66.8" r="57"/>
	<linearGradient id="SVGID_2_" gradientUnits="userSpaceOnUse" x1="110.5881" y1="130.4182" x2="59.6918" y2="43.5623">
		<stop  offset="0" style="stop-color:#F26722"/>
		<stop  offset="1" style="stop-color:#FFF450"/>
		<stop  offset="1" style="stop-color:#FFFFFF"/>
	</linearGradient>
	<path fill="url(#SVGID_2_)" d="M109.2,24.9c5.4,7.1,9,14.7,10.8,23.4c2.5,12.5,1.8,26.3-4.5,37.7c-6.4,11.6-18.1,19.2-30.8,22.6
		c-12.6,3.3-26.3,2.9-38.5-1.5c-9.3-3.3-17-9-23.5-16.3c-0.6-0.7-1.3-1.5-1.9-2.2c3.4,5.8,6.8,11.6,11.2,16.8
		c4.2,5,9.4,9.2,15.3,12.1c6.1,3,12.9,4.6,19.6,5.1c6.9,0.5,13.9-0.1,20.6-1.7c6.3-1.6,12.4-4.2,17.8-7.9c5.2-3.6,9.7-8.3,13.2-13.5
		c3.7-5.5,6.4-11.5,8.3-17.8c1.8-6.1,2.9-12.6,2.8-19c-0.1-5.8-1.2-11.5-3.5-16.8c-2.1-5-5.2-9.4-8.5-13.6c-0.8-1-1.6-2-2.4-3
		L109.2,24.9z"/>
	<path fill="#FFFFFF" d="M64.2,23.6c-11.7-4.3-15.8,10.9-16.9,19.8c-0.8,6,2.1,11.1,8.9,9.4c5.4-1.4,7.9-5.9,9.5-10.8
		c1.9-5.8,3-11.3-0.2-16.8L64.2,23.6z"/>
	<path fill="#FFFFFF" d="M85.7,20.2c-8.8,6.1-10.1,16-4.5,25.2c2.3,3.8,6.9,6.2,10.6,2.6c3.5-3.4,3-9.6,2.4-14
		c-0.7-5.3-2.2-9.7-6.3-13.2L85.7,20.2z"/>
</g>
<g id="Lineart">
	<g>
		<path fill-rule="evenodd" clip-rule="evenodd" d="M71.5,9.4c-32.5,0-58.8,26.3-58.8,58.8c0,32.5,26.3,58.8,58.8,58.8
			c32.5,0,58.8-26.3,58.8-58.8C130.3,35.7,104,9.4,71.5,9.4L71.5,9.4z M77.7,28.6c-2.2,6.1,0.8,13.7,4.2,18.8
			c1.1,1.6,3.1,3.3,5.1,3.4c1.9,0.1,3-0.4,4-1.3c6.1-2.1,4.6-11.8,3.8-16.6c-0.5-3.2-2.1-11.9-6.8-10.9c0,0,0,0,0,0
			c6.9,5.7,8,20.5,1.6,26.7c-0.1,0.1-0.2,0.3-0.2,0.4c-3.4,1.2-5.7-2-7.2-6.4c1.6,0.9,3.5,1,5.3-0.2c2.9-2,2-6.6,1.4-9.5
			c-0.5-2.7-1.5-6.5-4.4-7.7c-0.4-0.2-0.9-0.3-1.3-0.3c0.1-0.1,0.1-0.2,0.2-0.3c1.5-2.2,1.8-3.9,4.7-5c2.3-0.9,4.5,0.3,6.7,0.9
			c0.2,0.1,0.4-0.2,0.2-0.4c-2.6-3.2-6.2-3-9.7-1.3c-1.4,0.7-2.9,2.2-3.8,3.4c-1.4,1.8-5.4,5.3-7.7,2.4c-0.1-0.1-0.4-0.1-0.4,0.1
			C72.6,27.5,75.4,28.7,77.7,28.6L77.7,28.6z M82.6,35.8c-0.1-0.5-0.1-1-0.1-1.6C82.6,34.8,82.6,35.3,82.6,35.8L82.6,35.8z
			 M79.6,28.1c0,0.1,0,0.1,0,0.2c0,0,0,0.1,0.1,0.1c0,0,0,0.1-0.1,0.1C79.6,28.4,79.6,28.3,79.6,28.1L79.6,28.1z M46,21.5
			c4.6-3.2,9.4-2.7,13.5,0c-0.1,0-0.2,0-0.4,0c-3.8,0.3-6.1,3.2-7.7,6.3C49,32.3,44,44.5,49.3,48.5c0,0,0.1,0,0.1-0.1
			c-2.5-7.2,3.1-28.4,13.8-24c0.6,0.7,1.2,1.4,1.7,2.1c-4.2-0.7-6.4,4.8-7.1,8.2c-0.5,2.2-0.8,4.7,0.2,6.8c1,2.4,4,4.3,6.3,2.9
			c-1.3,2.3-2.9,4.3-5.6,5.9c-4.4,2.6-9.8,0.5-12.1-3.5c0-0.1-0.1-0.1-0.1,0c-2.7,4.9,6.8,7,9.7,6.7c5.2-0.6,9.6-6,10.9-11.3
			c4.2-5.6,1.8-14.7-2.1-19.6c-4.9-6.2-13.5-7.2-19-1.5C45.7,21.4,45.8,21.7,46,21.5L46,21.5z M83.5,66.9c-4.1,1.3-8,3.8-10,7.7
			c-0.1,0.1,0.1,0.3,0.2,0.2c3.3-2.1,6.7-4.1,10.6-4.9c3.2-0.7,7.7,0,10.4-1.8c0.3-0.2,0.4-0.6,0.2-0.8C92.5,64,86.9,65.9,83.5,66.9
			L83.5,66.9z M117.9,59.7c-4.1,1.4-9-0.3-13.2-0.9c-3.2-0.4-6.4-0.7-9.6-0.2c-7.1,1.1-14.7,1.7-21.4,4.6c-7.1,3-13.4,7.2-20,11.1
			c-3.7,2.2-7.3,4.2-11.5,5.5c-1.7,0.5-9.4,1.4-10-1.2c-0.2-0.9-1.2-1.3-2-1.1c0,0,0,0,0,0c-0.6,0.1-1,0.6-1.1,1.2c-2,4.8,4,7,8,6.5
			C45.7,84,53.7,78,60.5,73.2c4.1-2.9,8-5.8,12.5-7.9c5.2-2.5,11.5-3.3,17.3-3.9c2.3-0.2,4.5-0.7,6.8-0.9c3.6-0.4,7.3,0.6,10.7,1.5
			c3.9,1,7.1,2.9,11.2,1.9C121.7,63.2,120.5,58.8,117.9,59.7L117.9,59.7z M71.8,121c-30,0-54.4-24.5-54.4-54.7
			c0-30.2,24.3-54.7,54.4-54.7s54.4,24.5,54.4,54.7C126.1,96.5,101.8,121,71.8,121L71.8,121z"/>
	</g>
</g>
</svg>
