<?xml version="1.0" encoding="utf-8"?>
<!-- Generator: Adobe Illustrator 17.1.0, SVG Export Plug-In . SVG Version: 6.00 Build 0)  -->
<!DOCTYPE svg PUBLIC "-//W3C//DTD SVG 1.1//EN" "http://www.w3.org/Graphics/SVG/1.1/DTD/svg11.dtd">
<svg version="1.1" xmlns="http://www.w3.org/2000/svg" xmlns:xlink="http://www.w3.org/1999/xlink" x="0px" y="0px"
	 viewBox="0 0 143 134" enable-background="new 0 0 143 134" xml:space="preserve">
<g id="Colors">
	<linearGradient id="SVGID_1_" gradientUnits="userSpaceOnUse" x1="97.8195" y1="117.5424" x2="43.1209" y2="13.0857">
		<stop  offset="0" style="stop-color:#EF4130"/>
		<stop  offset="0.6011" style="stop-color:#F58466"/>
		<stop  offset="1" style="stop-color:#FFFFFF"/>
	</linearGradient>
	<circle fill="url(#SVGID_1_)" cx="71.4" cy="67.1" r="57"/>
	<linearGradient id="SVGID_2_" gradientUnits="userSpaceOnUse" x1="110.3137" y1="130.7287" x2="59.4181" y2="43.8739">
		<stop  offset="0" style="stop-color:#ED1C24"/>
		<stop  offset="1" style="stop-color:#F37053"/>
	</linearGradient>
	<path fill="url(#SVGID_2_)" d="M108.9,25.2c5.4,7.1,9,14.7,10.8,23.4c2.5,12.5,1.8,26.3-4.5,37.7c-6.4,11.6-18.1,19.2-30.8,22.6
		c-12.6,3.3-26.3,2.9-38.5-1.5c-9.3-3.3-17-9-23.5-16.3c-0.6-0.7-1.3-1.5-1.9-2.2c3.4,5.8,6.8,11.6,11.2,16.8
		c4.2,5,9.4,9.2,15.3,12.1c6.1,3,12.9,4.6,19.6,5.1c6.9,0.5,13.9-0.1,20.6-1.7c6.3-1.6,12.4-4.2,17.8-7.9c5.2-3.6,9.7-8.3,13.2-13.5
		c3.7-5.5,6.4-11.5,8.3-17.8c1.8-6.1,2.9-12.6,2.8-19c-0.1-5.8-1.2-11.5-3.5-16.8c-2.1-5-5.2-9.4-8.5-13.6c-0.8-1-1.6-2-2.4-3
		L108.9,25.2z"/>
	<path fill="#FFFFFF" d="M57.4,36.3C41.6,28.2,42.3,48,41.7,58.4c-0.4,6,0.9,13,8.5,12.8c6.6-0.2,9-6,10.1-11.6
		c1.5-7.3,1.7-13.8-1.3-20.8L57.4,36.3z"/>
	<path fill="#FFFFFF" d="M73.9,34.7c-6.1,3.6-7.1,8.2-6.3,15c0.8,6.2,1.4,14.8,5.5,19.9c4.1,5,12,5.1,15.6-0.5
		c3.6-5.6,0.4-12.7-2.1-18.1c-2.7-5.7-5.8-10.5-10.5-14.7L73.9,34.7z"/>
</g>
<g id="Lineart">
	<g>
		<path fill-rule="evenodd" clip-rule="evenodd" d="M71.2,9.1c-32.5,0-58.8,26.3-58.8,58.8s26.3,58.8,58.8,58.8
			c32.5,0,58.8-26.3,58.8-58.8S103.6,9.1,71.2,9.1L71.2,9.1z M91.6,90.4c-0.8-0.7-1.8-1.2-2.8-1.2c-1.1,0-1.8,0.8-2.5,1.6
			c-0.2,0.3,0.1,0.7,0.4,0.5c1.3-0.7,2.8,0.1,3.7,1.1c1,1.1,1.1,2.7,1.9,3.9c0.4,0.7,1.3,0.5,1.6-0.2C94.8,94.2,93,91.7,91.6,90.4
			L91.6,90.4z M62.4,90.6c-2-1.3-4.3,0.2-5.5,1.8c-1.4,1.9-1.6,4.2-1.8,6.5c0,0.2,0.4,0.3,0.4,0.1c0.3-1.5,1.5-3.3,2.5-4.5
			c0.5-0.6,1-1.3,1.6-1.8c0.7-0.5,1.5-0.3,2.3-0.3C63,92.4,63.1,91,62.4,90.6L62.4,90.6z M85.2,96.9c-3.3,2.5-4.1,7.3-6.6,10.6
			c-5.4,7-14.5-5.1-17-9.5c-0.1-0.1-0.3,0-0.3,0.1c2.3,6.5,7,16.3,15.5,14.6c5.3-1.1,9.4-10.3,9.6-15C86.5,97.1,85.7,96.5,85.2,96.9
			L85.2,96.9z M77.8,72.1c-9.3-8.3-8.7-21.4-8.7-32.9c0-0.1-0.2-0.2-0.2-0.1c-3.5,6.9-1.9,16.1-0.2,23.3c0.8,3.3,3.4,9.5,7.3,10.7
			c0.1,0.2,0.2,0.4,0.5,0.5c9,3.7,17-4,15.2-13.1c-1-5.1-3.1-9.8-6-14.1c-2.6-3.8-5.7-8.5-10.2-9.9c0.7,0.2,1,0.2,1.6-0.3
			c0.1-0.1,0.2-0.3,0.1-0.5c0-0.1-0.1-0.2-0.1-0.3c-0.1-0.3-0.4-0.6-0.7-0.7c-2.5-0.6-9.5-0.5-8.3,3.8c0,0.1,0.2,0.1,0.2,0
			c0-0.3,1.2-0.9,1.4-1.1c0.8-0.5,1.5-0.9,2.4-1.1c1-0.2,2-0.1,3,0.2c0,0,0,0,0,0c2.1,1.4,4,3.3,5.6,5.5c-1.9-0.3-3.2,2.6-3.6,4.4
			c-0.8,3.3-0.6,7.4,0.5,10.6c1.3,3.6,5,4.7,8.2,2.9c1.3-0.7,2-1.8,2.2-3.1c1,3.3,1.5,6.8,0.8,10.2C87.6,72.5,82.3,72.4,77.8,72.1
			L77.8,72.1z M82.5,56.6c0.5,0,1-0.1,1.5-0.3c0,0-0.1,0.1-0.1,0.1C83.4,56.7,82.9,56.8,82.5,56.6L82.5,56.6z M83,30.3
			c1.4,1.5,2.4,3.3,3.4,5.2c0.7,1.4,0.9,2.7,2.4,3.2c0.3,0.1,0.7-0.1,0.8-0.3c1.9-2.7-2.4-7.3-4.1-9.3c-2.4-2.8-6.5-6.3-10.4-6
			c-0.2,0-0.3,0.2-0.1,0.3C77.5,26,80.6,27.6,83,30.3L83,30.3z M49.3,20.9c0.1-0.1,0-0.3-0.1-0.3c-3.6,0.2-5.9,3.7-7.9,6.4
			c-2.6,3.6-6.4,9.1-4.6,13.7c0.3,0.7,1.5,1.1,1.9,0.2c1.7-3.6,1.2-7.7,3.3-11.3C43.9,26.2,46.3,23.3,49.3,20.9L49.3,20.9z
			 M57.7,68.6c3-4.4,3.3-10.1,3.9-15.3c0.6-5.2,0.4-10.5-1.9-15.3c-1.8-3.9-7.3-5.7-11.1-3.9c-0.7,0.3-0.2,1.2,0.3,1.3
			c6.3,0.8,9.2,3.8,10.3,8.2c-0.9-1.7-2.5-2.1-4.2-0.6c-2.2,1.9-2.8,6-3.4,8.6c-0.6,2.8-1.3,6.1,0.7,8.5c1.3,1.6,3.3,2.4,5.3,1.5
			c0.4-0.2,0.8-0.5,1.1-0.8c-1.1,5.5-3.6,10.5-10,9.7c-0.2,0-0.3,0.3-0.2,0.4C51.3,73.4,55.8,71.3,57.7,68.6L57.7,68.6z M44.1,64.2
			c-1.4-3.5-1.5-7.3-1.5-11c0-5.6,0.4-12.7,3.5-17.5c0.1-0.1-0.1-0.3-0.2-0.2c-4.5,5.1-4.2,13-4.9,19.3c-0.6,5.7-0.3,14.2,6.2,16.2
			c0.6,0.2,1-0.5,0.7-1C46.8,68,45,66.5,44.1,64.2L44.1,64.2z M71.5,120.7c-30,0-54.4-24.5-54.4-54.7c0-30.2,24.3-54.7,54.4-54.7
			s54.4,24.5,54.4,54.7C125.8,96.2,101.5,120.7,71.5,120.7L71.5,120.7z"/>
	</g>
</g>
</svg>
