<?xml version="1.0" encoding="utf-8"?>
<!-- Generator: Adobe Illustrator 17.1.0, SVG Export Plug-In . SVG Version: 6.00 Build 0)  -->
<!DOCTYPE svg PUBLIC "-//W3C//DTD SVG 1.1//EN" "http://www.w3.org/Graphics/SVG/1.1/DTD/svg11.dtd">
<svg version="1.1" xmlns="http://www.w3.org/2000/svg" xmlns:xlink="http://www.w3.org/1999/xlink" x="0px" y="0px"
	 viewBox="0 0 143 134" enable-background="new 0 0 143 134" xml:space="preserve">
<g id="Colors">
	<linearGradient id="SVGID_1_" gradientUnits="userSpaceOnUse" x1="99.1838" y1="118.1428" x2="44.4848" y2="13.6852">
		<stop  offset="0" style="stop-color:#FAA61A"/>
		<stop  offset="0.6011" style="stop-color:#FFF450"/>
		<stop  offset="1" style="stop-color:#FFFFFF"/>
	</linearGradient>
	<circle fill="url(#SVGID_1_)" cx="72.8" cy="67.7" r="57"/>
	<linearGradient id="SVGID_2_" gradientUnits="userSpaceOnUse" x1="111.6784" y1="131.329" x2="60.7821" y2="44.4732">
		<stop  offset="0" style="stop-color:#F26722"/>
		<stop  offset="1" style="stop-color:#FFF450"/>
		<stop  offset="1" style="stop-color:#FFFFFF"/>
	</linearGradient>
	<path fill="url(#SVGID_2_)" d="M110.3,25.8c5.4,7.1,9,14.7,10.8,23.4c2.5,12.5,1.8,26.3-4.5,37.7c-6.4,11.6-18.1,19.2-30.8,22.6
		c-12.6,3.3-26.3,2.9-38.5-1.5c-9.3-3.3-17-9-23.5-16.3c-0.6-0.7-1.3-1.5-1.9-2.2c3.4,5.8,6.8,11.6,11.2,16.8
		c4.2,5,9.4,9.2,15.3,12.1c6.1,3,12.9,4.6,19.6,5.1c6.9,0.5,13.9-0.1,20.6-1.7c6.3-1.6,12.4-4.2,17.8-7.9c5.2-3.6,9.7-8.3,13.2-13.5
		c3.7-5.5,6.4-11.5,8.3-17.8c1.8-6.1,2.9-12.6,2.8-19c-0.1-5.8-1.2-11.5-3.5-16.8c-2.1-5-5.2-9.4-8.5-13.6c-0.8-1-1.6-2-2.4-3
		L110.3,25.8z"/>
	<path fill="#333333" d="M56.2,73.7c-7.3-5.9-16.4-0.2-19,7.7c-3.7,11.3,7.2,14.9,15.5,9.3c4.7-3.1,5.7-7.6,5.4-12.9L56.2,73.7z"/>
	<path fill="#FFFFFF" d="M75.3,25.8c-12.1-10.6-16.5,9.1-17.6,17.5c-0.8,6-0.5,13.3,7,14.3c6.3,0.8,9.8-3.6,11.2-9.1
		c1.8-6.7,2.1-13.2,0.3-19.8L75.3,25.8z"/>
	<path fill="#FFFFFF" d="M98.4,27.1c-7.1-2.3-11.8-0.6-12.7,7.4c-0.8,6.7,0.5,14.5,2.2,21c1.4,5.4,5.6,12.1,12.2,8.9
		c6.3-3.1,6.5-11.8,5.9-17.8c-0.7-6.6-2.4-12.8-5.6-18.6L98.4,27.1z"/>
</g>
<g id="Lineart">
	<g>
		<path fill-rule="evenodd" clip-rule="evenodd" d="M72.9,10.4c-32.5,0-58.8,26.3-58.8,58.8c0,32.5,26.3,58.8,58.8,58.8
			c32.5,0,58.8-26.3,58.8-58.8C131.6,36.7,105.3,10.4,72.9,10.4L72.9,10.4z M38,67.7c-3.3,0.3-5.5,2-7.5,4.7
			c-2.1,2.9-3.6,9.2-1.3,12.2c0.4,0.5,1.1,0.4,1.4-0.2c0.5-1.2,0.4-2,0.3-3.4c-0.1-2,0.3-3.9,0.8-5.8c0.8-2.6,3.6-6.2,6.4-7
			C38.3,68.1,38.3,67.7,38,67.7L38,67.7z M52.8,89.9c-3.2,1.2-6.7,2.9-10.1,2.1c-2.1-0.4-4-2.5-4.7-4.4c-0.9-2.3,0.4-4.8,0.1-7.2
			c0,0,0,0-0.1,0c-3.2,3.2-2.1,10.9,1.7,13.2c4.4,2.7,10.9,1.2,13.4-3.4C53.2,90.1,53,89.8,52.8,89.9L52.8,89.9z M56.7,72
			c-6.5-4.5-16-0.3-18.2,6.8c-0.1,0.4,0.5,0.7,0.7,0.3c2.3-5.1,11.1-8.7,15.8-4.7c4.7,4,1.1,11.3-1,15.7c-0.1,0.2,0.1,0.4,0.3,0.3
			C59.8,86.5,63.7,76.8,56.7,72L56.7,72z M103.8,36.8c0-0.1-0.1,0-0.1,0c0.1,1,0.2,2,0.4,2.9c-0.3-1.5-0.6-2.7-1-3.4
			c-0.4-0.8-1-1.1-1.7-1.2c-3.7-2.9-5.7,2.3-6.1,5.2c-0.4,3.5-0.4,11.7,4.2,12.8c4.8,1.1,5.4-6.1,4.7-11.5c0.3,2,0.6,4,0.8,6.1
			c0.2,3-0.3,5.8-0.5,8.8c-0.8,2.6-1.9,5-4.8,6.7c-5.7,3.5-8-2.7-11-6c0,0-0.1,0-0.1,0c1.1,5.7,4.8,11,11.2,8.6
			c4.8-1.8,8.1-7.9,7.3-13.1C107.7,47.4,105.4,40.5,103.8,36.8L103.8,36.8z M99.2,48.2C99,49.1,99,48.7,99.2,48.2L99.2,48.2
			L99.2,48.2z M88.8,55.7c0-6.6-1.3-12.9-1.7-19.5c-0.2-3.5,0.2-7.8,3.9-9.2c4.8-1.8,10.1,2.2,11.9,6.3c0,0,0.1,0,0.1,0
			c0.3-9-11.9-12.3-16.8-5.3c-2.4,3.3-1.9,8.7-1.4,12.4c0.6,5.1,1,10.8,3.5,15.4C88.4,56,88.8,55.9,88.8,55.7L88.8,55.7z M77.2,36.6
			c-0.1,0.2-0.1,0.5-0.2,0.7c0-0.3,0-0.5,0-0.8c1-1.8-0.9-4.1-2.9-3.8c-2.3,0.4-2.9,3.5-3.3,5.3c-0.5,2.3-0.7,3.6-1,6.3
			c-0.2,2.4,0.2,5.7,3,6.3c0.8,0.2,1.5,0,2-0.3c-0.1,0.4-0.2,0.7-0.3,1.1c-1.1,2.1-2.2,3.9-5.1,5c-3.8,1.4-8.5-1-9.8-4.6
			c-2.1-5.7-0.9-12.8,0-18.5c0,0,0-0.1-0.1,0c-2.3,4.4-2.7,9.6-2.6,14.5c0,3.2,0.4,7.3,3.1,9.4c3.1,2.4,7.7,2.1,11.2,0.7
			c1.6-0.6,2.6-2,3.3-3.5c1.8-1.8,2-5,2.3-7.4C77.4,43.6,77.5,40.1,77.2,36.6C77.3,36.6,77.2,36.6,77.2,36.6L77.2,36.6z M70.5,21.4
			c-7-0.5-9.5,4.9-10.3,10.9c0,0.1,0.1,0.1,0.2,0c1.3-4.4,4.5-8.2,9.4-8.1c5.1,0.1,5.4,5.3,7.1,8.6c0.1,0.2,0.4,0.2,0.5-0.1
			C78.5,27.8,76,21.8,70.5,21.4L70.5,21.4z M73.1,122c-30,0-54.4-24.5-54.4-54.7c0-30.2,24.3-54.7,54.4-54.7
			c30,0,54.4,24.5,54.4,54.7C127.5,97.5,103.1,122,73.1,122L73.1,122z"/>
	</g>
</g>
</svg>
