<?xml version="1.0" encoding="utf-8"?>
<!-- Generator: Adobe Illustrator 17.1.0, SVG Export Plug-In . SVG Version: 6.00 Build 0)  -->
<!DOCTYPE svg PUBLIC "-//W3C//DTD SVG 1.1//EN" "http://www.w3.org/Graphics/SVG/1.1/DTD/svg11.dtd">
<svg version="1.1" xmlns="http://www.w3.org/2000/svg" xmlns:xlink="http://www.w3.org/1999/xlink" x="0px" y="0px"
	 viewBox="0 0 143 134" enable-background="new 0 0 143 134" xml:space="preserve">
<g id="Colors">
	<linearGradient id="SVGID_1_" gradientUnits="userSpaceOnUse" x1="98.9093" y1="118.4527" x2="44.2108" y2="13.9959">
		<stop  offset="0" style="stop-color:#FAA61A"/>
		<stop  offset="0.6011" style="stop-color:#FFF450"/>
		<stop  offset="1" style="stop-color:#FFFFFF"/>
	</linearGradient>
	<circle fill="url(#SVGID_1_)" cx="72.5" cy="68" r="57"/>
	<linearGradient id="SVGID_2_" gradientUnits="userSpaceOnUse" x1="111.4039" y1="131.6395" x2="60.5077" y2="44.7837">
		<stop  offset="0" style="stop-color:#F26722"/>
		<stop  offset="1" style="stop-color:#FFF450"/>
		<stop  offset="1" style="stop-color:#FFFFFF"/>
	</linearGradient>
	<path fill="url(#SVGID_2_)" d="M110,26.1c5.4,7.1,9,14.7,10.8,23.4c2.5,12.5,1.8,26.3-4.5,37.7c-6.4,11.6-18.1,19.2-30.8,22.6
		c-12.6,3.3-26.3,2.9-38.5-1.5c-9.3-3.3-17-9-23.5-16.3c-0.6-0.7-1.3-1.5-1.9-2.2c3.4,5.8,6.8,11.6,11.2,16.8
		c4.2,5,9.4,9.2,15.3,12.1c6.1,3,12.9,4.6,19.6,5.1c6.9,0.5,13.9-0.1,20.6-1.7c6.3-1.6,12.4-4.2,17.8-7.9c5.2-3.6,9.7-8.3,13.2-13.5
		c3.7-5.5,6.4-11.5,8.3-17.8c1.8-6.1,2.9-12.6,2.8-19c-0.1-5.8-1.2-11.5-3.5-16.8c-2.1-5-5.2-9.4-8.5-13.6c-0.8-1-1.6-2-2.4-3
		L110,26.1z"/>
	<path fill="#FFFFFF" d="M39.7,84.8c6.8,12,15.5,25.7,30.8,27.9c13.5,1.9,26.5-4.4,35.1-15c5.2-6.3,6.7-14.1,7.7-22
		C97.7,85,77.4,90.1,59.3,87.6c-5.1-0.7-11.4-3.2-16.5-2.4L39.7,84.8z"/>
	<g>
		<linearGradient id="SVGID_3_" gradientUnits="userSpaceOnUse" x1="41.6108" y1="33.3368" x2="49.2221" y2="81.5411">
			<stop  offset="0" style="stop-color:#000000"/>
			<stop  offset="0.5213" style="stop-color:#4A4B4C"/>
			<stop  offset="1" style="stop-color:#8F9194"/>
		</linearGradient>
		<path fill="url(#SVGID_3_)" d="M60.3,37.9c-16-1.2-37.7,2.8-36.8,23.4c0.8,20.8,28.5,14.9,37.9,3.9c6.9-8.1,7.4-16.5,1.8-25.3
			L60.3,37.9z"/>
		<linearGradient id="SVGID_4_" gradientUnits="userSpaceOnUse" x1="94.2299" y1="25.0283" x2="101.8413" y2="73.2326">
			<stop  offset="0" style="stop-color:#000000"/>
			<stop  offset="0.5213" style="stop-color:#4A4B4C"/>
			<stop  offset="1" style="stop-color:#8F9194"/>
		</linearGradient>
		<path fill="url(#SVGID_4_)" d="M108.9,33.7c-8.8-3.9-19.8-2.2-29-1.2l-1,0.3c-3.2,7.6-4.6,14.9,0.9,21.8
			c4.8,6.1,12.6,10.1,20.2,10.8c8.5,0.8,17-3.2,18.8-12.1C120.5,45.3,116.3,37,108.9,33.7z"/>
	</g>
</g>
<g id="Lineart">
	<g>
		<path fill-rule="evenodd" clip-rule="evenodd" d="M72.5,10.1c-32.5,0-58.8,26.3-58.8,58.8c0,32.5,26.3,58.8,58.8,58.8
			c32.5,0,58.8-26.3,58.8-58.8C131.3,36.4,105,10.1,72.5,10.1L72.5,10.1z M28,73.4c4.8,4.4,11.7,4.6,17.7,3.4c3.2-0.6,6.3-2,9.1-3.6
			c4.1-2.3,5.5-6,7.9-9.8c0.1-0.1-0.1-0.2-0.2-0.2c-7.7,7.4-19.8,14.1-30.4,8.5c-8.9-4.7-9.6-20.5-2-26.7c4.7-2.6,10.1-4.3,15.5-5.7
			c0.1,0.2,0.3,0.3,0.6,0.3c5.6-0.7,11.6-2.4,16.4,1.4c3.4,2.7,3.9,9.1,3.1,14.2c-0.2,0.3-0.2,0.6-0.3,1c0,0.2-0.1,0.5-0.1,0.7
			c0,0.1,0,0.2,0,0.2c-0.1,0.5-0.3,1-0.4,1.4c0,0.1-0.1,0.1-0.1,0.2c0,0,0,0,0,0.1c-0.1,0.2-0.2,0.5-0.3,0.7c0,0.1,0.1,0.1,0.1,0.1
			c1.8-2.7,3.1-6.1,3.4-9.4c0.9-0.6,1.7-1.2,2.5-1.8c0.7-0.5,3.3-1.1,3.8,0c0.2,0.4,0.4,0.6,0.7,0.7c1.6,4.8,5.4,8.2,9.9,11.2
			c6.7,4.5,15.6,7.5,23.8,5.9c5.9-1.1,13.6-7.4,11.6-14.2c0.8-4.1-0.8-8.8-2.8-12.2c-3.4-5.6-9.3-7.9-15.4-8.2
			c-0.4-0.1-0.8-0.1-1.2-0.2c-3.9-0.8-7.2-1.2-11.2-1c-6.4,0.4-12.8,1-19.2,1.8c-6.3,0.8-12.5,1.8-18.6,3.3c-0.3,0.1-0.6,0.2-1,0.3
			c-0.7,0.1-1.3,0.3-1.9,0.6c-4.1,1.2-8,2.6-12.1,3.8c-2.9,0.8-5.6,1.6-7.2,4c-4.7,1.6-6.6,7.1-7.1,11.8C21.9,62.6,23,68.8,28,73.4
			L28,73.4z M100.5,32.6c0.8,0.6,1.7,0.8,3,1.2c3.4,1,6.5,2.6,9.1,4.9c4.4,3.9,5.1,9.5,4.7,14.9c-1.7,5.8-4.7,9.8-11.7,10.3
			c-7,0.5-12.8-0.3-18.8-4c-5.9-3.6-8.5-8.3-9.4-15c-0.4-2.9-0.2-5.8,1-8.5c0.6-1.4,1.9-2.4,2.5-3.8C87.4,31.9,94.3,31.3,100.5,32.6
			L100.5,32.6z M76.9,33.4c-2.1,2.7-2.7,8.1-2.7,10.4c0,0.4,0,0.7,0.1,1c-1-0.2-2-0.2-2.9,0c-1.3,0.2-2.3,1-3.3,1.9
			c-0.3-2.5-1.2-4.9-2.8-6.9c-1.5-1.9-3.7-3.1-6.1-3.7c3.4-0.6,6.8-1.1,10.2-1.5C71.7,34.2,74.3,33.8,76.9,33.4L76.9,33.4z
			 M124.6,70.5c-0.3-1.3-1-2.4-1.9-3.3c-0.7-0.8-1.9-1.5-3-1.5c-1.5,0-2.4,0.7-3.6,1.3c-0.1,0.1-0.1,0.3,0.1,0.3
			c0.9,0,2.1,0,2.9,0.2c0.8,0.1,1.4,0.9,1.8,1.5c0.5,0.7,0.8,1.5,1,2.3c0.1,0.5,0.5,1.3,0.5,1.7c0,0.8,1,1,1.5,0.4
			C124.7,72.4,124.9,71.8,124.6,70.5L124.6,70.5z M29.8,88c-0.6-0.9-0.8-2.1-0.9-3.2c-0.1-1.2,0-2.2,0.8-3.1c1.1-1.2,2.7-1.1,4-1.8
			c0,0,0.1-0.1,0.1-0.1c-0.3-1.8-2.9-1.4-4.2-0.9c-2,0.9-3.3,2.5-3.8,4.6c-0.5,2.1-0.2,4.4,0.8,6.3c0.9,1.6,3.2,3.1,4.8,1.5
			c0.4-0.4,0.5-1,0.2-1.5C31.2,89,30.3,88.7,29.8,88L29.8,88z M117.1,72.4c-2.9,1.4-5.5,3.4-8.4,4.8c-3.8,1.9-7.8,3.3-11.7,4.9
			c-7.1,2.9-16,4.7-23.6,4.7c-7.5,0-15.9-1.1-23.3-2.3c-5.7-0.9-11.6-2.5-16.6,1.1c-0.3,0.2-0.1,0.6,0.2,0.5c1.3-0.4,2.7-0.4,4-0.3
			c3.3,3.5,3.9,8.7,6.4,12.7c2,3.1,5.3,6.8,8.6,8.5c4.1,2.2,7.1,3.7,11.8,4.6c5,1,9,2.5,14.3,1.7c19-2.8,32.9-16.5,36.5-35.3
			c0.1-0.8,0-1.4-0.3-1.8c1.1-0.9,2.1-1.8,3-3C118.6,72.7,117.7,72.1,117.1,72.4L117.1,72.4z M100.1,101.8
			c-6.7,6-16.1,9.5-24.9,10.2c-4.4,0.4-9.1-0.7-13.4-1.7c-4.1-1-6.7-4.3-9.3-7.4c2.6,0.6,5.4,0.7,7.8,0.4c6.2-0.8,12.4-1.1,18.5-2.4
			c7.6-1.6,14.8-4,22.1-6.5c2.5-0.8,5.3-1.7,7.7-3C106.3,95.3,103.2,99,100.1,101.8L100.1,101.8z M110.3,87
			c-3.4,3.4-8.1,5.4-12.6,6.9c-5.8,2-11.6,3.8-17.6,5c-5.5,1.1-11.5,0.8-17.1,0.4c-5.3-0.4-9.9-0.7-14.9-2.7
			c-1.8-3.5-3.2-7.3-5.8-10c1.2,0.3,2.3,0.7,3.5,1c3.4,0.9,6.9,1.5,10.4,1.9c7.3,0.8,15.6,0.7,22.9-0.3c8-1.1,15.7-3.7,23.1-6.8
			c2.8-1.2,5.9-2.2,8.8-3.6C111.4,81.6,111.1,84.4,110.3,87L110.3,87z M72.8,121.7c-30,0-54.4-24.5-54.4-54.7
			c0-30.2,24.3-54.7,54.4-54.7s54.4,24.5,54.4,54.7C127.1,97.2,102.8,121.7,72.8,121.7L72.8,121.7z"/>
	</g>
</g>
</svg>
