<?xml version="1.0" encoding="utf-8"?>
<!-- Generator: Adobe Illustrator 17.1.0, SVG Export Plug-In . SVG Version: 6.00 Build 0)  -->
<!DOCTYPE svg PUBLIC "-//W3C//DTD SVG 1.1//EN" "http://www.w3.org/Graphics/SVG/1.1/DTD/svg11.dtd">
<svg version="1.1" xmlns="http://www.w3.org/2000/svg" xmlns:xlink="http://www.w3.org/1999/xlink" x="0px" y="0px"
	 viewBox="0 0 143 134" enable-background="new 0 0 143 134" xml:space="preserve">
<g id="Colors">
	<linearGradient id="SVGID_1_" gradientUnits="userSpaceOnUse" x1="97.1836" y1="117.1426" x2="42.4851" y2="12.6859">
		<stop  offset="0" style="stop-color:#FAA61A"/>
		<stop  offset="0.6011" style="stop-color:#FFF450"/>
		<stop  offset="1" style="stop-color:#FFFFFF"/>
	</linearGradient>
	<circle fill="url(#SVGID_1_)" cx="70.8" cy="66.7" r="57"/>
	<linearGradient id="SVGID_2_" gradientUnits="userSpaceOnUse" x1="109.6783" y1="130.3291" x2="58.782" y2="43.4732">
		<stop  offset="0" style="stop-color:#F26722"/>
		<stop  offset="1" style="stop-color:#FFF450"/>
		<stop  offset="1" style="stop-color:#FFFFFF"/>
	</linearGradient>
	<path fill="url(#SVGID_2_)" d="M108.3,24.8c5.4,7.1,9,14.7,10.8,23.4c2.5,12.5,1.8,26.3-4.5,37.7c-6.4,11.6-18.1,19.2-30.8,22.6
		c-12.6,3.3-26.3,2.9-38.5-1.5c-9.3-3.3-17-9-23.5-16.3c-0.6-0.7-1.3-1.5-1.9-2.2c3.4,5.8,6.8,11.6,11.2,16.8
		c4.2,5,9.4,9.2,15.3,12.1c6.1,3,12.9,4.6,19.6,5.1c6.9,0.5,13.9-0.1,20.6-1.7c6.3-1.6,12.4-4.2,17.8-7.9c5.2-3.6,9.7-8.3,13.2-13.5
		c3.7-5.5,6.4-11.5,8.3-17.8c1.8-6.1,2.9-12.6,2.8-19c-0.1-5.8-1.2-11.5-3.5-16.8c-2.1-5-5.2-9.4-8.5-13.6c-0.8-1-1.6-2-2.4-3
		L108.3,24.8z"/>
	<path fill="#FFFFFF" d="M68,30.3c-2.8-5.5-7.2-8.4-13-4.7c-5.4,3.5-6,10-5.6,15.8c0.4,5.5,1.7,11.6,5.6,15.7
		c4.2,4.3,9.5,3.3,12.4-1.8c3.5-6.1,2.4-13.7,1.9-20.3L68,30.3z"/>
	<path fill="#FFFFFF" d="M84,28c-4.6,3.1-6,6.5-5.9,12c0.1,4.8-0.3,11.3,1.9,15.7c2.1,4.2,7.7,5.8,11.6,2.8C96,55,95.5,47.9,94.9,43
		c-0.7-5.6-2.7-9.7-6.5-13.8L84,28z"/>
</g>
<g id="Lineart">
	<g>
		<path fill-rule="evenodd" clip-rule="evenodd" d="M70.5,8.7C38.1,8.7,11.7,35,11.7,67.5c0,32.5,26.3,58.8,58.8,58.8
			c32.5,0,58.8-26.3,58.8-58.8C129.3,35,103,8.7,70.5,8.7L70.5,8.7z M82.4,49.4c1,1.7,3,1.5,4.5,0.4c1.2-0.9,1.9-2.5,2.4-3.9
			c0.6-1.7,0.5-3.4-0.6-4.8c-0.6-0.8-1.5-1-2.5-1c-0.8-0.2-1.7,0-2.4,0.3c-1.3,0.7-2,2.5-2.4,3.8c-0.4,1.3-0.7,3.1,0.1,4.4
			C81.8,48.9,82.1,49.2,82.4,49.4L82.4,49.4z M63.6,38.7c-0.8-0.7-2.2-1-3.1-0.6c-0.9,0.4-1.5,1-2,1.7c-1.3,1.6-2,4.1-1.6,6.1
			c0.2,1.2,0.9,2.2,2,2.7c0.4,0.3,1,0.5,1.6,0.5c1.6,0.1,2.7-1,3.4-2.3c0.3-0.6,0.6-1.2,0.8-1.8C65.5,42.6,65.3,39.9,63.6,38.7
			L63.6,38.7z M99,29.9c1.1,2.1,1.2,5.5,2.9,7c0.3,0.3,0.7,0.2,1-0.1c1.6-2.3-0.6-6.1-1.7-8.2c-1.5-2.8-4.1-5.4-7.3-5.9
			c-0.2,0-0.5,0.3-0.3,0.4C95.9,25,97.7,27.3,99,29.9L99,29.9z M44.4,31.7c1.3-0.7,1.3-2.2,1.6-3.4c0.4-1.8,1.2-3.4,2.2-5
			c0.9-1.6,2.7-4.1,4.3-5c0,0,0-0.1,0-0.1c-3,0.9-5,1.9-6.9,4.5c-1.7,2.2-3.7,5.8-2.5,8.5C43.3,31.5,44,31.9,44.4,31.7L44.4,31.7z
			 M92.8,37.6c1,4.2,1.7,8.2,1.8,12.5c0,0.2,0.3,0.3,0.3,0.1c3.5-6.8-0.8-18.6-7.5-22c-0.1,0-0.2,0-0.1,0.1
			C89.4,31.6,91.8,33.6,92.8,37.6L92.8,37.6z M79.6,54.6c0.1,3.8,2.6,6.5,6.5,6.7c3.4,0.2,8.9-2.4,8.5-6.4c0-0.2-0.3-0.4-0.5-0.3
			c-2.4,1.6-3.8,3.6-6.7,4.4c-3.5,1-6.5-1.1-7.7-4.4C79.7,54.5,79.6,54.5,79.6,54.6L79.6,54.6z M79.3,53.4c0.5-4.3,0.2-8.3-0.1-12.6
			c-0.2-2.5,0-5.1,0.7-7.5c0.6-2.1,4.1-5.9,6.6-4.9c0,0,0.1,0,0-0.1c-3.5-1.9-7,0.9-8.6,4.1c-2.9,5.8-1.5,15.3,1,21
			C79.1,53.6,79.3,53.5,79.3,53.4L79.3,53.4z M50.1,51.1c1.4,3.7,4.5,6.7,7.8,8.6c4.7,2.7,9.3-1.7,11.1-5.9c0.1-0.3-0.3-0.7-0.5-0.4
			c-1.2,1.4-2.1,3-3.4,4.4c-3.3,3.5-8.7,1.8-10.4-2c-1.4-3.1-2.5-6.2-3.2-9.6c-1.6-6.8-0.9-13.5,2.8-19.4c0-0.1,0-0.1-0.1-0.1
			C46.3,30.1,47.7,44.9,50.1,51.1L50.1,51.1z M68.3,52.7c0,0.2,0.2,0.3,0.4,0.2c5.8-7.8,1.9-36-12.5-27.8c-0.1,0,0,0.1,0,0.1
			C70.6,19.2,69.4,45.4,68.3,52.7L68.3,52.7z M120.7,66.4c-0.3-0.8-3.6-4.6-4.3-2.3c-0.4,1.3,0.9,2.9,1.1,4.2c0.3,2-0.5,4,0,6
			c0.3,1.4,2.2,1.5,2.9,0.4C121.8,72.6,121.7,68.8,120.7,66.4L120.7,66.4z M33.5,82.4c-0.3-1.8-0.3-3.7-0.5-5.6
			c0-0.2-0.2-0.3-0.4-0.2c-2,1.3-2.7,3.3-2.8,5.7c-0.1,2.3,0.7,6.1,3.1,7.2c1.4,0.6,2.7-0.4,2.5-1.9C35,85.8,33.8,84.3,33.5,82.4
			L33.5,82.4z M114.5,71.1c-0.1-0.6-0.1-1.2-0.3-1.8c-0.4-1.4-1.9-3-3.3-1.7c-0.4,0.4-0.6,0.9-0.7,1.6c-3.3,0.1-7.1,1.7-10.1,2.2
			c-7.4,1.2-14.8,3.2-22.1,5.1c-0.8,0.2-1.6,0.4-2.5,0.6c-0.4,0.1-0.8,0.1-1.3,0.2c-0.8,0.1-1.6,0.3-2.4,0.5
			c1.2-0.2,2.5-0.4,3.7-0.7c5.9-1,11.9-1.4,17.8-2.2c3.5-0.5,7-1.1,10.6-1.5c1.8-0.2,4.4-1.2,6.4-1c0,0.1,0,0.2,0,0.4
			c0.1,1.2,0.9,2.1,2.1,2.1c1.5,0,2.3-1.4,2.1-2.7c0.1,0.7,0,0,0-0.2C114.6,71.6,114.5,71.4,114.5,71.1L114.5,71.1z M41.5,81.6
			c-0.2-1-0.5-2.3-1.6-2.2c-1.6,0.1-2,2.1-2.1,3.4c-0.1,1.5,0.2,3,1.2,4.2c1.5,1.9,4.8-0.6,3.4-2.6c-0.3-0.4-0.3-0.4-0.4-0.9
			c-0.1-0.3-0.1-0.5-0.2-0.8c5.2-1.5,10.6-1.5,16-2.2c4.8-0.6,9.5-1.9,14.2-2.9c-5.3,0.9-10.8,1.3-16.1,1.9
			C50.9,80,46,79.9,41.5,81.6L41.5,81.6z M70.8,120.3c-30,0-54.4-24.5-54.4-54.7c0-30.2,24.3-54.7,54.4-54.7
			c30,0,54.4,24.5,54.4,54.7C125.1,95.8,100.8,120.3,70.8,120.3L70.8,120.3z"/>
	</g>
</g>
</svg>
