<?xml version="1.0" encoding="utf-8"?>
<!-- Generator: Adobe Illustrator 17.1.0, SVG Export Plug-In . SVG Version: 6.00 Build 0)  -->
<!DOCTYPE svg PUBLIC "-//W3C//DTD SVG 1.1//EN" "http://www.w3.org/Graphics/SVG/1.1/DTD/svg11.dtd">
<svg version="1.1" xmlns="http://www.w3.org/2000/svg" xmlns:xlink="http://www.w3.org/1999/xlink" x="0px" y="0px"
	 viewBox="0 0 143 134" enable-background="new 0 0 143 134" xml:space="preserve">
<g id="Colors">
	<linearGradient id="SVGID_1_" gradientUnits="userSpaceOnUse" x1="96.9092" y1="117.4527" x2="42.2107" y2="12.996">
		<stop  offset="0" style="stop-color:#FAA61A"/>
		<stop  offset="0.6011" style="stop-color:#FFF450"/>
		<stop  offset="1" style="stop-color:#FFFFFF"/>
	</linearGradient>
	<circle fill="url(#SVGID_1_)" cx="70.5" cy="67" r="57"/>
	<linearGradient id="SVGID_2_" gradientUnits="userSpaceOnUse" x1="109.4036" y1="130.6389" x2="58.5073" y2="43.783">
		<stop  offset="0" style="stop-color:#F26722"/>
		<stop  offset="1" style="stop-color:#FFF450"/>
		<stop  offset="1" style="stop-color:#FFFFFF"/>
	</linearGradient>
	<path fill="url(#SVGID_2_)" d="M108,25.1c5.4,7.1,9,14.7,10.8,23.4c2.5,12.5,1.8,26.3-4.5,37.7c-6.4,11.6-18.1,19.2-30.8,22.6
		c-12.6,3.3-26.3,2.9-38.5-1.5c-9.3-3.3-17-9-23.5-16.3c-0.6-0.7-1.3-1.5-1.9-2.2c3.4,5.8,6.8,11.6,11.2,16.8
		c4.2,5,9.4,9.2,15.3,12.1c6.1,3,12.9,4.6,19.6,5.1c6.9,0.5,13.9-0.1,20.6-1.7c6.3-1.6,12.4-4.2,17.8-7.9c5.2-3.6,9.7-8.3,13.2-13.5
		c3.7-5.5,6.4-11.5,8.3-17.8c1.8-6.1,2.9-12.6,2.8-19c-0.1-5.8-1.2-11.5-3.5-16.8c-2.1-5-5.2-9.4-8.5-13.6c-0.8-1-1.6-2-2.4-3
		L108,25.1z"/>
	<path fill="#FFFFFF" d="M42.7,47c0.9-5.6,3.2-9.9,9.6-8.9c5.8,0.9,7.8,5.4,8.1,10.7c0.3,4.9,0.4,11-2.5,15.2
		c-2.6,3.9-7.7,6-11.5,2.5c-4.3-4-4.5-10.9-4.4-16.3L42.7,47z"/>
	<path fill="#FFFFFF" d="M80.8,30.3c-5.8,0.6-9.4,3.3-9.2,9.5c0.2,4.5,2.1,9.2,4.8,12.8c2.5,3.4,7.5,7.2,12,4.8
		c4.6-2.5,3.5-9.5,2.8-13.7c-1-5.8-2.7-9.9-7.8-13.2L80.8,30.3z"/>
</g>
<g id="Lineart">
	<g>
		<path fill-rule="evenodd" clip-rule="evenodd" d="M70.2,8.4c-32.5,0-58.8,26.3-58.8,58.8c0,32.5,26.3,58.8,58.8,58.8
			c32.5,0,58.8-26.3,58.8-58.8C129,34.7,102.6,8.4,70.2,8.4L70.2,8.4z M79.3,38c-2.5-0.7-4.7,1.7-3.6,4c-0.4,2.6,1.2,6,2.9,7.3
			c1.7,1.3,4.2,0.7,5.2-1.1c1.1-1.8,0.2-4.2-0.6-6C82.4,40.3,81.4,38.5,79.3,38L79.3,38z M53.9,56.8c1.7,0.1,2.7-1.5,3.2-2.9
			c0.5-1.5,0.6-3.3,0.1-4.9c-0.1-0.9-0.3-1.8-0.7-2.6c-0.8-1.5-4.3-3.2-5.2-1c-0.3,0.2-0.5,0.4-0.6,0.7c-1.2,2.2-1.1,5.8-0.1,8.1
			C51.2,55.6,52.3,56.7,53.9,56.8L53.9,56.8z M49.2,31.7c2.7,0.7,4.5,2.8,7,3.7c0.9,0.3,1.9-0.9,1.3-1.7c-3.5-4.8-13.1-5.5-17.8-2.3
			c-0.1,0,0,0.2,0.1,0.1C43.1,30.7,46.1,30.9,49.2,31.7L49.2,31.7z M68.6,29c0.5-2,1.3-3.8,2.5-5.5c1.1-1.6,2.8-2.6,4-4.1
			c0.1-0.2,0-0.4-0.2-0.4c-2.7-0.2-5.2,2.5-6.6,4.5c-1.4,1.9-4.4,6.5-2.7,8.9C67.4,34.9,68.4,29.9,68.6,29L68.6,29z M77.3,54.3
			C77.2,54.3,77.2,54.3,77.3,54.3c3.7,5.2,12.4,7.2,15.2-0.2c2.7-7.4-0.9-17.4-6.5-22.6c-0.1-0.1-0.2,0-0.1,0.1
			c2.8,4.7,4.9,9.3,5.6,14.7c0.4,2.9,0.2,5.5-1.2,8.2C87,60.5,81.1,56.2,77.3,54.3L77.3,54.3z M71.3,34.5c-2.2,6-0.4,13.2,4.7,17.2
			c0.2,0.1,0.5,0,0.4-0.2c-1.1-3.9-2.8-7.3-3.2-11.4c-0.5-5.4,3.2-10.9,9.2-9.4c0.1,0,0.1-0.1,0-0.1C78.1,28,73,29.7,71.3,34.5
			L71.3,34.5z M44.9,40.4c0,0.1,0.1,0.1,0.2,0.1c2.4-2.9,8.4-1.5,11.2,0.2c3.8,2.3,3,8,3.5,12.2c-0.6,3.5,0.2,7.1-1.6,10.6
			c-2.9,5.6-9,5.2-12.5,0.6c-4.9-6.5-2.7-15.1-1.1-22.2c0,0,0-0.1-0.1,0c-5.2,6-4.8,22.1,2.4,26.6c8.2,5.2,14.5-7.2,14.6-15
			c1.4-5.1,0-12.8-5-15C53.7,37.2,45.4,35.8,44.9,40.4L44.9,40.4z M117.3,61.4c-2-1.6-5.2-2.6-7.7-1.5c-0.2,0.1-0.2,0.4,0,0.4
			c1.9,0.9,4,1.2,5.7,2.5c2,1.6,1.4,3.8,1.9,5.9c0.3,1.1,1.8,1.3,2.4,0.3C121.1,66.5,119.5,63.1,117.3,61.4L117.3,61.4z M41.6,84
			c-1.1,0.9-2,1.5-2.9,2.7c-1.1,1.4-2.1,2.8-2.8,4.4c-1,2.3-1.6,6.2,1.2,7.4c1.1,0.5,2.8-0.3,2.3-1.7c-1-2.4-0.9-3.8-0.1-6.3
			c0.7-2.1,1.7-4.4,2.6-6.4C41.9,84,41.8,83.9,41.6,84L41.6,84z M97,64.4C90,64.5,83.2,66.7,76.7,69c-12.2,4.5-25.1,11.6-32.9,22.4
			c0,0,0,0,0,0c4.3-3.2,8.2-6.7,12.6-9.7c5.4-3.6,11.5-6,17.6-8.5c5.8-2.4,11.7-4.2,17.8-5.6c5.8-1.3,11.1-0.8,16.6,1
			c0.6,0.2,1.2-0.7,0.7-1.1C105.1,64.2,102.2,64.3,97,64.4L97,64.4z M70.5,120c-30,0-54.4-24.5-54.4-54.7
			c0-30.2,24.3-54.7,54.4-54.7c30,0,54.4,24.5,54.4,54.7C124.8,95.5,100.5,120,70.5,120L70.5,120z"/>
	</g>
</g>
</svg>
