<?xml version="1.0" encoding="utf-8"?>
<!-- Generator: Adobe Illustrator 17.1.0, SVG Export Plug-In . SVG Version: 6.00 Build 0)  -->
<!DOCTYPE svg PUBLIC "-//W3C//DTD SVG 1.1//EN" "http://www.w3.org/Graphics/SVG/1.1/DTD/svg11.dtd">
<svg version="1.1" xmlns="http://www.w3.org/2000/svg" xmlns:xlink="http://www.w3.org/1999/xlink" x="0px" y="0px"
	 viewBox="0 0 143 134" enable-background="new 0 0 143 134" xml:space="preserve">
<g id="Colors">
	<linearGradient id="SVGID_1_" gradientUnits="userSpaceOnUse" x1="99.1838" y1="118.1428" x2="44.4848" y2="13.6852">
		<stop  offset="0" style="stop-color:#FAA61A"/>
		<stop  offset="0.6011" style="stop-color:#FFF450"/>
		<stop  offset="1" style="stop-color:#FFFFFF"/>
	</linearGradient>
	<circle fill="url(#SVGID_1_)" cx="72.8" cy="67.7" r="57"/>
	<linearGradient id="SVGID_2_" gradientUnits="userSpaceOnUse" x1="111.6783" y1="131.329" x2="60.782" y2="44.4732">
		<stop  offset="0" style="stop-color:#F26722"/>
		<stop  offset="1" style="stop-color:#FFF450"/>
		<stop  offset="1" style="stop-color:#FFFFFF"/>
	</linearGradient>
	<path fill="url(#SVGID_2_)" d="M110.3,25.8c5.4,7.1,9,14.7,10.8,23.4c2.5,12.5,1.8,26.3-4.5,37.7c-6.4,11.6-18.1,19.2-30.8,22.6
		c-12.6,3.3-26.3,2.9-38.5-1.5c-9.3-3.3-17-9-23.5-16.3c-0.6-0.7-1.3-1.5-1.9-2.2c3.4,5.8,6.8,11.6,11.2,16.8
		c4.2,5,9.4,9.2,15.3,12.1c6.1,3,12.9,4.6,19.6,5.1c6.9,0.5,13.9-0.1,20.6-1.7c6.3-1.6,12.4-4.2,17.8-7.9c5.2-3.6,9.7-8.3,13.2-13.5
		c3.7-5.5,6.4-11.5,8.3-17.8c1.8-6.1,2.9-12.6,2.8-19c-0.1-5.8-1.2-11.5-3.5-16.8c-2.1-5-5.2-9.4-8.5-13.6c-0.8-1-1.6-2-2.4-3
		L110.3,25.8z"/>
	<path fill="#FFFFFF" d="M38.2,60.1c-5.7,5.5-10.1,11.4-9.8,19.7c0.3,8.1,4.5,16.6,11.7,20.7c7.1,4,15.6,2.7,23.3,2.3
		c9.1-0.6,18.2-0.6,27.4-0.6c18.4,0,29.3-9.1,30.4-26.7c0.5-7.4,0.1-16.8-6.3-21.4c-6.2-4.6-15.1-1.5-21.4,1
		c-7.6,3.1-13.3,6.8-21.6,6.4c-8-0.4-17.5-3.1-25.5-2.7c-1.9,0.1-3.8,0.3-5.7,0.4L38.2,60.1z"/>
</g>
<g id="Lineart">
	<g>
		<path fill-rule="evenodd" clip-rule="evenodd" d="M72.9,9.7C40.4,9.7,14.1,36,14.1,68.5c0,32.5,26.3,58.8,58.8,58.8
			c32.5,0,58.8-26.3,58.8-58.8S105.3,9.7,72.9,9.7L72.9,9.7z M78.8,37.2c0.1,0.7,0.6,1.1,1.2,1.2c0.7,0.5,1.7,0.7,2.3-0.1
			c1.5-1.7,3.9-1.5,5.9-2.2c1.9-0.7,4.5-1.5,6.6-1.3c0.1,0,0.1-0.1,0.1-0.1c-0.6-2.1-5.5-0.6-7.1-1.1c-1.1-0.3-2.6-0.3-4,0
			c0.5-0.6,1.1-1.2,1.9-1.8c1.9-1.3,4.1-1.8,5.9-3.1c0.1-0.1,0.1-0.2,0-0.2c-2.3-1.6-5.7-0.1-8,0.9c-0.4,0.2-0.7,0.4-1.1,0.6
			c1.2-2.8,3.6-4.1,5.9-6.2c0.1-0.1,0-0.2-0.1-0.2c-4.7-0.1-10,7-9.7,11.9C78.7,36.1,78.7,36.7,78.8,37.2L78.8,37.2z M46.1,41.1
			c0,0.2,0.1,0.3,0.3,0.2c2-1,4-1.8,6.2-2.3c1.7-0.4,3.2-0.6,4.9-0.3c1.5,0.2,2.5,0.9,4,0.8c0.5,0.4,1,0.6,1.7,0.5
			c1.2-0.1,1.8-1,1.6-2.1c-0.7-5.2-8.1-11.1-13.3-8.3c-0.1,0,0,0.1,0,0.1c2.5-0.4,5.2,0.8,7.1,2.3c0.7,0.5,1.4,1.3,2,2.1
			c-4.4-2.7-10.4-3.6-13.7,0.9c-0.1,0.2,0.1,0.3,0.2,0.2c3.2-1.4,6.7-1,9.7,0.5c-1.6,0-3.1,0.4-4.4,0.8
			C50.2,37.4,46.8,38.4,46.1,41.1L46.1,41.1z M119.7,46.7c-2.3-2.1-9-4.6-11.1-1c-0.1,0.1,0,0.3,0.1,0.3c1.7,0,3.1-0.4,4.8,0.1
			c2.1,0.6,4.1,2.5,5.3,4.3c2.1,3,2.1,6.9,4.3,9.9c0.2,0.3,0.9,0.4,0.9-0.1C124.8,55.3,123.4,50.2,119.7,46.7L119.7,46.7z
			 M35.9,52.4c0.2-0.2,0.1-0.4-0.1-0.5c-4.5-1.7-8.8,2.1-11.1,5.7c-2.8,4.3-3.2,9-1.8,13.7c0,0.1,0.2,0.1,0.2,0
			c-0.1-3.8,1.3-8.3,3.2-11.6c1.2-2.1,2.9-3.8,4.9-5C32.8,53.7,34.5,53.6,35.9,52.4L35.9,52.4z M90.2,101.5
			c-11.1-2.8-22.7,1.6-33.9,1.3c-6.8-0.1-13.2-2.9-18.6-7c-6.3-4.9-7.9-10.5-8.4-18.2c0-0.1-0.1-0.1-0.1,0c-0.4,6.2-0.5,11.6,2.9,17
			c2.8,4.5,8.7,7.5,13.5,9.4c6.2,2.5,13.1,1.3,19.6,0.4c4.6-0.6,9.2-1.5,13.9-1.8c3.8-0.2,7.5,0.3,11.1-0.5
			C90.6,102.1,90.6,101.6,90.2,101.5L90.2,101.5z M118.4,55.7c-9.5-13.6-25.9,0.9-36.8,4.1c-0.1,0-0.1,0.2,0,0.2
			c6.7-1,12.2-3.6,18.5-6c6.4-2.4,12.4-1.7,16.3,4.1c2,2.9,2.9,6.1,3.2,9.5c-0.3,0.5-0.6,1-0.8,1.5c-0.6,1.1-1.7,2-2.6,2.8
			c-0.8,0.8-1.7,1.3-2.8,1.6c-0.9,0.3-1.9,0.2-2.8,0.3c0,0-0.1-0.1-0.2-0.1c-0.1,0-0.1,0-0.2,0c1.2-3.4,0.6-7.5-1.3-10.6
			c0,0-0.1,0-0.1,0c0.1,3.6,1.3,7.8-0.5,11.1c-1.6,3-6.9,5-9.9,3.1c1.1-3.1,0.3-6.9,0-10c0-0.1-0.2-0.1-0.2,0
			c0.3,3.8,0.2,7.2-2.2,10.4c-1.7,2.3-4.6,3.2-7.4,3.4c-5.2,0.5-6.8-2.4-8-6.1c0-2.4-0.7-4.7-1.6-7c0,0-0.1,0-0.1,0
			c0.1,2.3,0.1,4.7,0.1,7c0,1.2-0.5,2.5-0.7,3.8c-1.1,1.9-2.3,3.6-4.9,4.4c-2.6,0.8-5.3,0.2-7.8-0.3c-0.5-0.1-0.9-0.2-1.4-0.4
			c-0.1-0.2-0.2-0.3-0.5-0.4c-0.3-0.2-0.7-0.3-1.1-0.3c-4.3-2.8-3.2-9.5-4.3-14.4c0,0-0.1,0-0.1,0c-0.6,4.3-0.4,9.2,0.5,13.4
			c0,0.1,0,0.1,0.1,0.2c-0.9,1.1-2.2,1.8-3.5,2.3c-0.6-0.1-1.2,0-1.7-0.1c-0.8,0-1.4,0.1-2,0.4c-2-0.2-3.9-1-5.3-2.4
			c-1.9-2-2.9-3.4-3.3-6.3c-0.3-2.1-0.2-4.3-0.3-6.5c0-0.1-0.1-0.1-0.1,0c-0.3,3.1-1.5,7.4-0.9,10.8c-0.4,0.2-0.8,0.4-1.4,0.4
			c-1.2,0-2.6-0.7-3.6-1.2c-0.7-0.3-1.4-0.8-2.1-1.2c-1.4-0.9-2-2.5-3.2-3.6c0,0-0.1,0-0.1,0c0.1,2.8,1.7,4.9,3.9,6.4
			c0.1,0.1,0.1,0.3,0.2,0.4c0.3,0.5,0.5,1.1,0.7,1.7c0.3,0.8,0.2,1.8,0.5,2.6c-0.2,2.2,0.2,4.6,0.9,6.2c0,0.1,0.1,0,0.1,0
			c-0.3-1.5-0.4-3.7,0.1-5.7c0.4-0.4,0.5-1,0.5-1.6c0.3-0.8,0.7-1.5,1.3-2.1c0.5,0.1,0.9,0.1,1.4,0c0.4,0.2,0.9,0.4,1.3,0.6
			c0.5,0.2,1.1,0.4,1.6,0.7c0.5,0.2,0.8,0.5,1.3,0.6c0.2,0.1,0.4,0.2,0.7,0.3c0.3,0.1,0.6,0.2,1,0.3c1,1.5,1.4,3.3,1.7,5.4
			c0.3,2.4,0.3,5.1,0.8,7.4c0,0.2,0.3,0.2,0.4,0c0.6-2.3,0.6-5.3,0.2-7.9c0.1-0.2,0.1-0.5,0.2-0.7c0.4-1.1,1-1.6,1.9-2.3
			c0.4-0.3,1-0.7,1.6-0.9c1.5-0.1,2.9-0.4,4.1-1.1c1.5,0,3.1,0.6,4.6,0.5c1,0.4,2,0.7,2.9,0.9c1.1,0.9,2.1,2,2.5,3.1
			c0.7,1.8,1,3.7,1.5,5.5c0,0,0,0,0,0c0.2,1.2,0.4,2.3,0.4,3.3c0,0.1,0.1,0.1,0.1,0c0.1-2.5,0-4.9,0.7-7.2c0.4-1.3,0.6-2.5,1.6-3.5
			c1-1,2.2-1.3,3.4-1.9c0.2-0.1,0.2-0.2,0.2-0.4c2-0.6,4.1-1.1,6.2-1.3c5.6-0.6,5.3,6.7,5.5,10.4c0,0.1,0.2,0.1,0.2,0
			c0.6-2.8,0.9-7.2-0.7-10c0.3,0,0.5,0.1,0.8,0.1c2.6,0.1,5.1-0.6,7.2-2c1.1,0,2.1-0.5,3.3-0.6c1.8-0.1,3.5,0.6,4.4,2.2
			c1.3,2.3,1.6,6.4,1,9c0,0,0,0,0,0c1.3-2.7,1.7-6.1,0.9-9.1c0-0.1,0-0.2,0.1-0.2c0.6-1.3,1.2-2.6,2.4-3.6c1.4-1.3,3.1-1.7,4.8-2.4
			c0.1,0,0.2-0.1,0.2-0.1c0.9,0.2,1.4,0.9,1.8,1.9c0,0.3,0.1,0.6,0.2,0.8c0.2,0.9,0.3,1.8,0.3,2.5c0.2,1.7,0,3.6,0,5.3
			c0,0.1,0.2,0.1,0.2,0.1c1-1.7,1.8-5.4,1.4-8.4c0-0.2,0.1-0.3,0.1-0.5c0.1-0.9,0.3-1.8,0.6-2.7c0.2-0.8,0.7-1.4,1.1-2.1
			c0.7-0.7,1.3-1.5,1.6-2.5c0.1-0.3,0.2-0.6,0.4-0.9c0,5.2-1.2,10.5-2.4,15.4c-2.6,4.7-5.3,9.1-10.1,12.1c-4.5,2.7-9.8,1.8-14.3,4
			c-0.1,0-0.1,0.2,0,0.2c4.5,2.1,11.2,0,15.5-2.1c5-2.5,8.8-7.5,9.8-13c2.4-5,4.1-9.7,4.3-15.6C122.8,65.8,121.5,60.1,118.4,55.7
			L118.4,55.7z M49.4,86.4c0,0,0.1,0,0.1,0c0,0.1-0.1,0.1-0.1,0.2C49.4,86.6,49.4,86.5,49.4,86.4L49.4,86.4z M109.6,75.3
			C109.6,75.3,109.6,75.3,109.6,75.3C109.6,75.3,109.5,75.3,109.6,75.3C109.5,75.3,109.5,75.3,109.6,75.3L109.6,75.3z M29.6,73.8
			c0,0.1,0.2,0.1,0.2,0c2.8-9.6,9.3-15.4,19.7-13.7c9,1.4,17.8,1.9,26.9,0.9c0.2,0,0.2-0.3,0-0.3c-5.9-0.6-11.9-1.5-17.8-2.1
			c-5.9-0.7-11.5-2.5-17.4-1C33.7,59.4,30.3,66.9,29.6,73.8L29.6,73.8z M73.1,121.3c-30,0-54.4-24.5-54.4-54.7
			c0-30.2,24.3-54.7,54.4-54.7c30,0,54.4,24.5,54.4,54.7C127.5,96.8,103.1,121.3,73.1,121.3L73.1,121.3z"/>
	</g>
</g>
</svg>
