<?xml version="1.0" encoding="utf-8"?>
<!-- Generator: Adobe Illustrator 17.1.0, SVG Export Plug-In . SVG Version: 6.00 Build 0)  -->
<!DOCTYPE svg PUBLIC "-//W3C//DTD SVG 1.1//EN" "http://www.w3.org/Graphics/SVG/1.1/DTD/svg11.dtd">
<svg version="1.1" xmlns="http://www.w3.org/2000/svg" xmlns:xlink="http://www.w3.org/1999/xlink" x="0px" y="0px"
	 viewBox="0 0 143 134" enable-background="new 0 0 143 134" xml:space="preserve">
<g id="Colors">
	<linearGradient id="SVGID_1_" gradientUnits="userSpaceOnUse" x1="96.9092" y1="117.4527" x2="42.2107" y2="12.996">
		<stop  offset="0" style="stop-color:#FAA61A"/>
		<stop  offset="0.6011" style="stop-color:#FFF450"/>
		<stop  offset="1" style="stop-color:#FFFFFF"/>
	</linearGradient>
	<circle fill="url(#SVGID_1_)" cx="70.5" cy="67" r="57"/>
	<path fill="#FFFFFF" d="M44.9,36.6c3.2-2.9,7.4-4.2,10.7-0.5c2.9,3.2,2.7,8.5,3,12.5c0.4,4.5-0.1,9.6-5.1,11.3
		c-5,1.8-7-2.7-8.2-6.8c-1.5-5.2-2.3-9.6-1-14.9L44.9,36.6z"/>
	<path fill="#FFFFFF" d="M72.9,29.3c3.1-3.6,6.9-4.2,10.4-0.5c2.9,3.1,3.9,7.9,5,11.9c1,3.7,2.1,10.3-3,11.5
		c-4.8,1.1-7.8-3.7-9.5-7.3c-2.2-4.7-4.3-9-3.2-14.3L72.9,29.3z"/>
	<linearGradient id="SVGID_2_" gradientUnits="userSpaceOnUse" x1="109.4036" y1="130.6389" x2="58.5073" y2="43.783">
		<stop  offset="0" style="stop-color:#F26722"/>
		<stop  offset="1" style="stop-color:#FFF450"/>
		<stop  offset="1" style="stop-color:#FFFFFF"/>
	</linearGradient>
	<path fill="url(#SVGID_2_)" d="M108,25.1c5.4,7.1,9,14.7,10.8,23.4c2.5,12.5,1.8,26.3-4.5,37.7c-6.4,11.6-18.1,19.2-30.8,22.6
		c-12.6,3.3-26.3,2.9-38.5-1.5c-9.3-3.3-17-9-23.5-16.3c-0.6-0.7-1.3-1.5-1.9-2.2c3.4,5.8,6.8,11.6,11.2,16.8
		c4.2,5,9.4,9.2,15.3,12.1c6.1,3,12.9,4.6,19.6,5.1c6.9,0.5,13.9-0.1,20.6-1.7c6.3-1.6,12.4-4.2,17.8-7.9c5.2-3.6,9.7-8.3,13.2-13.5
		c3.7-5.5,6.4-11.5,8.3-17.8c1.8-6.1,2.9-12.6,2.8-19c-0.1-5.8-1.2-11.5-3.5-16.8c-2.1-5-5.2-9.4-8.5-13.6c-0.8-1-1.6-2-2.4-3
		L108,25.1z"/>
</g>
<g id="Lineart">
	<g>
		<path fill-rule="evenodd" clip-rule="evenodd" d="M70.5,8.7C38.1,8.7,11.7,35,11.7,67.5c0,32.5,26.3,58.8,58.8,58.8
			c32.5,0,58.8-26.3,58.8-58.8C129.3,35,103,8.7,70.5,8.7L70.5,8.7z M70.8,120.3c-30,0-54.4-24.5-54.4-54.7
			c0-30.2,24.3-54.7,54.4-54.7c30,0,54.4,24.5,54.4,54.7C125.1,95.8,100.8,120.3,70.8,120.3L70.8,120.3z M106.6,62.2
			c-3.8,13.5-15.9,22.7-28.7,27.2c-6,2.1-12.2,2.7-18.5,2.6c-8.4-0.1-13.7-3-19.3-9c-0.1-0.1-0.3,0-0.3,0.1
			c0.1,5.5,8.9,9.4,13.3,10.7c7.6,2.2,16.8,1.1,24.3-1c7.9-2.1,15.6-6.1,21.7-11.5c4.8-4.3,10-12.5,8.3-19.1
			C107.3,61.8,106.7,61.8,106.6,62.2L106.6,62.2z M40.9,77.8c0.1,0,0.1-0.1,0-0.1c-1.3-0.5-2.3-0.9-3.7-0.3c-1.4,0.6-2.4,1.6-3.1,3
			c-1.3,2.5-1,6.6,2.2,7.3c0.2,0,0.3-0.1,0.3-0.3c-0.1-1.9-0.9-3.8-0.5-5.7C36.6,79.6,38.8,77.8,40.9,77.8L40.9,77.8z M110.2,53.1
			c-3.4-1.7-9.8-1-11.6,2.8c0,0,0,0.1,0.1,0.1c3.1-2.3,7.5-2.2,10.8-0.3c2.9,1.6,2.1,5.2,4.3,7.2c0.1,0.1,0.4,0.1,0.5,0
			C117.4,59.8,113,54.5,110.2,53.1L110.2,53.1z M44.1,38.4c0,0.1,0.1,0.1,0.2,0c2.1-2.8,4.6-4.5,8.2-3.4c3.5,1,3.8,4.5,5.3,7.3
			c0.1,0.1,0.3,0.1,0.3-0.1c0.2-3.7-1.9-8.4-5.7-9.4C48.5,31.8,44.3,34.2,44.1,38.4L44.1,38.4z M52.5,59.3c-2.5,0-3.9-2.5-4.9-4.5
			c-1.1-2.3-1.7-5-2.2-7.5c-0.4-2.3-1.5-4.6-1.3-7c0-0.1-0.1-0.1-0.1,0c0.1,3.2-0.5,6.3,0,9.6c0.5,3.4,1.4,7.1,3.8,9.8
			c1.9,2.1,4.4,1.6,6.6,0.4c3.8-2.1,5.8-7.1,4.7-11.2c0-0.1-0.2-0.1-0.2,0C58.1,52.4,57.6,59.2,52.5,59.3L52.5,59.3z M82.3,26.8
			c-3.9-2.5-10.4-0.5-10,4.7c0,0.1,0.1,0.1,0.2,0c2.2-6.5,8.8-4.8,11.9-0.1c2.2,3.3,2.2,7.4,3.8,10.9c0.1,0.3,0.7,0.2,0.7-0.1
			C89.7,36.9,87,29.8,82.3,26.8L82.3,26.8z M72.4,33.9c0.6,6.6,2.2,13.9,7.7,18.2c1.7,1.3,4.4,2.3,6.3,1.1c2.3-1.4,2.5-4,2.7-6.4
			c0-0.1-0.1-0.1-0.2,0c-0.7,2.4-1.4,5-4.5,4.7c-2.3-0.2-4.1-1.8-5.7-3.3C74.9,44.2,73.2,39.2,72.4,33.9
			C72.5,33.8,72.4,33.8,72.4,33.9L72.4,33.9z M77.5,41.9c1.2,1,2.7,0.8,3.5-0.5c1-1.4,0.9-3.4,0.6-5c-0.2-1.3-1-2.5-2.1-3.2
			c-0.4-0.4-1-0.6-1.6-0.6c-0.1,0-0.2,0-0.4-0.1c-1-0.1-1.9,0.7-2.1,1.6c-0.6,2.5-0.4,5.4,1.5,7.1C77.1,41.6,77.3,41.7,77.5,41.9
			L77.5,41.9z M50.6,48.6c0.4,0.7,1.1,1.2,2,1.1c2.7-0.2,3.6-2.6,3.7-5c0.1-1.9-0.3-4.9-2.3-5.8c-1.1-0.5-2.6-0.4-3.2,0.8
			c-1,2.1-1.8,4.9-1.2,7.2C49.7,47.7,50.1,48.2,50.6,48.6L50.6,48.6z M38,37.5c0.2-2.5,1.5-5.2,3.1-7.1c0.9-1,1.9-1.7,3.1-2.3
			c1.2-0.6,2.6-0.5,3.8-1c0.5-0.2,0.9-1.1,0.2-1.5c-2.8-1.2-6.2,0.9-8.1,2.9c-2.5,2.5-3.1,5.7-2.4,9C37.7,37.7,38,37.6,38,37.5
			L38,37.5z M70.6,21.7c3.3-1.1,6.4-1.7,9.8-0.6c2.8,0.9,4.8,3.1,7.5,4c0.4,0.1,0.8-0.4,0.6-0.7c-3.4-5-14.4-10.4-18.1-2.9
			C70.4,21.6,70.5,21.7,70.6,21.7L70.6,21.7z"/>
	</g>
</g>
</svg>
