<?xml version="1.0" encoding="utf-8"?>
<!-- Generator: Adobe Illustrator 17.1.0, SVG Export Plug-In . SVG Version: 6.00 Build 0)  -->
<!DOCTYPE svg PUBLIC "-//W3C//DTD SVG 1.1//EN" "http://www.w3.org/Graphics/SVG/1.1/DTD/svg11.dtd">
<svg version="1.1" xmlns="http://www.w3.org/2000/svg" xmlns:xlink="http://www.w3.org/1999/xlink" x="0px" y="0px"
	 viewBox="0 0 143 134" enable-background="new 0 0 143 134" xml:space="preserve">
<g id="Colors">
	<linearGradient id="SVGID_1_" gradientUnits="userSpaceOnUse" x1="100.1689" y1="117.5479" x2="45.4703" y2="13.0911">
		<stop  offset="0" style="stop-color:#FAA61A"/>
		<stop  offset="0.6011" style="stop-color:#FFF450"/>
		<stop  offset="1" style="stop-color:#FFFFFF"/>
	</linearGradient>
	<circle fill="url(#SVGID_1_)" cx="73.7" cy="67.1" r="57"/>
	<linearGradient id="SVGID_2_" gradientUnits="userSpaceOnUse" x1="112.6639" y1="130.7345" x2="61.7676" y2="43.8787">
		<stop  offset="0" style="stop-color:#F26722"/>
		<stop  offset="1" style="stop-color:#FFF450"/>
		<stop  offset="1" style="stop-color:#FFFFFF"/>
	</linearGradient>
	<path fill="url(#SVGID_2_)" d="M111.3,25.2c5.4,7.1,9,14.7,10.8,23.4c2.5,12.5,1.8,26.3-4.5,37.7c-6.4,11.6-18.1,19.2-30.8,22.6
		c-12.6,3.3-26.3,2.9-38.5-1.5c-9.3-3.3-17-9-23.5-16.3c-0.6-0.7-1.3-1.5-1.9-2.2c3.4,5.8,6.8,11.6,11.2,16.8
		c4.2,5,9.4,9.2,15.3,12.1c6.1,3,12.9,4.6,19.6,5.1c6.9,0.5,13.9-0.1,20.6-1.7c6.3-1.6,12.4-4.2,17.8-7.9c5.2-3.6,9.7-8.3,13.2-13.5
		c3.7-5.5,6.4-11.5,8.3-17.8c1.8-6.1,2.9-12.6,2.8-19c-0.1-5.8-1.2-11.5-3.5-16.8c-2.1-5-5.2-9.4-8.5-13.6c-0.8-1-1.6-2-2.4-3
		L111.3,25.2z"/>
	<path fill="#FFFFFF" d="M67.7,31.5C59.1,33.3,49.1,44.5,51.4,54c1.3,5.6,7,6.9,11.8,4.5c4.4-2.2,7.1-6.4,8.3-11
		c1.4-5.4,1.1-11-2.5-15.4L67.7,31.5z"/>
	<path fill="#FFFFFF" d="M85.8,33.4c-7.6,5-9.3,18.3-2.1,24.7c3.2,2.8,9.1,3.8,12,0.1c3-3.7,1.1-10-0.2-14.1
		c-1.5-4.7-4-7.9-7.8-11.1L85.8,33.4z"/>
	<path fill="#333333" d="M58.5,74.3c13.4-0.6,36.2-0.5,43.7,13.3c4.1,7.4,0.3,15.1-8.2,16c-8.3,1-15.8-3.7-19.4-11
		c-3.8-7.5-6.1-12.8-13.2-17.8L58.5,74.3z"/>
</g>
<g id="Lineart">
	<g>
		<path fill-rule="evenodd" clip-rule="evenodd" d="M73.9,9.7C41.4,9.7,15.1,36,15.1,68.5s26.3,58.8,58.8,58.8
			c32.5,0,58.8-26.3,58.8-58.8S106.3,9.7,73.9,9.7L73.9,9.7z M101.4,49.9c0.8,6-1.6,9.5-5.4,13.8c-0.3,0.3,0,0.8,0.4,0.7
			c5.9-1.6,6.9-9.4,6.2-14.4c-0.2-2-0.8-8.3-3.8-8.2c0,0-0.1,0.1,0,0.1C100.9,43.1,101.2,47.7,101.4,49.9L101.4,49.9z M51.3,64.4
			c0.4,0,0.5-0.4,0.4-0.6c-0.6-1.3-1.4-2-2.3-3.1c-1.3-1.6-1.7-3.9-2-6c-0.5-3.8,0.3-8,1.9-11.5c0,0,0,0,0,0
			c-2.3,3.9-3.9,7.9-3.8,12.5C45.6,59,47.5,64.2,51.3,64.4L51.3,64.4z M93.6,38.6c-3.6-5.8-9.3-10.1-16.4-9.4c-0.1,0-0.2,0.2,0,0.2
			c2.8,0.6,5.3,1.8,7.5,3.3c-3.5,0.5-5.7,5.3-6.1,8.5c-0.5,4.2,1.4,15.6,6.1,16.9c0.2,0.1,0.4-0.1,0.4-0.4c-0.7-2.1-1.9-4.3-2.8-6.5
			c1,1,2.1,1.7,3.3,1.9c6,0.9,4.8-7.6,3.6-10.9c-0.8-2.3-2.2-5.2-4.7-6c-0.2-0.1-0.3-0.1-0.5-0.1c0.9-0.6,2-1,3.1-1.6
			c6,5.4,9.2,13.8,9.2,22.1c-0.7,1.3-1.8,2.2-3,2.9c-2.8,1.7-5.2,0-8-0.5c-0.2,0-0.4,0.2-0.3,0.4c1.8,3,5.5,3.7,8.6,2.7
			c2.9-0.9,4.6-3.1,4.8-5.8C99.8,50.3,96.6,43.4,93.6,38.6L93.6,38.6z M52.2,43.6c-2.2,3.8-4.1,9.6-1.7,13.8c1.6,2.8,4.5,6.2,7.9,4
			c0.2-0.1,0.2-0.4,0-0.5c-7.6-5.4-5-12.8-1.2-19.7c1.4-2.6,3.3-5.4,5.7-7.5c0.3-0.1,0.7-0.2,1-0.4c3.2-1.7,6-0.1,7.2,2.8
			c-0.2-0.2-0.4-0.4-0.8-0.5c-1-0.4-2.1-0.2-3,0.3c-2.2,1.1-4.3,3.5-5,5.9c-0.4,1.3-0.6,2.9-0.3,4.3c-0.9,2.7,0.8,5.5,3.9,4.8
			c1.4-0.3,2.6-1.1,3.6-2.1c0.3-0.3,0.6-0.7,0.8-1.1c-0.6,2.1-1.5,4.2-2.7,6.1c-2.2,3.6-8.2,7.2-11.2,2.4c-0.1-0.1-0.4-0.1-0.3,0.1
			c0.4,3,3.9,5.3,6.9,4.3c5-1.6,7.5-5.9,9.3-10.6c2.1-5.4,2.3-10.4-0.4-15.6c-1-2-2.4-3.3-3.9-3.8c1.1-0.4,2.3-0.6,3.6-0.5
			c0.1,0,0.2-0.2,0.1-0.3c-3-1.6-6.6,0.8-9.4,2C58,33.6,54.5,39.7,52.2,43.6L52.2,43.6z M77.2,21.9c3.6,1.1,7.3,0.7,10.8,2.2
			c2.9,1.3,4.8,3.7,7.5,5.2c0.3,0.2,0.7,0,0.8-0.3c0.7-3.7-3.9-6.2-6.7-7.5c-3.7-1.8-9.1-3.2-12.5-0.2
			C76.8,21.5,76.9,21.9,77.2,21.9L77.2,21.9z M46.9,32.5c2.4-3.7,6.2-7.5,10.4-9.1c1.4-0.6,7.5-0.1,6.1-3c-0.2-0.5-0.8-0.7-1.3-0.7
			c-7.9-0.3-13.5,5.7-15.4,12.8C46.6,32.6,46.8,32.7,46.9,32.5L46.9,32.5z M107.6,76.2c-0.1,0-0.1,0.1,0,0.1
			c3.6,1.8,4.8,5.1,5.6,8.9c0.4,1.9,0.5,3.8,0.2,5.7c-0.2,1.5-1,2.7-0.5,4.1c0.1,0.2,0.3,0.4,0.5,0.4
			C120.4,94.8,115.3,75.9,107.6,76.2L107.6,76.2z M38.4,77.9c-0.2-1.9,0-5.1,1.9-6.3c0.1-0.1,0.1-0.3-0.1-0.3
			c-1.4,0.4-2,0.5-2.9,1.8c-1,1.4-1.7,3.1-1.9,4.8c-0.4,3.2,1.3,7.5,5,7.7c1.4,0.1,1.8-1.6,1.1-2.5C40,81.3,38.7,80.4,38.4,77.9
			L38.4,77.9z M58.1,78.3c-2.2-0.5-3.5,0.5-5,1.9c-0.2,0.2,0.1,0.5,0.3,0.4c1.2-0.9,3.6-1.2,4.9-0.1c1,0.8,1.8,1.9,2.8,2.6
			c0.8,0.6,1.6-0.4,1.5-1.2C62.3,79.9,59.9,78.7,58.1,78.3L58.1,78.3z M89,76.9c-7.4-2.6-15.5-2.9-23.2-3.5
			c-6.1-0.5-15.8-0.5-20,4.9c-0.1,0.1,0.1,0.3,0.2,0.2c4-2.4,9.4-2.8,14.3-2.7c0.9,0.2,1.8,0.6,2.7,0.9c4,1.7,5.3,6,6.7,9.7
			c1.8,4.9,3.8,10.7,8.3,13.9c5.1,3.6,11.9,5.3,18.1,5c3-0.2,6.5-1.9,8.1-4.5c3.2-3.1,2.6-8.3,0.3-12.5
			C101.3,82.5,95.1,79.1,89,76.9L89,76.9z M86.1,100.6c-7.3-2.4-10.6-8.7-13.5-15.2c-1.6-3.7-4.5-7.1-8.1-9.2
			c5.7,0.4,11.4,0.8,17,1.8c10.3,1.8,24.1,8.4,20.9,19.6c-1.6,1.9-3.1,3.5-5.7,4.3C93.4,102.9,89.3,101.6,86.1,100.6L86.1,100.6z
			 M74.1,121.3c-30,0-54.4-24.5-54.4-54.7c0-30.2,24.3-54.7,54.4-54.7c30,0,54.4,24.5,54.4,54.7C128.5,96.8,104.1,121.3,74.1,121.3
			L74.1,121.3z"/>
	</g>
</g>
</svg>
