<?xml version="1.0" encoding="utf-8"?>
<!-- Generator: Adobe Illustrator 17.1.0, SVG Export Plug-In . SVG Version: 6.00 Build 0)  -->
<!DOCTYPE svg PUBLIC "-//W3C//DTD SVG 1.1//EN" "http://www.w3.org/Graphics/SVG/1.1/DTD/svg11.dtd">
<svg version="1.1" xmlns="http://www.w3.org/2000/svg" xmlns:xlink="http://www.w3.org/1999/xlink" x="0px" y="0px"
	 viewBox="0 0 143 134" enable-background="new 0 0 143 134" xml:space="preserve">
<g id="Colors">
	<linearGradient id="SVGID_1_" gradientUnits="userSpaceOnUse" x1="99.9449" y1="117.4105" x2="45.2464" y2="12.9538">
		<stop  offset="0" style="stop-color:#FAA61A"/>
		<stop  offset="0.6011" style="stop-color:#FFF450"/>
		<stop  offset="1" style="stop-color:#FFFFFF"/>
	</linearGradient>
	<circle fill="url(#SVGID_1_)" cx="73.5" cy="66.9" r="57"/>
	<linearGradient id="SVGID_2_" gradientUnits="userSpaceOnUse" x1="112.439" y1="130.596" x2="61.5427" y2="43.7401">
		<stop  offset="0" style="stop-color:#F26722"/>
		<stop  offset="1" style="stop-color:#FFF450"/>
		<stop  offset="1" style="stop-color:#FFFFFF"/>
	</linearGradient>
	<path fill="url(#SVGID_2_)" d="M111.1,25.1c5.4,7.1,9,14.7,10.8,23.4c2.5,12.5,1.8,26.3-4.5,37.7c-6.4,11.6-18.1,19.2-30.8,22.6
		C74,112,60.2,111.6,48,107.2c-9.3-3.3-17-9-23.5-16.3c-0.6-0.7-1.3-1.5-1.9-2.2c3.4,5.8,6.8,11.6,11.2,16.8
		c4.2,5,9.4,9.2,15.3,12.1c6.1,3,12.9,4.6,19.6,5.1c6.9,0.5,13.9-0.1,20.6-1.7c6.3-1.6,12.4-4.2,17.8-7.9c5.2-3.6,9.7-8.3,13.2-13.5
		c3.7-5.5,6.4-11.5,8.3-17.8c1.8-6.1,2.9-12.6,2.8-19c-0.1-5.8-1.2-11.5-3.5-16.8c-2.1-5-5.2-9.4-8.5-13.6c-0.8-1-1.6-2-2.4-3
		L111.1,25.1z"/>
	<path fill="#FFFFFF" d="M69.6,17.9C58.2,13.6,52,29.1,52.1,38.5c0.1,5.8,4.2,10,10.2,8.8c5.4-1.1,7.6-5.5,9-10.3
		c1.8-5.9,2.7-11.7,0.2-17.5L69.6,17.9z"/>
	<path fill="#FFFFFF" d="M88,19.5C79,24,82.8,39.2,89.6,44.3c3.9,2.9,10.6,3.7,13.6-1c2.7-4.3,0.2-10.4-1.6-14.6
		c-2.5-5.5-5.7-8.1-11.7-9.2H88z"/>
	<path fill="#333333" d="M64.2,55C50.8,61.1,38.3,69.9,37.3,86c-1,16.1,11.4,27.2,26.7,28.9c14.3,1.5,30.4-3.2,41.3-12.7
		c10.4-9.1,15.5-24.4,7.1-36.6c-8.9-12.9-25.5-14-39.6-12.2c-1.8,0.2-3.6,0.5-5.4,0.8L64.2,55z"/>
	<path fill="#FFFFFF" d="M43.6,69c-0.2,0.2-0.2,0.7-0.3,0.3C53.7,55.2,71.1,50.6,88,52.5c4.2,0.5,11.3,1.9,14.6,4.4
		c-7.9-0.1-18,3.4-25.7,3.8c-7.3,0.4-13.7,2.9-20.6,5C52.8,66.9,43.6,69,43.6,69z"/>
	<path fill="#FFFFFF" d="M47.1,108.3c4.3,4,19.1,0.7,25.1,0c8.4-1,16.8-2.8,24.5-6.3c4.3-2,9.1-3.4,13.1-6c-2.6,3.5-3.9,5.6-7.2,8.3
		c-3.1,2.5-9.1,5.2-12.9,6.7c-8.3,3.2-13.9,4.8-24.7,3.6c-5.4-0.6-10-3.5-12.7-2.8L47.1,108.3z"/>
</g>
<g id="Lineart">
	<g>
		<path fill-rule="evenodd" clip-rule="evenodd" d="M73.5,8.4c-32.5,0-58.8,26.3-58.8,58.8c0,32.5,26.3,58.8,58.8,58.8
			c32.5,0,58.8-26.3,58.8-58.8C132.3,34.7,106,8.4,73.5,8.4L73.5,8.4z M91.1,24.1c-0.6-0.2-1.2-0.3-2-0.1c-2.7,0.7-3.3,3.8-3,6.2
			c0.4,2.8,1.9,5.7,4.3,7.2c2.2,1.4,5.5,0.3,6.4-2.2c0.8-2.3-0.1-4.8-1.1-7C94.9,26.2,93.3,24.4,91.1,24.1L91.1,24.1z M70.8,28.3
			c-0.3-1.3-0.9-2.5-1.9-3.4c-1.9-1.5-4.4-1.4-5.9,0.5c-2.4,2.9-4,9.2-0.5,11.8c1.7,1.3,3.9,0.7,5.4-0.5c1.4-1.2,2.1-2.9,2.4-4.6
			c0.1-0.1,0.1-0.2,0.1-0.3c0.2-0.3,0.1-0.4,0-0.2c0.3-0.4,0.5-0.7,0.5-1.2C70.9,29.6,71,28.9,70.8,28.3L70.8,28.3z M106.6,29.5
			c0.6,1.6,0.6,4.1,1.8,5.3c0.2,0.2,0.7,0.2,0.8-0.1c0.8-1.8-0.6-4.1-1.4-5.7c-1.1-2.3-2.5-4.3-4.8-5.4c-0.1,0-0.1,0-0.1,0.1
			C104.7,25.2,105.8,27.4,106.6,29.5L106.6,29.5z M90.3,46.4c3.5,2.6,9.6,2.5,12.4-0.9c1.6-0.5,2.1-2.6,2.2-4.1
			c0.1-2.3-0.8-4.3-1.3-6.5c0,0-0.1,0-0.1,0c0,2,0,4-0.1,6.1c0,0.3,0,0.5-0.1,0.8c-4.7,4.3-9.5,5.2-14.4,0.4
			c-4.2-4.1-5.4-9.9-5.9-15.6c0,0-0.1,0-0.1,0C82.5,33.8,84,41.7,90.3,46.4L90.3,46.4z M83.3,25.1c2.7-4.4,6.1-5.7,10.9-3.6
			c4.7,2.1,5.9,6.6,8.8,10.3c0.1,0.2,0.4,0,0.4-0.2c-0.4-5.9-5.2-11.1-10.6-13c-4.8-1.7-9.9,1.2-9.6,6.5
			C83.1,25.1,83.2,25.2,83.3,25.1L83.3,25.1z M47.6,29.8c0.7-1,0.7-2.1,0.9-3.3c0.4-2,1.7-3.9,2.9-5.5c1.7-2.1,4.6-3.4,6-5.7
			c0.1-0.1,0-0.2-0.1-0.2c-2.9-0.1-6.2,3.3-7.9,5.4c-1.6,2.1-4.5,6.5-2.7,9.2C47,30.1,47.4,30.1,47.6,29.8L47.6,29.8z M53.5,29.9
			C51.4,35.8,49,45.2,57,48c7.4,2.6,12.8-3.2,14.3-9.9c0-0.2-0.2-0.4-0.4-0.2c-3.3,3.8-5.5,8.5-11.2,8.5
			C51.5,46.3,52.6,35.2,53.5,29.9C53.6,29.9,53.5,29.9,53.5,29.9L53.5,29.9z M58.4,20.7c3.9-4.3,10.9-4.3,13,1.5
			c1.6,4.6,0.9,9,0.4,13.7c0,0.2,0.3,0.3,0.3,0.1c2.6-4.9,4-13.4-0.1-18c-2-2.3-4.4-3-7.4-2.6C61.6,15.8,60,18.3,58.4,20.7
			C58.3,20.6,58.4,20.7,58.4,20.7L58.4,20.7z M116.9,59.6C116.9,59.6,116.8,59.6,116.9,59.6c3.3,4.6,4.8,9.2,5,14.9
			c0.2,5.6-1.9,10.1-3.4,15.3c-0.1,0.5,0.5,0.8,0.8,0.5C126.3,83.7,126.2,64.4,116.9,59.6L116.9,59.6z M41.7,65
			c0.1-0.1-0.1-0.2-0.1-0.1c-5.6,5.8-7.6,13.6-8,21.5c-0.2,5.5,1.1,16.6,7.1,18.8c0.2,0.1,0.4-0.2,0.3-0.3
			C32.8,92.3,33.8,77.6,41.7,65L41.7,65z M28.9,70.5c1.1-5.3,5.2-9,7.8-13.6c0.1-0.1-0.1-0.3-0.2-0.2c-4.6,2.7-8.2,8.2-10,13.1
			c-1.5,4.2-2.8,11.5,1.8,14.3c0.4,0.3,0.9-0.1,0.9-0.5C29.4,79.1,27.9,75.1,28.9,70.5L28.9,70.5z M69.2,110.3
			c8.9-1.3,17-4,25.3-7.6c0,0,0,0,0,0c-14.2,5.4-30.8,6.9-45.8,5.7c-0.4-0.3-0.8-0.6-1.2-1c-6.4-5.3-8.9-13.8-8.3-21.8
			c1.5-18.2,17.6-27.9,33.5-32.5c0,0,0,0,0,0c-17.1,0.8-35.1,14.9-36.5,32.5c-1.6,19.8,17.6,33.3,35.9,29.9c0.1,0,0.1-0.2,0-0.2
			c-6.8-1-13.4-1.6-19.4-4.5C58,111.8,64,111,69.2,110.3L69.2,110.3z M108.3,59.4c-3.9-3-8.4-5.3-13-6.7c-5.9-1.8-11.9-0.7-17.8-0.1
			c-0.1,0-0.1,0.1,0,0.1c7.5-0.1,14.4,0.6,21,3.5c-0.7,0.1-1.3,0.2-2,0.3c-5.3,0.8-10.6,1.9-15.9,2.8c-9.9,1.8-20.9,3.3-29.8,8.1
			c-0.1,0.1,0,0.2,0.1,0.2c8.1-2.2,16.3-3.9,24.5-5.6c8.8-1.8,19.4-4.5,28.4-2.8c0.2,0,0.3,0,0.4,0c3.6,2.3,6.6,5.4,8.9,9
			c1.9,2.9,2.6,6.2,3,9.4c0.7,18.4-19.2,30.9-35.4,36.7c-0.1,0,0,0.1,0,0.1c11.9-2.9,22.4-8,30.5-17.5c3.5-4.2,7-11.1,7.2-17.5
			C120.3,72,113.7,63.5,108.3,59.4L108.3,59.4z M73.8,120c-30,0-54.4-24.5-54.4-54.7c0-30.2,24.3-54.7,54.4-54.7
			c30,0,54.4,24.5,54.4,54.7C128.2,95.5,103.8,120,73.8,120L73.8,120z"/>
	</g>
</g>
</svg>
