<?xml version="1.0" encoding="utf-8"?>
<!-- Generator: Adobe Illustrator 17.1.0, SVG Export Plug-In . SVG Version: 6.00 Build 0)  -->
<!DOCTYPE svg PUBLIC "-//W3C//DTD SVG 1.1//EN" "http://www.w3.org/Graphics/SVG/1.1/DTD/svg11.dtd">
<svg version="1.1" xmlns="http://www.w3.org/2000/svg" xmlns:xlink="http://www.w3.org/1999/xlink" x="0px" y="0px"
	 viewBox="0 0 143 134" enable-background="new 0 0 143 134" xml:space="preserve">
<g id="Colors">
	<linearGradient id="SVGID_1_" gradientUnits="userSpaceOnUse" x1="97.9448" y1="116.4103" x2="43.2462" y2="11.9536">
		<stop  offset="0" style="stop-color:#FAA61A"/>
		<stop  offset="0.6011" style="stop-color:#FFF450"/>
		<stop  offset="1" style="stop-color:#FFFFFF"/>
	</linearGradient>
	<circle fill="url(#SVGID_1_)" cx="71.5" cy="65.9" r="57"/>
	<linearGradient id="SVGID_2_" gradientUnits="userSpaceOnUse" x1="110.4392" y1="129.5964" x2="59.5429" y2="42.7406">
		<stop  offset="0" style="stop-color:#F26722"/>
		<stop  offset="1" style="stop-color:#FFF450"/>
		<stop  offset="1" style="stop-color:#FFFFFF"/>
	</linearGradient>
	<path fill="url(#SVGID_2_)" d="M109.1,24.1c5.4,7.1,9,14.7,10.8,23.4c2.5,12.5,1.8,26.3-4.5,37.7c-6.4,11.6-18.1,19.2-30.8,22.6
		C72,111,58.2,110.6,46,106.2c-9.3-3.3-17-9-23.5-16.3c-0.6-0.7-1.3-1.5-1.9-2.2c3.4,5.8,6.8,11.6,11.2,16.8
		c4.2,5,9.4,9.2,15.3,12.1c6.1,3,12.9,4.6,19.6,5.1c6.9,0.5,13.9-0.1,20.6-1.7c6.3-1.6,12.4-4.2,17.8-7.9c5.2-3.6,9.7-8.3,13.2-13.5
		c3.7-5.5,6.4-11.5,8.3-17.8c1.8-6.1,2.9-12.6,2.8-19c-0.1-5.8-1.2-11.5-3.5-16.8c-2.1-5-5.2-9.4-8.5-13.6c-0.8-1-1.6-2-2.4-3
		L109.1,24.1z"/>
	<path fill="#FFFFFF" d="M60,32.6c-4.7,8-7.5,23.2,3.8,27.7c11.7,4.6,15.3-13.6,12.7-21.3c-1.8-5.4-9.3-5-13.9-5.7L60,32.6z"/>
	<path fill="#FFFFFF" d="M81.6,34.7c0.5,6.8,1.2,16.5,8.7,19.4c8.9,3.4,11.5-6.8,8.9-13.2c-1.5-3.7-3.8-7-5.7-10.5
		c-2.5,1.7-6.6,3.1-9.6,3.4L81.6,34.7z"/>
	<path fill="#FFFFFF" d="M40.3,81.4c-3.5,5-6.9,11.1-2.7,16.7c3.7,5,10.8,6.2,16.2,3.5c5-2.5,8.3-7.4,12.7-10.7
		c4.9-3.6,11-5.9,16.9-7.1c6.9-1.4,13.6-0.1,20.5,0.2c4.9,0.2,13.1-0.5,13.5-7c0.5-6.7-1.9-8.3-7.2-8.5c-6.9-0.3-19.5,0.8-26.3,1.5
		c-6.2,0.6-12.4,1.5-18.6,2.9c-6.3,1.4-12.3,2.7-18.3,5c-1.3,0.5-2.6,1-3.8,1.4L40.3,81.4z"/>
</g>
<g id="Lineart">
	<g>
		<path fill-rule="evenodd" clip-rule="evenodd" d="M71.2,7.4c-32.5,0-58.8,26.3-58.8,58.8c0,32.5,26.3,58.8,58.8,58.8
			c32.5,0,58.8-26.3,58.8-58.8C130,33.7,103.6,7.4,71.2,7.4L71.2,7.4z M122,64.3c-1.5-3.1-4.9-5-8.3-5.1c-0.1,0-0.1,0.1,0,0.1
			c3.4,1.3,5.5,3.9,6.8,7.2c1,2.5,0.7,5.3,1.6,7.8c0.1,0.2,0.3,0.2,0.4,0C124.6,71.6,123.4,67.1,122,64.3L122,64.3z M29.5,76
			c-1.1,1.2-1.9,2.8-2.5,4.2c-1.2,2.6-2.8,6.6-0.6,9c1.1,1.2,2.9-0.1,2.6-1.5c-0.5-2.5,0-4.6,1-7c0.9-2.4,1.9-5.4,3.7-7.2
			c0.1-0.1,0-0.1-0.1-0.1C32,74.2,30.7,74.6,29.5,76L29.5,76z M108.7,67.4c-9.6,0.2-19.1,2.1-28.7,2.7c-0.1,0-0.1,0.1,0,0.1
			c6.7,0.3,13.6,0.6,20.3,0c5.8-0.6,14.3-2.8,16.8,4.4c-4.2-0.7-8.4,0.2-12.6,0.7C99.2,75.8,94,75.6,88.8,77c-0.1,0,0,0.1,0,0.1
			c4.8-0.8,9.6-0.3,14.4-0.6c4.7-0.3,9.3-0.9,13.9,0.2c0.3,0.1,0.6,0,0.8-0.1c-0.1,0.9-0.4,1.8-0.9,2.7c-2.1,3.9-6.3,4.3-10.2,3.6
			c-5.3-0.9-10.2-1.9-15.6-1.5C81,82.4,72.6,86.1,64.7,92.4c0,0,0,0,0,0c6.7-4.8,14.9-7.6,23.1-8.5c7.4-0.9,14.1,0.8,21.4,1.7
			c7,0.8,12.2-8.2,8.7-13.8C117.3,68.4,112.4,67.3,108.7,67.4L108.7,67.4z M117.6,74.6c0-0.1,0.1-0.2,0.1-0.3c0,0.1,0.1,0.2,0.1,0.3
			C117.8,74.6,117.7,74.6,117.6,74.6C117.7,74.6,117.7,74.6,117.6,74.6L117.6,74.6z M60.8,96.1c-6.2,3.4-12,8.8-19.5,4.9
			c-1.8-0.9-2.9-2.4-3.4-4.1c0.1-0.1,0.1-0.1,0.2-0.2c3.3-5.3,12.3-8.2,17.7-10.6c6.9-3,13.5-5.5,20.9-7.1c0.1,0,0-0.1,0-0.1
			c-8,2-15.7,3-23.4,6.3c-4.9,2.1-11.6,4-15.8,7.7c0.1-1.9,0.5-3.9,1-5.5c2-6.5,7.5-9.4,13.8-10.8c6.6-1.4,12.9-4.1,19.5-5.4
			c0,0,0,0,0,0c-5.3,0.7-10.3,2-15.5,3.2c-3.9,0.9-8.2,1-11.9,2.8c-5.4,2.6-9.4,7.7-9.9,13.8c-1.5,16,19.4,16.2,26.7,5.4
			C61.4,96.3,61.1,96,60.8,96.1L60.8,96.1z M89.2,47.6c0.1,0.2,0.2,0.3,0.4,0.5c3.1,2.6,5.2-1,5.2-3.9c0-2.6-0.8-5.3-2.9-6.9
			c-0.8-0.5-1.5-0.7-2.1-0.6c-2-0.2-3.6,2.2-3.6,4.2c0,1.9,0.9,4.3,2.3,5.9C88.7,47,88.9,47.3,89.2,47.6L89.2,47.6z M62.2,47.3
			c-0.1,0.9,0.2,1.9,0.7,2.7c0.5,1,1.4,1.7,2.9,1.6c1.4-0.1,2.2-1,2.7-2.2c0.8-1.4,1.1-3.2,1.2-4.5c0.1-1.5-0.1-3.7-1.1-4.9
			c-0.2-0.3-0.5-0.6-0.8-0.9c-0.8-0.6-2-0.7-3-0.2c-0.6,0.3-0.8,0.8-0.9,1.2c-1.3,1.4-1.7,3.9-1.7,5.8
			C62.2,46.4,62.2,46.8,62.2,47.3L62.2,47.3z M58.4,32.5c-2.4,1.6-3.2,6.7-3.7,8.9c-1.4,5.7,0.7,14.4,5.8,17.8
			c15,9.9,18.7-12.4,16.4-22.9c1.1,0,2.2-0.1,3.4-0.2c-1,3.4,0.9,9.1,2.2,12.1c2.1,4.5,5.8,7.7,11,7.7c3.5,0,7.3-3,7.6-6.5
			c0.3-3.3-0.8-6.1-1.8-9.1c-1.1-3.2-3.1-5.9-4.2-9c1.5-1,2.9-2.3,3.9-3.7c0.2-0.3-0.1-0.7-0.4-0.6c-3.7,0.9-6.8,3.3-10.4,4.5
			c-3.8,1.3-7.9,1.7-11.9,1.9c-8,0.3-16.7-1.6-24-4.9c-0.1,0-0.1,0,0,0.1C54.2,30.2,56.2,31.5,58.4,32.5L58.4,32.5z M92.8,32.6
			c0.1,0.1,0.1,0.1,0.2,0.2c2.8,2.1,5.2,7,6.2,10.2c2,6.3-2,14-9.3,10.7c-5.6-2.5-5.5-12.6-7.1-17.8c0-0.1-0.1-0.1-0.1-0.2
			C86.2,35.2,89.8,34.2,92.8,32.6L92.8,32.6z M74.3,36.3c1,4.9,2.5,9.7,1.5,14.7c-0.5,2.7-1.6,5.1-3.5,7.1
			c-3.5,3.7-9.9,1.6-12.4-2.1c-2.6-3.8-2-9.9-1-14.2c0.4-1.8,1.1-7,2.2-7.7c0.1-0.1,0.2-0.2,0.3-0.4C65.5,35.4,69.7,36.2,74.3,36.3
			L74.3,36.3z M71.5,119c-30,0-54.4-24.5-54.4-54.7c0-30.2,24.3-54.7,54.4-54.7c30,0,54.4,24.5,54.4,54.7
			C125.8,94.5,101.5,119,71.5,119L71.5,119z"/>
	</g>
</g>
</svg>
