<?xml version="1.0" encoding="utf-8"?>
<!-- Generator: Adobe Illustrator 17.1.0, SVG Export Plug-In . SVG Version: 6.00 Build 0)  -->
<!DOCTYPE svg PUBLIC "-//W3C//DTD SVG 1.1//EN" "http://www.w3.org/Graphics/SVG/1.1/DTD/svg11.dtd">
<svg version="1.1" xmlns="http://www.w3.org/2000/svg" xmlns:xlink="http://www.w3.org/1999/xlink" x="0px" y="0px"
	 viewBox="0 0 143 134" enable-background="new 0 0 143 134" xml:space="preserve">
<g id="Colors">
	<linearGradient id="SVGID_1_" gradientUnits="userSpaceOnUse" x1="98.169" y1="116.5481" x2="43.47" y2="12.0905">
		<stop  offset="0" style="stop-color:#FAA61A"/>
		<stop  offset="0.6011" style="stop-color:#FFF450"/>
		<stop  offset="1" style="stop-color:#FFFFFF"/>
	</linearGradient>
	<circle fill="url(#SVGID_1_)" cx="71.7" cy="66.1" r="57"/>
	<linearGradient id="SVGID_2_" gradientUnits="userSpaceOnUse" x1="110.6638" y1="129.7341" x2="59.7675" y2="42.8783">
		<stop  offset="0" style="stop-color:#F26722"/>
		<stop  offset="1" style="stop-color:#FFF450"/>
		<stop  offset="1" style="stop-color:#FFFFFF"/>
	</linearGradient>
	<path fill="url(#SVGID_2_)" d="M109.3,24.2c5.4,7.1,9,14.7,10.8,23.4c2.5,12.5,1.8,26.3-4.5,37.7c-6.4,11.6-18.1,19.2-30.8,22.6
		c-12.6,3.3-26.3,2.9-38.5-1.5c-9.3-3.3-17-9-23.5-16.3c-0.6-0.7-1.3-1.5-1.9-2.2c3.4,5.8,6.8,11.6,11.2,16.8
		c4.2,5,9.4,9.2,15.3,12.1c6.1,3,12.9,4.6,19.6,5.1c6.9,0.5,13.9-0.1,20.6-1.7c6.3-1.6,12.4-4.2,17.8-7.9c5.2-3.6,9.7-8.3,13.2-13.5
		c3.7-5.5,6.4-11.5,8.3-17.8c1.8-6.1,2.9-12.6,2.8-19c-0.1-5.8-1.2-11.5-3.5-16.8c-2.1-5-5.2-9.4-8.5-13.6c-0.8-1-1.6-2-2.4-3
		L109.3,24.2z"/>
	<path fill="#333333" d="M42.2,74.3c2.1,14.1,6.7,28.2,23.5,28.2c13,0,32.7-3.7,38.3-16.9c3.2-7.6,3.5-16.5,4.6-24.6
		C97,73.4,75.5,78.4,59,77.5c-4.9-0.3-9.4-1.4-14.2-2.2L42.2,74.3z"/>
	<path fill="#F15F61" d="M65.1,77.5c-7.1,10.4-12.7,27.4,1.1,35.4c6,3.5,14.5,3.5,20.6,0.3c6.7-3.5,7.6-10.1,6.7-16.9
		C92.3,87.8,91,80,91.6,71.4c-3.7,1.9-7.9,2.4-11.8,3.5c-3.9,1.1-8.1,2.9-12.2,2.6H65.1z"/>
	<path fill="#FFFFFF" d="M50.9,32.7c-6.1,4.3-9.3,18.7-2.4,23.9c9.7,7.2,13.6-9.9,12.9-16.7c-0.6-6-3.6-9-9.3-8.5L50.9,32.7z"/>
	<path fill="#FFFFFF" d="M77.1,27.9c-8.8,4.7-7.4,18.6,0.5,24c11.2,7.6,14.9-7.6,12.2-15.7c-1.7-5.1-5-8.3-10.4-8.7L77.1,27.9z"/>
</g>
<g id="Lineart">
	<g>
		<path fill-rule="evenodd" clip-rule="evenodd" d="M71.9,8.4c-32.5,0-58.8,26.3-58.8,58.8c0,32.5,26.3,58.8,58.8,58.8
			c32.5,0,58.8-26.3,58.8-58.8C130.6,34.7,104.3,8.4,71.9,8.4L71.9,8.4z M77,44.4c0.1,0.1,0.2,0.3,0.3,0.4c0.1,0.1,0.2,0.2,0.3,0.3
			c1.2,1.2,3.4,1.4,4.7,0.2c1-0.9,1.2-2.4,1.1-3.7c-0.3-2.7-1.7-6-4.4-7c-0.6-0.2-1.1-0.2-1.6,0c-0.6,0.1-1.2,0.4-1.4,1
			c-0.1,0.1-0.1,0.3-0.2,0.5c0,0.1-0.1,0.2-0.1,0.3c-0.1,0.3-0.2,0.7-0.2,1C75.1,39.7,75.7,42.6,77,44.4L77,44.4z M55.6,50
			c1.6-0.6,2.4-2.5,2.7-4.5c0.3-0.9,0.5-2,0.5-3.1c0-1.6-0.9-4.3-2.7-4.6c-2.9-0.6-4.7,3-5.3,5.4c-0.5,2-0.8,5.7,1.4,6.9
			C53.5,50.9,54.7,50.7,55.6,50L55.6,50z M70.8,21.6c1,0.1,1.9-0.5,2.9-0.6c1.3-0.1,2.7,0.3,4,0.6c3.3,0.6,5.5,2.8,8.4,4
			c0.3,0.1,0.6-0.1,0.6-0.4c-1.1-4-5.9-5.9-9.6-6.4c-1.7-0.3-7.6-0.7-6.8,2.5C70.4,21.5,70.6,21.6,70.8,21.6L70.8,21.6z M43.6,27.8
			c1.2-1.1,2.7-2,4.2-2.6c1.5-0.6,2.8-0.1,4.3-0.2c0.9-0.1,1.6-1.2,0.8-2c-2.4-2.2-6.6-0.3-8.7,1.4c-3,2.5-5.4,5.8-6.2,9.6
			c0,0.2,0.2,0.3,0.3,0.1C39.6,31.7,41.6,29.6,43.6,27.8L43.6,27.8z M75.7,50.1C75.7,50.1,75.6,50.1,75.7,50.1
			c2.5,4.1,8.1,7.1,12.3,3.3c4-3.6,4.9-9.9,2.4-14.6c-0.2-0.3-0.6-0.2-0.6,0.2c0.1,3.9,0.4,7.5-1.7,11C85.1,55.1,79.4,53,75.7,50.1
			L75.7,50.1z M74,47.4c-1.8-3.8-2.4-9.7-1.3-13.9c1.7-6.5,10.8-6.3,14.5-1.9c0.1,0.1,0.2,0,0.1-0.1c-2.7-6.1-10.1-6.1-14.7-2.1
			C66.8,34.3,71.4,42.4,74,47.4C74,47.4,74.1,47.4,74,47.4L74,47.4z M58.6,53.4c-4.2,7.2-12.9,4.1-13.8-3.7c0,0,0,0,0,0
			c-0.1,6.5,5.7,12.1,11.9,8.1c4.9-3.2,7.2-13.7,4.7-18.7c-0.1-0.1-0.3-0.1-0.3,0.1C61.2,44.4,61.3,48.8,58.6,53.4L58.6,53.4z
			 M44.5,46c0,0.1,0.2,0.1,0.2,0c0.8-3.4,1.5-7.2,3.4-10.1c2.6-4,7.9-4.4,11.6-1.7c0,0,0.1,0,0.1-0.1c-2.4-4.5-8-4.8-11.7-1.9
			C44.4,35,43.8,41.9,44.5,46L44.5,46z M30.7,66.2c-2.5,2.7-3.7,8.2-1.2,11.2c0.7,0.8,2.3,0.4,2.5-0.7c0.4-2.4-0.3-4.7,0.4-7.1
			c0.8-2.8,3-4.3,5.4-5.5c0,0,0.1-0.1,0-0.1C36.2,61.5,32,64.8,30.7,66.2L30.7,66.2z M110.4,50c-1.9-0.3-7.3,0-6.3,3.2
			c0,0.1,0.1,0.1,0.2,0.1c1.3-1.3,4.4-0.9,6-0.5c3.2,0.9,3.7,4.4,4.5,7.1c0.5,1.5,2.4,1.1,2.6-0.4C117.9,55.4,114.4,50.7,110.4,50
			L110.4,50z M109.1,59.6c-0.3-0.1-0.6,0-0.8,0.1C97.4,68.7,85.9,73.3,72,75.1c-9.8,1.3-23.7,2.4-32.5-2.8c-0.1-0.1-0.3,0.1-0.2,0.2
			c0.6,0.7,1.2,1.4,2,2c-0.1,0.1-0.1,0.3-0.2,0.4c-1.6,7.2,6.7,28.4,16.1,27.8c1.5,6.1,5.8,10.7,12.2,12.9c8.4,3,19.6,0,23.6-8.4
			c1.5-3.3,1.7-6.7,1.4-10.1c13.9-5.8,13.7-24.2,16.1-36.5C110.6,59.7,109.6,59.3,109.1,59.6L109.1,59.6z M47.6,87.1
			c-1.3-3.4-3.4-7.4-4-11c5.1,2.8,12.3,3.3,18.8,3c-4.4,4.8-5.9,13-5.7,19c0,0.6,0.1,1.2,0.1,1.7C51.9,96.7,49.8,92.6,47.6,87.1
			L47.6,87.1z M91.6,106.5c-2.6,5.6-8.8,8-14.6,8.4c-10.5,0.7-16.2-7.4-17.1-16.8C59.2,90.8,61.7,85,65,78.9c2.6-0.2,5-0.4,7.1-0.7
			c0.6-0.1,1.1-0.2,1.7-0.2c-1.2,2.5-1.3,5.8-1.6,8.4c-0.5,5,0,11.2,3.2,15.2c0.1,0.1,0.3,0,0.3-0.1c-0.4-4-1.1-7.9-1-12
			c0.2-4.5,1.6-8.1,2.9-12.1c4.1-0.9,8.1-2.2,12-3.8c-1.9,5.9-0.4,12.9,1.2,18.6C92.1,96.9,94,101.5,91.6,106.5L91.6,106.5z
			 M93.8,94.1c-1.3-7.2-4-14.6-0.7-21.7c0.1-0.2,0.1-0.3,0.1-0.5c5.2-2.3,10.9-5.2,14.8-9.5C105.2,74.1,103.9,86.6,93.8,94.1
			L93.8,94.1z M72.1,120c-30,0-54.4-24.5-54.4-54.7c0-30.2,24.3-54.7,54.4-54.7c30,0,54.4,24.5,54.4,54.7
			C126.5,95.5,102.1,120,72.1,120L72.1,120z"/>
	</g>
</g>
</svg>
