<?xml version="1.0" encoding="utf-8"?>
<!-- Generator: Adobe Illustrator 17.1.0, SVG Export Plug-In . SVG Version: 6.00 Build 0)  -->
<!DOCTYPE svg PUBLIC "-//W3C//DTD SVG 1.1//EN" "http://www.w3.org/Graphics/SVG/1.1/DTD/svg11.dtd">
<svg version="1.1" xmlns="http://www.w3.org/2000/svg" xmlns:xlink="http://www.w3.org/1999/xlink" x="0px" y="0px"
	 viewBox="0 0 143 134" enable-background="new 0 0 143 134" xml:space="preserve">
<g id="Colors">
	<linearGradient id="SVGID_1_" gradientUnits="userSpaceOnUse" x1="97.1836" y1="117.1426" x2="42.4851" y2="12.6859">
		<stop  offset="0" style="stop-color:#FAA61A"/>
		<stop  offset="0.6011" style="stop-color:#FFF450"/>
		<stop  offset="1" style="stop-color:#FFFFFF"/>
	</linearGradient>
	<circle fill="url(#SVGID_1_)" cx="70.8" cy="66.7" r="57"/>
	<linearGradient id="SVGID_2_" gradientUnits="userSpaceOnUse" x1="109.6784" y1="130.3293" x2="58.7814" y2="43.4723">
		<stop  offset="0" style="stop-color:#F26722"/>
		<stop  offset="1" style="stop-color:#FFF450"/>
		<stop  offset="1" style="stop-color:#FFFFFF"/>
	</linearGradient>
	<path fill="url(#SVGID_2_)" d="M108.3,24.8c5.4,7.1,9,14.7,10.8,23.4c2.5,12.5,1.8,26.3-4.5,37.7c-6.4,11.6-18.1,19.2-30.8,22.6
		c-12.6,3.3-26.3,2.9-38.5-1.5c-9.3-3.3-17-9-23.5-16.3c-0.6-0.7-1.3-1.5-1.9-2.2c3.4,5.8,6.8,11.6,11.2,16.8
		c4.2,5,9.4,9.2,15.3,12.1c6.1,3,12.9,4.6,19.6,5.1c6.9,0.5,13.9-0.1,20.6-1.7c6.3-1.6,12.4-4.2,17.8-7.9c5.2-3.6,9.7-8.3,13.2-13.5
		c3.7-5.5,6.4-11.5,8.3-17.8c1.8-6.1,2.9-12.6,2.8-19c-0.1-5.8-1.2-11.5-3.5-16.8c-2.1-5-5.2-9.4-8.5-13.6c-0.8-1-1.6-2-2.4-3
		L108.3,24.8z"/>
	<path fill="#333333" d="M40.7,63c0.2,8.6,0.4,17.4,2.8,25.8c2.2,7.7,6.4,15.1,13.3,19.5c7,4.4,16.2,5.4,23.8,2.6
		c8.4-3.1,14.5-5,18.7-18.3c2.8-9,5.7-17.6,6.5-26.9c0.1-1.1,0.2-2.3,0.3-3.4c-1.9,2.7-7.5,3.3-10.5,4.1c-4.3,1.2-9.1,1.5-13.5,2
		c-9.5,1.1-15.7,0.9-24.9-1C52.4,66.6,40.7,63,40.7,63z"/>
	<path fill="#F2F2F2" d="M40.7,62.8C40.5,68,39.3,75,45,77.5c4.8,2.1,11.1,2.4,16.3,2.6c5.9,0.2,12.1,1.1,18,0.7
		c3-0.2,5.8-1.1,8.8-1.7c3-0.6,6-0.4,9-0.7c8.4-0.9,7.4-8.8,8.3-15.4c-3,2.4-7.8,2.8-11.4,3.6c-3.9,0.8-7.8,1.9-11.7,2.3
		c-8.8,0.9-17.3,0-25.9-1.9c-4-0.9-9.3-1-12.8-3.4L40.7,62.8z"/>
	<path fill="#F2F2F2" d="M49.2,100.9c3.1,5.5,8.6,9.2,14.6,10.9c7.5,2.1,15.2,0.7,22-2.8c3.6-1.8,6-4.3,8.1-7.7
		c-2.6,1.3-5.1,1.4-8,1.6c-2.9,0.2-7.6,1.7-10.5,1.6c-5.6-0.2-9.5-0.3-15.1-1.1c-1.5-0.2-2.9-0.2-4.3-0.7c-1.5-0.5-2.7-1.5-4.4-1.4
		L49.2,100.9z"/>
</g>
<g id="Lineart">
	<g>
		<path fill-rule="evenodd" clip-rule="evenodd" d="M108.5,60.3c-12,5.5-24.3,7.9-37.5,7.6c-6.9-0.2-13.7-1.2-20.3-2.7
			c-3-0.7-6.2-1.4-9.1-2.7c-0.3-0.3-0.7-0.5-1.2-0.5c-1.4-0.7-2.7-1.6-3.8-2.7c-0.2-0.2-0.8,0-0.6,0.4c0.6,1.4,1.6,2.4,2.9,3.2
			c-0.1,0.2-0.2,0.4-0.2,0.7C37,83.5,42.6,108,65,112.8c11.5,2.5,23.9-2.1,31.1-11.2c5.7-7.2,8.6-16.8,10.2-26.2
			c0.1-0.1,0.2-0.1,0.2-0.2c0.5-0.4,0.4-1.1,0-1.5c0.5-3.2,0.8-6.4,1-9.5c0-0.5-0.1-1-0.4-1.3c0.7-0.6,1.3-1.2,1.9-2
			C109.4,60.6,109,60.1,108.5,60.3L108.5,60.3z M70.9,9.1c-32.5,0-58.8,26.3-58.8,58.8c0,32.5,26.3,58.8,58.8,58.8
			c32.5,0,58.8-26.3,58.8-58.8C129.6,35.4,103.3,9.1,70.9,9.1L70.9,9.1z M71.1,120.7c-30,0-54.4-24.5-54.4-54.7
			c0-30.2,24.3-54.7,54.4-54.7c30,0,54.4,24.5,54.4,54.7C125.5,96.2,101.1,120.7,71.1,120.7L71.1,120.7z M82.9,32.5
			c6.5-1.1,10.8,2.9,16.4,5.2c0.1,0,0.1,0,0.1-0.1c-0.9-3.4-4-5.8-7.6-7.1c0.2,0,0.3,0,0.5,0c3.6,0.3,6.2,2.1,8.9,4.2
			c0.1,0.1,0.2-0.1,0.2-0.2c-0.9-6.5-11.7-7.6-17.1-5.2c-0.8,0-1.5,0.1-2.2,0.3C80.1,30,81,32.8,82.9,32.5L82.9,32.5z M40.6,36.1
			c1.2-0.6,1.9-1.8,2.9-2.7c1.5-1.4,3.6-1.9,5.6-2.2c-3.5,1.5-6.2,3.9-5.3,7c0,0.1,0.1,0.1,0.2,0c2.2-2.2,4.2-3.7,7.1-4.8
			c2.8-1,5.8-0.8,8.6-1.6c0.3,0,0.7,0.1,1,0.1c1.3,0.1,1.9-2,0.7-2.5c-4.1-1.9-9.5-1.5-13.8-0.5c-2.8,0.6-8.8,3.5-7.1,7.2
			C40.5,36.1,40.6,36.1,40.6,36.1L40.6,36.1z M37.5,53c-3.7-0.7-6.9,0.6-9.4,3.3c-2.4,2.5-3.7,7.2-1.3,10.1c0.4,0.5,1.1,0.5,1.6,0.4
			c0.9-0.2,1.1-1,1.2-1.8c0.2-1.6-0.2-3,0.3-4.6c1-3.2,4.8-5.6,7.6-7.1C37.6,53.1,37.6,53,37.5,53L37.5,53z M111.1,49.6
			c-0.1,0.1-0.1,0.2,0,0.3c2.9,1.6,5.6,3.6,5.9,7.2c0.1,1.2-0.6,3.3,0.6,4.2c0.8,0.7,2.1,0.4,2.6-0.6
			C122.5,55.9,116.8,45.9,111.1,49.6L111.1,49.6z M62.5,110c-5-1.4-8.8-4.2-11.5-7.7c6.4,3.3,14.5,2.4,21.4,2.3
			c4.6-0.1,9.2-0.3,13.8-0.7c2.1-0.2,4.2-0.3,6.2-0.9C84.9,110.8,72.9,112.9,62.5,110L62.5,110z M95.4,99.2
			c-0.1,0.2-0.2,0.3-0.4,0.5c-3.2,2.1-6.6,2.4-10.3,3c-4.1,0.6-8.1,1.4-12.3,1.7c-8,0.5-15.5-3.2-23.1-4.9c-0.1,0-0.2,0-0.2,0
			c-3.6-6.2-5.1-14-5.9-21.7C53.3,82.1,65,81.4,75.8,81c6.4-0.2,12.8-0.7,19.2-1.5c2.5-0.3,5-0.8,7.3-1.7
			C101.3,85.3,99.5,92.7,95.4,99.2L95.4,99.2z M102.6,75c-7.9,4.4-18,4.3-26.8,4.8c-5.4,0.3-10.9,0.5-16.3,0c-6-0.5-11-3.5-16.7-4.8
			c-0.3-3.7-0.5-7.3-0.8-10.6c0.9,0.4,1.8,0.7,2.6,1c7.2,3,14.9,4.3,22.7,4.9c7.5,0.6,15.1,0.2,22.5-1c4.3-0.7,9.3-1.8,13.5-3.9
			C103.1,68.6,102.9,71.8,102.6,75L102.6,75z"/>
	</g>
</g>
</svg>
