<?xml version="1.0" encoding="utf-8"?>
<!-- Generator: Adobe Illustrator 17.1.0, SVG Export Plug-In . SVG Version: 6.00 Build 0)  -->
<!DOCTYPE svg PUBLIC "-//W3C//DTD SVG 1.1//EN" "http://www.w3.org/Graphics/SVG/1.1/DTD/svg11.dtd">
<svg version="1.1" xmlns="http://www.w3.org/2000/svg" xmlns:xlink="http://www.w3.org/1999/xlink" x="0px" y="0px"
	 viewBox="0 0 143 134" enable-background="new 0 0 143 134" xml:space="preserve">
<g id="Colors">
	<linearGradient id="SVGID_1_" gradientUnits="userSpaceOnUse" x1="99.8292" y1="118.4236" x2="45.1306" y2="13.9669">
		<stop  offset="0" style="stop-color:#FAA61A"/>
		<stop  offset="0.6011" style="stop-color:#FFF450"/>
		<stop  offset="1" style="stop-color:#FFFFFF"/>
	</linearGradient>
	<circle fill="url(#SVGID_1_)" cx="73.4" cy="68" r="57"/>
	<linearGradient id="SVGID_2_" gradientUnits="userSpaceOnUse" x1="112.3239" y1="131.6096" x2="61.4276" y2="44.7537">
		<stop  offset="0" style="stop-color:#F26722"/>
		<stop  offset="1" style="stop-color:#FFF450"/>
		<stop  offset="1" style="stop-color:#FFFFFF"/>
	</linearGradient>
	<path fill="url(#SVGID_2_)" d="M111,26.1c5.4,7.1,9,14.7,10.8,23.4c2.5,12.5,1.8,26.3-4.5,37.7c-6.4,11.6-18.1,19.2-30.8,22.6
		c-12.6,3.3-26.3,2.9-38.5-1.5c-9.3-3.3-17-9-23.5-16.3c-0.6-0.7-1.3-1.5-1.9-2.2c3.4,5.8,6.8,11.6,11.2,16.8
		c4.2,5,9.4,9.2,15.3,12.1c6.1,3,12.9,4.6,19.6,5.1c6.9,0.5,13.9-0.1,20.6-1.7c6.3-1.6,12.4-4.2,17.8-7.9c5.2-3.6,9.7-8.3,13.2-13.5
		c3.7-5.5,6.4-11.5,8.3-17.8c1.8-6.1,2.9-12.6,2.8-19c-0.1-5.8-1.2-11.5-3.5-16.8c-2.1-5-5.2-9.4-8.5-13.6c-0.8-1-1.6-2-2.4-3
		L111,26.1z"/>
	<path fill="#8FD6EA" d="M60.8,62c-4.1,4.7-11.9,1.1-15.1,5.7c-4.5,6.4,5.2,8.3,9.1,4c1.8-2,3-4.4,4.7-6.5L60.8,62z"/>
	<path fill="#FFFFFF" d="M62.7,29.3c-13.7-6.6-16.2,10.1-14.8,20.1c0.7,5.2,3.3,11.1,9.5,11.2c6.2,0.1,8.4-6.1,9.3-11.2
		c1.3-6.8,0.8-12.8-2.7-18.9L62.7,29.3z"/>
	<path fill="#FFFFFF" d="M87.8,27.4c-5.6-1.7-11.2-2.3-11.6,5c-0.4,5.6,1.6,12.4,3.5,17.7c1.8,4.7,5.9,9.4,11.5,8.5
		c6.7-1.1,6.9-9.1,5.9-14.3c-1.1-5.9-4-10.9-7.7-15.6L87.8,27.4z"/>
</g>
<g id="Lineart">
	<g>
		<path fill-rule="evenodd" clip-rule="evenodd" d="M73.9,8.7C41.4,8.7,15.1,35,15.1,67.5c0,32.5,26.3,58.8,58.8,58.8
			c32.5,0,58.8-26.3,58.8-58.8C132.6,35,106.3,8.7,73.9,8.7L73.9,8.7z M117,81.7c-0.6-2.5-3-4.7-5.6-5c-0.1,0-0.2,0.2-0.1,0.3
			c1.5,1.4,2.9,2.8,3.5,4.8c0.6,2-0.9,3.7-0.6,5.6c0,0.2,0.3,0.4,0.4,0.3C117.3,87.3,117.6,83.7,117,81.7L117,81.7z M91.2,91.5
			c-4.5-1.7-8.8,3.7-9.7,7.5c0,0.1,0.1,0.2,0.2,0.1c2.2-2.3,5.5-5.7,8.9-5.2C92.1,94.1,92.7,92.1,91.2,91.5L91.2,91.5z M57.3,102.1
			c-0.5-2.2-0.5-5,0.6-7c0-0.1-0.1-0.1-0.1-0.1c-1.8,2-2.5,4.7-2.5,7.4c0,1.7,1.3,6,3.7,5.1c0.2-0.1,0.4-0.3,0.4-0.5
			c-0.1-0.7-0.4-1.1-0.9-1.6C57.8,104.4,57.5,103.2,57.3,102.1L57.3,102.1z M89,83.9c-9.5,4-19.2,4.6-24.9,14.3
			c0,0.1,0.1,0.2,0.1,0.1c5.3-6,10.9-7.7,18.5-9.5c7.7-1.8,19.6-11.4,25.9-2.2c0.1,0.1,0.2,0.1,0.2-0.1C108.8,77.4,93.4,82,89,83.9
			L89,83.9z M61,62.1c-1.6,2.1-3.1,4.3-4.9,6.4c-1.8,2.1-4.5,5.4-7.7,4.9c-3-0.5-1.9-4.4-0.7-5.8c1.2-1.3,3.8-1.6,5.4-1.7
			c2.3-0.2,4.4-0.3,6.3-1.9c0.1-0.1,0-0.2-0.1-0.1c-4.3,1.9-9.1,0.1-13.1,2.9c-2.6,1.8-2.3,5.9,0,7.7c2.6,2.1,6.3-0.4,8.3-2.2
			c3-2.8,4.5-6.9,6.6-10.3C61.1,62.1,61,62.1,61,62.1L61,62.1z M84.9,50.9c3.1,1.2,5-2.1,5.2-4.6c0.2-2.8-0.9-5.8-2.2-8.2
			c-0.7-1.3-2.9-4.9-4.9-3.7c-0.4,0.2-0.7,0.6-0.9,0.9c-2.7,1.3-2.4,6.8-2,9.5C80.5,47.4,82.4,49.9,84.9,50.9L84.9,50.9z M93.3,58.2
			C81.6,60.6,78.6,44.1,77,35.7c0-0.1-0.1,0-0.1,0c0.4,6.4,0.9,13.1,4.2,18.7c2.5,4.2,8.8,7.8,13.1,4.5c3.3-0.6,4-6.4,4.2-9.1
			c0.3-5.2-1.3-13-5.4-16.7c-0.1-0.1-0.2,0-0.2,0.1C95.9,41.5,99.4,50.4,93.3,58.2L93.3,58.2z M76.5,30.2c1.4-3,5.4-3.4,8.2-2.7
			c3,0.7,4.6,3,6.8,5c0.1,0.1,0.3,0.1,0.4-0.1c2.2-8-16.1-10-15.5-2.2C76.4,30.2,76.5,30.3,76.5,30.2L76.5,30.2z M66.4,36.3
			c0-0.1-0.1-0.1-0.1,0c0.2,2.2,0.3,4.3,0.2,6.5c-0.1-1.1-0.3-2.1-0.7-3.1c-0.4-1-1.3-2.2-2.5-2.7c-1-1.1-3.2-1-4.3,0.1
			c-2,1.8-1.9,4.7-1.7,7.1c0.2,2.5-0.3,7,3.2,7.6c2.9,0.5,4.9-1.1,5.6-3.8c-0.4,3.2-1.2,6.3-2.5,9.3c-0.1,0-0.2,0-0.3,0.1
			c-6.7,6.7-11.7-0.1-13.6-6.5C48,44.8,48.1,39.2,50,33.1c0,0,0-0.1-0.1,0c-4.5,7.3-3.9,16.8-0.1,24.2c2.8,5.4,12.1,8,14,0.5
			c0-0.1,0-0.2-0.1-0.3C67.2,51,68.7,43.4,66.4,36.3L66.4,36.3z M58.3,28.8c3.7,0.2,4.6,3,7,5.1c0.1,0.1,0.3,0.1,0.4-0.1
			c1.1-3.6-2.8-6.3-5.8-6.9c-3.9-0.8-7.8,1.3-10.1,4.2c0,0.1,0,0.1,0.1,0.1C52.3,29.5,55.3,28.6,58.3,28.8L58.3,28.8z M74.1,120.3
			c-30,0-54.4-24.5-54.4-54.7c0-30.2,24.3-54.7,54.4-54.7c30,0,54.4,24.5,54.4,54.7C128.5,95.8,104.1,120.3,74.1,120.3L74.1,120.3z"
			/>
	</g>
</g>
</svg>
