<?xml version="1.0" encoding="utf-8"?>
<!-- Generator: Adobe Illustrator 18.0.0, SVG Export Plug-In . SVG Version: 6.00 Build 0)  -->
<!DOCTYPE svg PUBLIC "-//W3C//DTD SVG 1.1//EN" "http://www.w3.org/Graphics/SVG/1.1/DTD/svg11.dtd">
<svg version="1.1" xmlns="http://www.w3.org/2000/svg" xmlns:xlink="http://www.w3.org/1999/xlink" x="0px" y="0px"
	 viewBox="0 0 147.7 162.4" enable-background="new 0 0 147.7 162.4" xml:space="preserve">
<g id="Colors">
	
		<linearGradient id="SVGID_1_" gradientUnits="userSpaceOnUse" x1="133.1483" y1="81.2104" x2="68.8987" y2="-41.4859" gradientTransform="matrix(0.9828 0.1845 -0.1845 0.9828 -22.516 45.0977)">
		<stop  offset="0" style="stop-color:#F15D40"/>
		<stop  offset="0.6011" style="stop-color:#F9A77A"/>
		<stop  offset="1" style="stop-color:#FFFFFF"/>
	</linearGradient>
	<circle fill="url(#SVGID_1_)" cx="73.8" cy="85.5" r="66.9"/>
	<linearGradient id="SVGID_2_" gradientUnits="userSpaceOnUse" x1="65.1624" y1="94.8716" x2="33.2336" y2="40.3843">
		<stop  offset="0" style="stop-color:#D51920"/>
		<stop  offset="1" style="stop-color:#F36E4F"/>
	</linearGradient>
	<path fill="url(#SVGID_2_)" d="M35.3,45.7c-7.6,9.5-9,21.3-2.8,32.1c5.9,10.3,20.6,11.6,30.3,5.6c6.3-3.9,7.5-10.6,8.1-17.5
		C59.3,68.7,51.7,56.3,44,49.9c-1.7-1.4-5.3-4.3-6.5-3.4L35.3,45.7z"/>
	<linearGradient id="SVGID_3_" gradientUnits="userSpaceOnUse" x1="116.3087" y1="90.154" x2="94.6721" y2="53.2307">
		<stop  offset="0" style="stop-color:#D51920"/>
		<stop  offset="1" style="stop-color:#F36E4F"/>
	</linearGradient>
	<path fill="url(#SVGID_3_)" d="M85.6,62.9c-11.1,17,11.4,28.3,25.7,21.4c7.1-3.5,10.9-11,11.5-18.7c0.6-7.6-3.1-17.3-11.9-11.9
		c-3.8,2.3-6.4,6.4-10.5,8.4c-3.9,1.9-8.1,1.3-12.2,0.5L85.6,62.9z"/>
	<linearGradient id="SVGID_4_" gradientUnits="userSpaceOnUse" x1="42.5792" y1="39.9228" x2="26.1421" y2="8.5333">
		<stop  offset="0" style="stop-color:#F15D40"/>
		<stop  offset="0.6011" style="stop-color:#F9A77A"/>
		<stop  offset="1" style="stop-color:#FFFFFF"/>
	</linearGradient>
	<path fill="url(#SVGID_4_)" d="M35.6,4.9c-1,6.3-1.1,12.1,3.9,16.8c3.2,3,10.5,5.5,9.9,10.8c-0.6,5.3-8.6,9.1-13.3,8.7
		c-6.4-0.6-8.8-7.1-9.7-12.6c-1.1-7,0.5-13.1,4.4-18.9L35.6,4.9z"/>
	<linearGradient id="SVGID_5_" gradientUnits="userSpaceOnUse" x1="122.1276" y1="42.5041" x2="105.1134" y2="10.0125">
		<stop  offset="0" style="stop-color:#F15D40"/>
		<stop  offset="0.6011" style="stop-color:#F9A77A"/>
		<stop  offset="1" style="stop-color:#FFFFFF"/>
	</linearGradient>
	<path fill="url(#SVGID_5_)" d="M116.8,5.3c2.2,6.6,1.2,12.6-2.4,18.6c-2.6,4.3-10.7,7-11.6,11.8c-1.2,6.2,7.8,11,12.9,9.7
		c7.5-1.8,11.2-9.6,11.2-16.6c0-8.2-1.1-15.5-7.1-21.3L116.8,5.3z"/>
	<path fill="#FFFFFF" d="M47.8,54.1c-8.2,3.1-13.2,11.2-9.3,19.8c3.7,8.1,14.9,8.8,21.9,4.4c3.8-2.4,5.1-6.7,6.1-10.9
		c-4.4-2.8-13.5-4.7-15.4-10.4L47.8,54.1z"/>
	<path fill="#FFFFFF" d="M90,65.5c-7.8,21.2,27.1,17.9,25.8-0.8c-0.3-4.5-3.4-8-6.7-10.7c-2.6,2.1-4.8,4.6-7.5,6.5
		c-3.4,2.5-6.5,2.8-10.1,3.8L90,65.5z"/>
	<path fill="#FFFFFF" d="M40.1,92.3c-7.2,9.8-14.8,27.1,3.4,29.9c14,2.2,26-7.6,40.4-3.8c12.5,3.3,30.7,7.9,33.2-10.6
		c2.6-18.6-17.3-17.3-29.5-14.8c-14,2.9-26.5,1.6-40.5-0.1c-1.6-0.2-3.3-0.4-4.9-0.6H40.1z"/>
	<linearGradient id="SVGID_6_" gradientUnits="userSpaceOnUse" x1="117.6945" y1="170.0294" x2="37.7383" y2="33.5822">
		<stop  offset="0" style="stop-color:#D51920"/>
		<stop  offset="1" style="stop-color:#F36E4F"/>
	</linearGradient>
	<path fill="url(#SVGID_6_)" d="M12.9,64.4c-2.5,6.6-2.1,14-0.2,20.6c1.3,4.4,4.7,12.3,10.1,12.9c-0.9,9.8-1,20.7,8.6,26.3
		c9.2,5.4,20.2,3,29.9,1c10.8-2.2,19.9-1.8,30.3,1.6c9.4,3.1,18.8,5.6,26.4-2.7c8.5-9.2,8.4-21.8,6-33.3c5.4,3.7,11.3-7.2,13.7-10.2
		c-1.7,16.9-3.7,34.6-14,48.8c-9,12.4-23.2,19.8-38.3,21.7c-13.5,1.7-27.3-0.8-39.7-6.3c-12-5.4-23.1-14-30.1-25.3
		c-7.4-12.1-8.5-25.9-7.9-39.8c0.1-1.7,0.2-3.4,0.3-5.2c0,0.3,0,0.7,0,1L12.9,64.4z"/>
</g>
<g id="Lineart">
	<g>
		<path fill-rule="evenodd" clip-rule="evenodd" d="M80.8-138.1c-38.1,0-69,30.9-69,69s30.9,69,69,69c38.1,0,69-30.9,69-69
			C149.9-107.2,119-138.1,80.8-138.1z M79.5-7.9c-34.4,0-62.2-28-62.2-62.6c0-34.6,27.9-62.6,62.2-62.6c34.4,0,62.2,28,62.2,62.6
			C141.7-35.9,113.9-7.9,79.5-7.9z"/>
	</g>
	<g>
		<g>
			<path fill-rule="evenodd" clip-rule="evenodd" d="M44.1,28.9c0,0,0.1,0.1,0.1,0.1c8.5-4.4,18.2-6.9,28.4-6.9c13,0,25,4,35,10.8
				c1-1.6,3.5-2.5,5.1-3.5c0.1-0.1,0.2-0.1,0.3-0.2c-11.1-7.6-24.5-12.1-39-12.1c-12.1,0-23.5,3.1-33.4,8.6
				C41.7,26.7,43,27.7,44.1,28.9z"/>
			<path fill-rule="evenodd" clip-rule="evenodd" d="M122.3,37.1c-1,1.8-2.7,3.6-4.7,4.6c10.6,11.2,17.1,26.4,17.1,43
				c0,34.6-27.9,62.6-62.2,62.6c-34.4,0-62.2-28-62.2-62.6c0-19.5,8.9-37,22.8-48.4c-1.1-1.1-1.8-2.5-2.3-4.1
				c-15.8,12.6-26,32.1-26,53.9c0,38.1,30.9,69,69,69c38.1,0,69-30.9,69-69C142.9,67,135,49.6,122.3,37.1z"/>
		</g>
		<g>
			<path d="M18.1,17.3C18.1,17.3,18.1,17.3,18.1,17.3C18.1,17.3,18.1,17.3,18.1,17.3z"/>
			<path d="M48.6,51.8c-4.4-4.4-14.8-12.5-20.5-5.3c0,0,0,0.1,0,0.1c2.6-0.1,4.8-0.8,7.4,0c2.6,0.8,4.7,2.7,6.5,4.6
				c0.6,0.6,1.2,1.3,1.8,1.9c-5.7,3.2-8.5,6.7-9,13.5c-0.4,5.9,3.5,11.4,8.4,14.2c8.9,5,24.9-0.6,25.8-11.7c4.2-1.1,8.4-4.1,8.1-8.3
				c-0.1-1.3-1.2-2.2-2.5-1.9c-2.5,0.6-3.8,2.8-6.3,3.8c-2.9,1.1-5.9,0.5-8.5-0.9C55.5,59.3,52.1,55.2,48.6,51.8z M50.8,66.8
				L50.8,66.8C50.8,66.8,50.8,66.8,50.8,66.8C50.8,66.8,50.8,66.8,50.8,66.8L50.8,66.8z M63.9,69.3C63,79.4,50.1,82.6,42.6,76.8
				C37.8,73,37,65.5,41.4,61.1c1.6-1.6,4.4-2.5,5.7-4.2c0.9,1.1,1.8,2.2,2.8,3.3c-2,0.2-3.8,1.2-5,3c-2.2,3.2-1.1,7.5,2.1,9.6
				c2.8,1.9,6.3,1.5,8.6-0.8c0.9-0.6,1.6-1.5,2.1-2.8c0.2-0.6,0.3-1.2,0.3-1.8C59.7,68.3,61.7,69,63.9,69.3z"/>
			<path d="M86.1,65.5c-2.5,4-1.3,8.9,2.5,12.2c4.3,3.8,9.9,5.2,15.4,4c6.1-1.4,11-7.4,13-13c1.5-4.2,1-12.1-3.3-14.8
				c2.2-1.3,4.6-1.6,7.2,0.9c0.5,0.5,1.2,0.1,1.2-0.5c0.7-8.2-12.3-2.8-15.3-0.6c-3.6,2.7-7,6.3-11.5,7.4c-4.3,1-8.7-0.9-11.9-3.4
				c-0.6-0.5-1.8-0.6-2.2,0.3C79.7,61.6,82.5,64.1,86.1,65.5z M96.4,67.2C96.4,67.2,96.4,67.2,96.4,67.2
				C96.4,67.4,96.4,67.4,96.4,67.2z M96.2,67.2c0,0,0.1,0,0.1,0c0,0,0,0,0,0c-0.1,1-0.2,1.4,0,2.4c0.2,1.3,1.1,2.3,2.1,3
				c1.5,1,3.5,1,5.1,0.5c2-0.6,3.5-2,4.2-3.9c0.1-0.2,0.1-0.3,0.1-0.5c0.1-0.4,0.2-0.8,0.2-1.3c0.2-2.2-1.1-4.1-2.8-5.1
				c0.5-0.5,0.9-0.9,1.4-1.4c0.9-1,2-2.3,3.1-3.6c0.1,0.1,0.2,0.1,0.4,0.2c4.4,1.5,5.1,8.4,4.1,12c-1.5,5.5-6.8,8.8-12.2,9.2
				c-6.7,0.6-13.7-5-10.9-11.7C93.3,67.3,95.1,67.4,96.2,67.2z"/>
			<path d="M32.7,57.9c-8.9,5.4-5.9,24.2,4.5,26.2c0.5,0.1,0.8-0.4,0.6-0.8c-2-3.9-4.9-7-6.4-11.3c-1.8-4.8-1-9.6,1.5-14
				C32.9,58,32.8,57.8,32.7,57.9z"/>
			<path d="M122,60.2c-0.1-0.1-0.2,0-0.2,0.1c0.4,4.8,0.4,8.4-1.6,12.9c-1.7,3.9-5,6-7.4,9.2c-0.2,0.3,0,0.8,0.4,0.9
				C122.7,85.1,127.9,65.9,122,60.2z"/>
			<path d="M34.6,121.6c3,1.8,8.3,2.3,10.3,2.3c7.4-0.1,15.4-2.6,22.6-4.3c11.4-2.6,20.3,3.8,31.3,4.9c5.5,0.5,17.1-1,18.9-7.6
				c4.4-4.9,3.7-19-1.7-22.9c-2-1.8-4.6-3.2-7.1-3.5c-11.3-1.7-23,3-34.2,3.9c-8.9,0.7-16.7-2.7-25.3-3.8c-3.4-0.4-8.7-0.5-11.8,1.7
				c-3.7,1.3-7.4,11.1-8.2,13.1C27.3,110.5,28.3,121.2,34.6,121.6z M89.8,118.1c-8.1-1.3-15.7-2.1-23.8-0.7
				c-7.1,1.2-13.9,2-21.1,1.9c-2.8-0.1-5.7,0-8.1-1.6c-1.1-1.3-2.1-2.5-2.6-4.2c-0.7-2.3-0.2-4.7,0.5-7c1.1,0.7,2.4,1.2,3.7,1.6
				c-0.5,0.7-0.8,1.4-0.5,2.2c0.2,0.7-0.4,2.2-0.5,3c-0.1,0.8,0,1.5,0.1,2.3c0,0.1,0.1,0,0.1,0c0.3-2.9,2.1-4.8,3.8-6.9
				c0.7,0.1,1.4,0.2,2.1,0.2c1.1,0.1,2.1,0.2,3.2,0.3c-0.7,1.1-1.1,2.3-0.9,3.5c0.3,1.8-0.4,4,0.3,5.7c0,0.1,0.2,0.1,0.2,0
				c0.5-1.2,0.4-2.8,0.6-4.2c0.2-1.4,1.1-3.3,2.1-4.4c0.1-0.1,0.2-0.3,0.3-0.5c2.9,0.2,5.7,0.3,8.6,0.4c-0.2,0.7-0.3,1.4-0.4,2
				c-0.1,0.9,0,1.6,0,2.5c0,0.9,0,1.8,0.1,2.7c0,0.8,1.1,0.8,1.2,0c0-0.7,0.1-1.4,0.2-2.1c0.1-0.7,0.6-1.4,0.7-2.1
				c0.2-1,0.8-2,1.1-3c3.2,0,6.4,0,9.5-0.2c1.5-0.1,3-0.2,4.5-0.3c0,0.6,0.3,1.1,0.6,1.6c0.3,0.5,0.3,1.7,0.4,2.2
				c0.1,0.8,0.1,1.6,0.2,2.5c0,0.1,0.2,0.1,0.2,0c0.1-1.4,0.3-2.8,0.4-4.2c0.1-0.8,0.7-1.3,0.7-2.2c4.4-0.3,8.9-0.6,13.3-1.1
				c-0.1,1.2-0.1,2.7,0.2,3.8c0.4,1.5,0.4,3,0.7,4.5c0,0.1,0.1,0.1,0.2,0c0.6-1.1,0.4-2.4,0.5-3.7c0.2-1.6,0.1-3.3,0.3-4.9
				c1.4-0.1,2.9-0.3,4.3-0.4c1-0.1,2.2-0.2,3.4-0.3c0.6,1.4,0.9,2.9,1.1,4.4c0.2,1.7,1,3.2,1.1,4.9c0,0.1,0.2,0.1,0.2,0
				c0.2-1.8,1-3.7,0.8-5.5c-0.1-1.3-0.4-2.6-0.8-3.9c2.1-0.1,4.4-0.3,6.5-0.7c0.4,1.1,0.6,2.4,0.7,3.3c0.2,1.6,0.7,3.3,0.2,5
				c0,0.2,0.2,0.3,0.3,0.1c0.9-1.5,1.2-3.3,1.3-5.1c0-1.1,0.5-2.1,0.1-3.1c-0.1-0.2-0.1-0.4-0.2-0.6c1.1-0.3,2.2-0.6,3.2-1
				c0,0.4,0,0.9,0,1.3c0,2.5-1.5,5.4-2,8c-2,1.8-3.7,3.7-6.8,4.5C100.7,120.2,95,119,89.8,118.1z M39.5,95.3
				c-1.4,2.7-1.3,6.8-0.5,9.9c-1.5-0.5-2.7-1.2-3.5-2.1c0.7-2.8,1.6-5.4,3.6-7.5C39.2,95.5,39.3,95.4,39.5,95.3
				C39.5,95.3,39.5,95.3,39.5,95.3z M91.3,94.7c0.4,2,0.1,4.2,0,6.2c-0.1,1.2-0.2,2.4-0.4,3.5c0,0.2-0.1,1-0.3,1.1
				c-0.3,0.2-0.7,0.5-0.2,0.3c-0.4,0.1-0.6,0.4-0.7,0.7c-4.3,0.6-8.7,1-13,1.2c0.6-1.4,0.5-3.5,0.6-4.8c0.1-1.6,0.3-3.8-0.4-5.5
				C81.8,96.8,86.5,95.6,91.3,94.7z M114.1,100.8c-1,0.3-2,0.7-3.1,1c0.5-1.7,0.5-3.6,0.1-5.3c0.2,0.1,0.3,0.2,0.5,0.3
				C112.9,97.8,113.6,99.2,114.1,100.8z M110.1,95.9c-0.3,2.3-0.7,5-2,6.9c-1.9,0.6-3.9,1.2-5.9,1.7c1.3-3.2,1.6-7,1.7-10.4
				C106.1,94.3,108.3,94.9,110.1,95.9z M102.4,94c0,0,0,0.1,0,0.1c-0.2,3.7-0.8,7.8-3,10.9c0,0,0,0.1,0,0.1
				c-2.4,0.4-4.8,0.8-7.2,1.2c0.3-1.2,0.2-2.7,0.3-3.6c0.3-2.6,0.6-5.5-0.1-8.1c1.8-0.3,3.7-0.5,5.5-0.6
				C99.4,93.9,100.9,93.9,102.4,94z M71.2,98.1c1.6-0.1,3.1-0.2,4.7-0.4c0.7,3.3,0,6.9-1.2,9.9c0,0,0,0,0,0.1c0,0.1,0,0.1-0.1,0.2
				c-4.8,0.1-9.7,0-14.6-0.3c-0.1-0.2-0.2-0.3-0.3-0.5c-0.5-0.6-0.3-2.7-0.4-3.5c-0.2-2.1-0.4-4.4,0.1-6.5
				C63.2,97.8,67.1,98.3,71.2,98.1z M53.2,95.8c1.9,0.4,3.8,0.8,5.7,1.2c-1.3,1.1-1.4,3-1.4,4.7c0,1.4,0.1,2.8,0.2,4.2
				c0,0.6,0,1-0.2,1.5c-1.3-0.1-2.5-0.2-3.8-0.3c-1-0.1-2.5-0.1-4.2-0.2c0-0.2-0.1-0.4-0.2-0.6c-1-1.9-1.8-3.3-2-5.5
				c-0.3-2.3,0.3-3.9,0.9-5.8C50,95.2,51.7,95.5,53.2,95.8z M46.3,94.7c-1,1.5-1,3.9-1,5.4c0,2,0.2,4.5,0.9,6.5
				c-1.4-0.1-2.8-0.3-4.1-0.6c-1.6-3.9-1.9-7-1.1-11.1C42.7,94.5,44.5,94.5,46.3,94.7z"/>
			<path d="M119.6,88.1c-0.1,0-0.2,0.1-0.1,0.2c5.4,9.9,7.9,19,4.1,30.1c-1.7,4.9-5,9.1-9.6,11.5c-3.5,1.8-7.1,2.1-10.9,1.3
				c-3.3-0.7-6.3-1.8-9.4-0.1c-0.4,0.2-0.5,1,0,1.2c6.7,3.2,15.9,5.8,23,2.1c5.6-3,9.2-7.9,11.6-13.6
				C132.1,111.2,131.9,91.6,119.6,88.1z"/>
			<path d="M55.2,129.5c-2.4-0.4-4.7-0.2-7.1,0c-2.9,0.2-6.3-0.6-9.2-1c-4.5-0.6-9.2-1.5-12.7-4.7c-8.2-7.5-5.1-24.9,0.5-32.9
				c0,0,0-0.1-0.1,0c-9.3,7.8-13.3,24.5-6.3,35c2.9,4.3,8,6.5,12.9,7.5c3.1,0.6,6.3,0.4,9.4,0c4.2-0.5,8.9-1.1,12.5-3.4
				C55.5,129.9,55.5,129.5,55.2,129.5z"/>
			<path d="M63.3,127.9c-0.1,0.1,0,0.2,0,0.2c3.6,0.1,7.2-0.2,10.8-0.4c4.2-0.2,8,1.7,12.1,1.7c0.3,0,0.5-0.3,0.4-0.6
				C83.2,121,68.6,124.5,63.3,127.9z"/>
			<path d="M30.2,40.8c0.6,0.5,1.2,0.7,1.8,0.7c2,0.8,4.4,0.3,6.3-0.5c2.5-1,4.3-2.1,5.3-4.5c0.1-0.3-0.3-0.4-0.5-0.3
				c-1,0.8-3.2,1.3-4.5,1.5c-1.1,0.2-2.4,0.2-3.6,0c-0.2-0.5-0.6-1.1-1.2-1.5C29,32.9,28.7,24.7,29,19.5c0.2-4.8,2.2-8.4,4.9-11.6
				c-3.2,8.7,7.3,21.4,15.7,24.3c-1,2.6-2.7,4.9-4.6,7c-0.1,0.1,0,0.2,0.1,0.2c3.3-1.2,7.1-3.5,8.3-7.1c1.7-1.2,1.5-4.4-1.5-4.8
				c-4.5-0.6-8.5-4.8-11.3-8C36.8,15.1,34.1,9.1,38,3.9c0.1-0.1,0.2-0.2,0.3-0.3c0,0,0-0.1,0-0.1c0,0-0.1,0-0.1,0
				c0-0.2-0.3-0.4-0.5-0.2c-0.1,0.1-0.3,0.2-0.4,0.3C30.9,4.3,27,12.5,25.5,17.8C23.4,25.1,23.8,35.7,30.2,40.8z"/>
			<path d="M101.1,32.8c0,1.2,0.3,2.5,0.6,3.6c0.4,1.7,0.9,2.6,2.3,3.4c0.2,0.1,0.3,0,0.4-0.2c0-0.4,0.2-0.8,0.2-1.2
				c-0.1-0.8-0.3-1.6-0.3-2.4c-0.1-0.7,0-1.4,0.1-2c7.7-2.9,12.7-7.6,15.1-15.9c1-3.7,0.9-7.7-0.6-11.2c-0.1-0.1-0.1-0.3-0.2-0.4
				c5.1,4,6.6,12.4,6.8,18.4c0.1,3.4-0.5,6.8-1.6,10c-1.5,4.4-6.6,4.6-8.8,7.9c-0.4,0-0.8,0-1.2-0.1c-1.1-0.2-4-1.5-4.5-2.6
				c0-0.1-0.2,0-0.2,0c0.1,1.3-0.5,2.1,0.2,3.5c0.7,1.1,1.8,2,3,2.5c1.1,0.5,2.3,0.7,3.5,0.8c0.4,0.1,0.8,0.1,1.2,0
				c0.1,0,0.3-0.1,0.4-0.1c0.6-0.1,1.2-0.3,1.7-0.6c9.1-4,11-14,10.2-23.4c-0.9-9.4-5-18.2-15.2-19.1c-0.4,0-0.5,0.7-0.1,0.8
				c0.3,0.1,0.6,0.2,0.9,0.3c4.5,1.5,2.8,10.8,1.8,14c-1.5,4.7-7,12.5-12.9,10.9C101.4,29,100.6,31.2,101.1,32.8z"/>
			<path d="M50.5,25.6c2.7,0.7,5.8,0.5,6,4c0.2,3.1-1.6,6.4-2.9,9.2c0,0.1,0.1,0.2,0.2,0.1c2.6-2.5,5.7-6.4,5.9-10.3
				c0.2-4.6-4.5-7.3-8.7-6.8C49,22,48.2,25,50.5,25.6z"/>
			<path d="M99.4,41.2c0.1,0.1,0.3-0.1,0.2-0.2c-1.8-1.9-2.6-5.2-2.4-7.8c0.1-1.2,0.7-2.3,1.5-3.2c1-1.1,2.6-0.9,3.8-1.5
				c1.5-0.8,0.9-2.8-0.4-3.4c-4.1-1.6-7.3,3.1-7.6,6.6C94.2,35.7,96,39.2,99.4,41.2z"/>
		</g>
	</g>
</g>
</svg>
