<?xml version="1.0" encoding="utf-8"?>
<!-- Generator: Adobe Illustrator 17.1.0, SVG Export Plug-In . SVG Version: 6.00 Build 0)  -->
<!DOCTYPE svg PUBLIC "-//W3C//DTD SVG 1.1//EN" "http://www.w3.org/Graphics/SVG/1.1/DTD/svg11.dtd">
<svg version="1.1" xmlns="http://www.w3.org/2000/svg" xmlns:xlink="http://www.w3.org/1999/xlink" x="0px" y="0px"
	 viewBox="0 0 143 134" enable-background="new 0 0 143 134" xml:space="preserve">
<g id="Colors">
	<linearGradient id="SVGID_1_" gradientUnits="userSpaceOnUse" x1="99.079" y1="116.6378" x2="44.3805" y2="12.181">
		<stop  offset="0" style="stop-color:#FAA61A"/>
		<stop  offset="0.6011" style="stop-color:#FFF450"/>
		<stop  offset="1" style="stop-color:#FFFFFF"/>
	</linearGradient>
	<circle fill="url(#SVGID_1_)" cx="72.6" cy="66.2" r="57"/>
	<linearGradient id="SVGID_2_" gradientUnits="userSpaceOnUse" x1="111.574" y1="129.8243" x2="60.677" y2="42.9673">
		<stop  offset="0" style="stop-color:#F26722"/>
		<stop  offset="1" style="stop-color:#FFF450"/>
		<stop  offset="1" style="stop-color:#FFFFFF"/>
	</linearGradient>
	<path fill="url(#SVGID_2_)" d="M110.2,24.3c5.4,7.1,9,14.7,10.8,23.4c2.5,12.5,1.8,26.3-4.5,37.7c-6.4,11.6-18.1,19.2-30.8,22.6
		c-12.6,3.3-26.3,2.9-38.5-1.5c-9.3-3.3-17-9-23.5-16.3c-0.6-0.7-1.3-1.5-1.9-2.2c3.4,5.8,6.8,11.6,11.2,16.8
		c4.2,5,9.4,9.2,15.3,12.1c6.1,3,12.9,4.6,19.6,5.1c6.9,0.5,13.9-0.1,20.6-1.7c6.3-1.6,12.4-4.2,17.8-7.9c5.2-3.6,9.7-8.3,13.2-13.5
		c3.7-5.5,6.4-11.5,8.3-17.8c1.8-6.1,2.9-12.6,2.8-19c-0.1-5.8-1.2-11.5-3.5-16.8c-2.1-5-5.2-9.4-8.5-13.6c-0.8-1-1.6-2-2.4-3
		L110.2,24.3z"/>
	<path fill="#FFFFFF" d="M66.5,21.7c-13.7-5.4-24.4,9.1-23.8,22c0.8,16.6,20.7,13.6,26.5,1.8c3.4-7,3.1-14.1-0.4-20.9L66.5,21.7z"/>
	<path fill="#FFFFFF" d="M86.4,17.3c-7.1,2.7-10.8,7-11.4,14.7c-0.5,6.8,0.5,16,6.5,20.4c5.2,3.9,14,3.9,18.6-1
		c4.8-5.2,3.5-14.1,1.7-20.3c-2.2-7.3-6.8-11-13.4-14.2L86.4,17.3z"/>
</g>
<g id="Lineart">
	<g>
		<path fill-rule="evenodd" clip-rule="evenodd" d="M72.5,8.7C40.1,8.7,13.7,35,13.7,67.5c0,32.5,26.3,58.8,58.8,58.8
			c32.5,0,58.8-26.3,58.8-58.8C131.3,35,105,8.7,72.5,8.7L72.5,8.7z M29.5,48.9c0-0.2-0.2-0.3-0.3-0.1c-0.8,2.6-0.7,7.3,1.9,8.9
			c0.7,0.4,1.7-0.5,1.2-1.2C30.8,54.6,29,51.5,29.5,48.9L29.5,48.9z M118.1,49.9c0,0-0.1,0-0.1,0.1c0.2,1-0.5,2.5-0.9,3.4
			c-0.6,1.3-1.5,2.4-2.5,3.5c-0.4,0.5,0,1.4,0.7,1.2C117.8,57.3,120.3,51.8,118.1,49.9L118.1,49.9z M116.5,44.1
			C116.5,44.1,116.4,44.1,116.5,44.1c0.3,2.8-1.5,6.2-2.8,8.5c-0.7,1.2-1.7,2.1-2.8,2.8c-1,0.6-1.8,0.8-2.5,1.8
			c-0.1,0.2,0,0.5,0.2,0.6c2.6,0.7,5.4-2.3,6.5-4.4C116.6,50.8,117.8,47,116.5,44.1L116.5,44.1z M83.1,25c-1.8,0.2-2.6,1.2-3,2.5
			c-2.5,4.8-1.8,12.6,1.3,16.6c4.2,5.4,11.5,2.3,12-4.1c0.4-5.2-1.7-13-7.3-14.8c-0.7-0.2-1.3-0.3-1.9-0.2
			C83.9,24.9,83.5,24.9,83.1,25L83.1,25z M100.6,25.4c-1-1.2-10-10.4-11.5-5.5c0,0.1,0,0.1,0.1,0.1c5-3.4,10.7,8.9,11.7,12.1
			c0.9,2.8,1.4,5.9,1.3,8.8c0,1.9-0.5,3.4-0.6,5.1c-0.6,1.6-1.3,3.1-2.6,4.6c-2.7,3.1-6.9,4-10.8,3.4c-9.1-1.3-10.9-10-12.6-17.4
			c0,0-0.1,0-0.1,0c-3.1,9.4,3.9,18.8,13.2,20.1c7.1,1,15.9-5.4,15.4-12.9C105.7,37.7,104.1,29.8,100.6,25.4L100.6,25.4z M75.8,33.5
			c0.6-4.2,2.1-9.4,4.9-12.6c2.4-2.8,10.1-5.2,13.4-2.8c0,0,0.1,0,0.1-0.1c-2.9-3.5-9.5-1.3-12.9,0.4c-5.2,2.5-6.7,10-5.6,15.1
			C75.6,33.6,75.8,33.5,75.8,33.5L75.8,33.5z M58.9,44.9c4.5,2.3,7.7-1.9,8.5-5.9c0.7-3.3,0.8-8.2-1.6-10.8
			c-1.1-1.3-3.2-2.1-4.9-1.8c-0.1,0-0.1,0-0.2,0c-3.1-0.1-5.4,4.4-5.9,6.8C54.1,37.3,54.9,42.8,58.9,44.9L58.9,44.9z M35.2,38
			c0.1-0.1-0.2-0.2-0.2-0.1c-2.2,2.8-3,5.9-2.9,9.4c0.1,2.7,1,7.9,4.2,8.4c0.3,0.1,0.7-0.1,0.7-0.5c0-2.5-1.9-4.9-2.4-7.3
			C33.9,44.8,34,41,35.2,38L35.2,38z M67.4,50.7c4.7-6.3,5.6-15.5,4-23C69.3,18,57.2,15,50.5,22.1c0,0,0,0,0,0
			c9-4.1,17-1.4,19.1,8.7c1.4,6.7-0.3,13.2-3.8,18.8c-2.8,2.2-4.9,4.6-8.9,5.4c-4.9,1.1-8.1-1.3-11.7-4.1c-0.1-0.1-0.2,0-0.1,0.1
			C47,60.9,63.5,58,67.4,50.7L67.4,50.7z M56.1,22C56.1,22,56.1,21.9,56.1,22c-5.2,0.2-9.6,6.1-11.8,10.3c-2.1,4.2-4,13.3-0.8,17.2
			c0.2,0.2,0.5,0.1,0.6-0.2c0.8-4.3,0.2-8.8,1.3-13.2C46.7,30.8,50.7,24.2,56.1,22L56.1,22z M87.6,74.8c-1.1-0.7-2.9-1.5-4.7-1.9
			c0.1-0.3,0.2-0.7,0.3-1c0.3-1.2,1.6-2,2.5-2.7c2-1.6,3.9-3.5,6.4-4.2c0.2,0,0.2-0.3,0-0.4c-2.6-0.7-4.7,0.7-6.8,2
			c-1.2,0.8-2.4,1.4-3.6,2.3c-1.3,1-1.6,2.4-2.3,3.8c0,0.1-0.1,0.1-0.1,0.2c-0.1,0-0.1,0-0.2,0.1c-0.7-0.2-1.4-0.2-2-0.2
			c-1.5-3.2-6.3-4.1-9.5-4.6c-3-0.4-7.8-1-9.8,1.8c-0.1,0.1,0.1,0.3,0.2,0.3c3.8-0.8,6.8-0.7,10.4,0.9c1.6,0.7,2.9,1.9,4.2,2.9
			c-4.6,2.5-8,8.5-8.7,13.2c0,0.3,0.4,0.5,0.5,0.2c2.5-5.5,7-10.2,13-10.8c0.6,0.5,1.1,0.7,1.9,0.6c2.4-0.3,4.5-0.7,6.8,0.3
			c3.9,1.8,4.9,5.9,7.2,9.1c0.1,0.1,0.2,0.1,0.2-0.1C93.2,81.5,92.1,77.6,87.6,74.8L87.6,74.8z M72.8,120.3
			c-30,0-54.4-24.5-54.4-54.7c0-30.2,24.3-54.7,54.4-54.7s54.4,24.5,54.4,54.7C127.1,95.8,102.8,120.3,72.8,120.3L72.8,120.3z"/>
	</g>
</g>
</svg>
