<?xml version="1.0" encoding="utf-8"?>
<!-- Generator: Adobe Illustrator 17.1.0, SVG Export Plug-In . SVG Version: 6.00 Build 0)  -->
<!DOCTYPE svg PUBLIC "-//W3C//DTD SVG 1.1//EN" "http://www.w3.org/Graphics/SVG/1.1/DTD/svg11.dtd">
<svg version="1.1" xmlns="http://www.w3.org/2000/svg" xmlns:xlink="http://www.w3.org/1999/xlink" x="0px" y="0px"
	 viewBox="0 0 143 134" enable-background="new 0 0 143 134" xml:space="preserve">
<g id="Colors">
	<linearGradient id="SVGID_1_" gradientUnits="userSpaceOnUse" x1="97.9448" y1="116.4103" x2="43.2458" y2="11.9527">
		<stop  offset="0" style="stop-color:#FAA61A"/>
		<stop  offset="0.6011" style="stop-color:#FFF450"/>
		<stop  offset="1" style="stop-color:#FFFFFF"/>
	</linearGradient>
	<circle fill="url(#SVGID_1_)" cx="71.5" cy="65.9" r="57"/>
	<linearGradient id="SVGID_2_" gradientUnits="userSpaceOnUse" x1="110.4392" y1="129.5964" x2="59.5429" y2="42.7406">
		<stop  offset="0" style="stop-color:#F26722"/>
		<stop  offset="1" style="stop-color:#FFF450"/>
		<stop  offset="1" style="stop-color:#FFFFFF"/>
	</linearGradient>
	<path fill="url(#SVGID_2_)" d="M109.1,24.1c5.4,7.1,9,14.7,10.8,23.4c2.5,12.5,1.8,26.3-4.5,37.7c-6.4,11.6-18.1,19.2-30.8,22.6
		C72,111,58.2,110.6,46,106.2c-9.3-3.3-17-9-23.5-16.3c-0.6-0.7-1.3-1.5-1.9-2.2c3.4,5.8,6.8,11.6,11.2,16.8
		c4.2,5,9.4,9.2,15.3,12.1c6.1,3,12.9,4.6,19.6,5.1c6.9,0.5,13.9-0.1,20.6-1.7c6.3-1.6,12.4-4.2,17.8-7.9c5.2-3.6,9.7-8.3,13.2-13.5
		c3.7-5.5,6.4-11.5,8.3-17.8c1.8-6.1,2.9-12.6,2.8-19c-0.1-5.8-1.2-11.5-3.5-16.8c-2.1-5-5.2-9.4-8.5-13.6c-0.8-1-1.6-2-2.4-3
		L109.1,24.1z"/>
	<path fill="#FFFFFF" d="M57.5,38.5c-5-2.5-9.3-2.6-11.8,3.1c-2,4.4-2.9,10.1-3.3,14.9c-0.4,4.8,1.3,10.6,7.1,10.8
		c5.3,0.1,8.2-4.7,9.5-9.2c1.7-5.9,1.6-11.6-0.1-17.5L57.5,38.5z"/>
</g>
<g id="Lineart">
	<g>
		<path fill-rule="evenodd" clip-rule="evenodd" d="M71.5,7.7C39.1,7.7,12.7,34,12.7,66.5c0,32.5,26.3,58.8,58.8,58.8
			c32.5,0,58.8-26.3,58.8-58.8C130.3,34,104,7.7,71.5,7.7L71.5,7.7z M44,32.5c2.9,1.5,6.3-1.7,8.2-3.7c1.9-2,4.8-5.5,4.1-8.4
			c0-0.2-0.3-0.2-0.4-0.1c-1.8,1.9-2.9,4.4-4.8,6.4c-1.1,1.2-2.4,2.2-3.8,3c-1.2,0.7-2.3,1.1-3.4,2C43.7,31.9,43.7,32.3,44,32.5
			L44,32.5z M75.4,42c2.1-0.6,4.1-0.5,6.3-0.2c1.8,0.3,3.6,1,5.3,0.6c0.1,0,0.1-0.2,0.1-0.2c-1.3-1.6-3.8-2.2-5.7-2.8
			c-0.8-0.2-1.7-0.4-2.6-0.5c2.7-1.5,6.1-2,9.1-2.2c0,0,0,0,0-0.1c-4-2.5-12-1-15.1,2.9C71.4,41.5,73.8,43.5,75.4,42L75.4,42z
			 M55.8,44.9c-0.1,0-0.2,0-0.3,0c-0.1,0-0.3,0-0.4,0c-0.6,0-0.9,0.3-1,0.6c0,0,0,0.1-0.1,0.1c-1.3,0.7-1.8,2.3-2,3.9
			c-0.2,1.9-0.1,4.7,0.9,6.3c0.6,0.9,1.5,1.1,2.3,0.7c0.3-0.1,0.7-0.2,0.9-0.5c1.4-1.6,3.1-6.1,2.2-8.7C58.1,46,57.3,45,55.8,44.9
			L55.8,44.9z M48,67.7c3.9,0.8,6.9-2.3,9.3-4.8c0,0,0-0.1-0.1-0.1c-3.3,3.2-8.4,5.4-11.5,1c-1.5-2.1-1.6-5.4-1.8-7.8
			c-0.3-4.8,1-9.6,1.7-14.2c0,0,0-0.1-0.1,0c-2.3,6-4.3,14.4-2.7,20.7C43.6,65,45.4,67.2,48,67.7L48,67.7z M47.7,39
			c0,0.1,0.1,0.2,0.1,0.1c5.6-5.8,11,1.5,11.5,6.8c0.5,4.6-0.4,9-0.8,13.6c0,0.2,0.2,0.2,0.3,0.1c2-3.4,1.9-7.6,2.2-11.4
			c0.2-3.1,0.1-6.1-1.4-8.9C57.2,34.6,49.8,34.1,47.7,39L47.7,39z M39.4,78.6c-1.3-0.1-2.2-0.3-3.3,0.6c-1,0.8-1.7,1.8-2.2,3
			c-1,2.3-1.3,5.7,0.2,7.9c0.8,1.1,2.7,0.8,2.6-0.7c0-1.9-0.6-3.6-0.3-5.5c0.3-1.8,1.8-3.9,3.2-5.1C39.6,78.7,39.5,78.6,39.4,78.6
			L39.4,78.6z M114,55.4c-1-2.1-3.7-3.2-5.7-3.9c-4.7-1.6-10.2-0.4-12.1,4.4c0,0,0,0.1,0.1,0c2.7-3.7,7.2-3.6,10.9-1.9
			c1.3,0.6,2.6,1.4,3.4,2.5c0.8,1.1,0.4,2.5,1.1,3.6c0.3,0.5,1,0.7,1.5,0.4C115.4,59.6,114.8,57.2,114,55.4L114,55.4z M104.1,58.9
			c-3.6,3.9-5.4,9.2-9,13.3c-4.2,4.7-9.6,8.3-15.2,11c-11.7,5.6-27,7.4-39.1,2.4c-0.1,0-0.1,0.1-0.1,0.1c10.2,8.8,27.5,5.7,38.9,1.2
			c6.3-2.5,11.9-6.3,16.6-11.2c3.9-4.1,8.8-10.4,9.1-16.2C105.4,58.8,104.5,58.5,104.1,58.9L104.1,58.9z M71.8,119.3
			c-30,0-54.4-24.5-54.4-54.7c0-30.2,24.3-54.7,54.4-54.7c30,0,54.4,24.5,54.4,54.7C126.2,94.8,101.8,119.3,71.8,119.3L71.8,119.3z"
			/>
	</g>
</g>
</svg>
