<?xml version="1.0" encoding="utf-8"?>
<!-- Generator: Adobe Illustrator 17.1.0, SVG Export Plug-In . SVG Version: 6.00 Build 0)  -->
<!DOCTYPE svg PUBLIC "-//W3C//DTD SVG 1.1//EN" "http://www.w3.org/Graphics/SVG/1.1/DTD/svg11.dtd">
<svg version="1.1" xmlns="http://www.w3.org/2000/svg" xmlns:xlink="http://www.w3.org/1999/xlink" x="0px" y="0px"
	 viewBox="0 0 143 134" enable-background="new 0 0 143 134" xml:space="preserve">
<g id="Colors">
	<linearGradient id="SVGID_1_" gradientUnits="userSpaceOnUse" x1="97.8292" y1="117.4236" x2="43.1306" y2="12.9669">
		<stop  offset="0" style="stop-color:#FAA61A"/>
		<stop  offset="0.6011" style="stop-color:#FFF450"/>
		<stop  offset="1" style="stop-color:#FFFFFF"/>
	</linearGradient>
	<circle fill="url(#SVGID_1_)" cx="71.4" cy="67" r="57"/>
	<linearGradient id="SVGID_2_" gradientUnits="userSpaceOnUse" x1="110.3239" y1="130.6096" x2="59.4276" y2="43.7537">
		<stop  offset="0" style="stop-color:#F26722"/>
		<stop  offset="1" style="stop-color:#FFF450"/>
		<stop  offset="1" style="stop-color:#FFFFFF"/>
	</linearGradient>
	<path fill="url(#SVGID_2_)" d="M109,25.1c5.4,7.1,9,14.7,10.8,23.4c2.5,12.5,1.8,26.3-4.5,37.7c-6.4,11.6-18.1,19.2-30.8,22.6
		c-12.6,3.3-26.3,2.9-38.5-1.5c-9.3-3.3-17-9-23.5-16.3c-0.6-0.7-1.3-1.5-1.9-2.2c3.4,5.8,6.8,11.6,11.2,16.8
		c4.2,5,9.4,9.2,15.3,12.1c6.1,3,12.9,4.6,19.6,5.1c6.9,0.5,13.9-0.1,20.6-1.7c6.3-1.6,12.4-4.2,17.8-7.9c5.2-3.6,9.7-8.3,13.2-13.5
		c3.7-5.5,6.4-11.5,8.3-17.8c1.8-6.1,2.9-12.6,2.8-19c-0.1-5.8-1.2-11.5-3.5-16.8c-2.1-5-5.2-9.4-8.5-13.6c-0.8-1-1.6-2-2.4-3
		L109,25.1z"/>
	<path fill="#FFFFFF" d="M63.2,28.1c-5.4-1.3-10.6-1.4-13.5,4.1c-2.6,5-2.8,12.3-2,17.8c0.8,5.3,4,10.5,10,10.3
		c5.9-0.2,7.7-5.8,8.5-10.8c0.9-6.3,0.7-12.7-1.1-18.8L63.2,28.1z"/>
	<path fill="#FFFFFF" d="M88.8,29.4C74.7,24,75.4,39.8,77.4,49.5c2.6,12.4,16.2,10.3,17.4-1.7c0.6-5.6-0.5-11.4-3.5-16.2L88.8,29.4z
		"/>
	<path fill="#FFFFFF" d="M37.8,74.7c-13.1,11,6.6,14,16.6,10.7c5.7-1.9,11.1-2.1,17-0.6c5.6,1.4,10.8,4.1,16.6,4.6
		c7.8,0.7,25-4.9,22.8-16.2c-2-10.2-22.5,1.1-29.2,3c-10.8,3-25.5,1-36.3-1.3c-1.3-0.3-2.6-0.6-3.8-0.9L37.8,74.7z"/>
</g>
<g id="Lineart">
	<g>
		<path fill-rule="evenodd" clip-rule="evenodd" d="M71.5,7.7C39.1,7.7,12.7,34,12.7,66.5c0,32.5,26.3,58.8,58.8,58.8
			c32.5,0,58.8-26.3,58.8-58.8C130.3,34,104,7.7,71.5,7.7L71.5,7.7z M83.4,35.6c-0.2,0.1-0.3,0.4-0.3,0.6c-2,2.6-1.2,6-0.5,9.1
			c0.7,2.9,3.6,5.8,6.5,3.2C93,45,88.9,31.2,83.4,35.6L83.4,35.6z M64.1,42.6c0.1-1,0.1-2.3-0.2-3.4c-0.2-1.4-0.8-2.7-2.2-3.4
			c-4.7-2.7-6,5.8-6.2,8.6c-0.1,2.4,1.4,5,4.1,4.9C62.9,49.1,63.9,45.1,64.1,42.6L64.1,42.6z M65.5,92.9c-4.5-0.5-8.2,0.2-12.1,2.6
			c-0.1,0.1,0,0.3,0.1,0.2c4.3-0.8,8.7-0.5,13,0.2c2.8,0.4,5.2,1.4,8,0.6c0.3-0.1,0.5-0.4,0.3-0.7C73.1,93.2,68.3,93.3,65.5,92.9
			L65.5,92.9z M119.4,61.6c-2.6-3-6.3-5.1-10.1-3.1c-0.1,0,0,0.2,0,0.2c3.8,0,6.5,2.1,8.2,5.4c1.6,3,1.1,6.3,2.4,9.4
			c0.1,0.2,0.4,0.2,0.6,0.1C124.1,70.6,121.9,64.5,119.4,61.6L119.4,61.6z M107.1,67.2c-2.9-0.5-6.1,0.9-8.7,2
			c-4.2,1.7-8.4,2.7-12.3,5.1c0,0,0,0.1,0,0.1c4.9-1.4,9.9-2.3,14.8-3.7c2.2-0.6,4.7-1.2,6.8-0.2c3.4,1.6,1,6.6-0.1,8.7
			c-4.8,9.4-16.4,9.2-25.4,7.5c-1.1-0.6-2.4-0.9-3.8-1.2c-4-0.8-8.1-1.5-12.2-2.1c-5.4-0.9-11.6,0.3-17.1,2
			c-2.1-0.1-4.3,0.5-6.4,0.6c-3.4,0.1-5.4-1-7.6-3.4c-0.1-0.1-0.2,0-0.2,0.1c0.1,5.7,10.4,5.8,14.5,3.7c4.9-0.7,9.9-1.5,14.8-1.4
			c5.5,0.1,10.4,1.2,15.4,2.7c3.9,3.5,11.3,3.4,16,2c5.6-1.7,12.5-5.8,15.6-10.8C113.9,74.6,112.4,68.2,107.1,67.2L107.1,67.2z
			 M46.4,75.4c-0.1,0-0.1,0.1,0,0.1c5.7,2.4,12.5,2.9,18.6,3.1c5.4,0.2,13.1-0.4,17.7-3.5c0.2-0.1,0.1-0.3-0.1-0.3
			C76.7,75.6,71,76.7,65,76.6C58.8,76.6,52.6,74.7,46.4,75.4L46.4,75.4z M38.2,75.9c2.4-0.5,4.9,0.5,7.3,0.2c0.1,0,0.2-0.1,0.2-0.3
			c-3.3-5.7-16.6-1.4-11.8,5.7c0,0.1,0.1,0,0.1,0C34.1,78.5,35.1,76.5,38.2,75.9L38.2,75.9z M31.3,66c-1,0.1-2,0-2.8,0.6
			c-0.9,0.6-1.7,1.5-2.3,2.4c-1.2,1.6-2.6,4.7-1.5,6.7c1.2,2.1,2.4-1.8,2.5-2.5c0.5-2.5,1.9-5.6,4.2-7C31.5,66.2,31.5,66,31.3,66
			L31.3,66z M74.6,20.8c2.1,0.4,4.6-1.4,6.6-1.9c3.5-0.9,7.6-0.9,9.9,2.3c0.1,0.1,0.3,0,0.2-0.1c-1.1-3.8-4.4-5.5-8.3-5.2
			c-2.5,0.2-8.3,1.4-8.7,4.5C74.3,20.6,74.5,20.8,74.6,20.8L74.6,20.8z M45.3,22.1c3.4-2.6,7.5-3.7,11.8-3.1c1.4,0.2,5.4,3.4,6.2,1
			c0.1-0.4,0-1-0.3-1.3C57.8,14.4,48.4,15.9,45.3,22.1C45.2,22.1,45.2,22.1,45.3,22.1L45.3,22.1z M85.2,27.2c-2-0.1-6.4,0.3-7.4,2.5
			c0,0-0.1,0.1-0.1,0.1c-2.8,4.1-2.4,9.5-1.6,14.2c0.6,3.5,1,8.5,3.4,11.3c2.4,2.8,5,3.9,8.8,3.5c2.6-0.3,6-1.8,5.9-4.7
			c0-0.5-0.7-1-1.2-0.7c-5.3,3.9-12.7,6.5-14.8-2.3c-0.8-3.2,0-7.2,0-10.5c0-3.4,0.4-6.6,0.7-10c2-1.3,4.4-1.4,6.8-0.9
			c3,0.7,4,3.1,6,4.7c0.2,1.4,0.6,2.8,0.9,4c0.4,1.8,0.9,3.6,1.4,5.4c0.7,2.8,0.1,5.5,0,8.2c0,0.1,0.1,0.1,0.2,0.1
			c2-3.2,1.8-7.9,1-11.5c-0.5-2.2-0.6-5.2-1.8-7.2C93.1,30,88.3,27.4,85.2,27.2L85.2,27.2z M50.8,57.2c2.3,2.2,4.5,3.5,7.8,3.5
			c1.5,0,3.5-0.5,4.8-1.6c0.1,0,0.2-0.1,0.3-0.2c4.3-3.4,3.2-11.1,3-15.9c0-0.1-0.1-0.1-0.1,0c-0.2,4.1-0.6,11.5-4.2,14.1
			c0,0,0,0,0,0c-1.1,0.5-2.1,1.3-3.4,1.5C56.5,59.2,53,58.4,50.8,57.2C50.8,57,50.7,57.1,50.8,57.2L50.8,57.2z M51.7,30.8
			c-3.3,1.2-4.5,6.7-4.8,9.8c-0.5,5.9,0.2,10.6,2.9,15.8c0,0.1,0.2,0,0.2-0.1c-1.3-3.3-0.7-8.5-0.9-12.1
			C48.9,39.3,49.8,35.4,51.7,30.8C51.8,30.9,51.8,30.8,51.7,30.8L51.7,30.8z M51.5,29.5C51.5,29.5,51.5,29.5,51.5,29.5
			c3.2-1.4,7.3-1.9,10.5-0.2c3.5,1.9,3.5,7.8,4.2,11.2c0,0.1,0.2,0.1,0.3,0c1.3-4.9,1.8-10.4-3.3-13.2C59.4,25,54.8,27.3,51.5,29.5
			L51.5,29.5z M71.8,119.3c-30,0-54.4-24.5-54.4-54.7c0-30.2,24.3-54.7,54.4-54.7c30,0,54.4,24.5,54.4,54.7
			C126.1,94.8,101.8,119.3,71.8,119.3L71.8,119.3z"/>
	</g>
</g>
</svg>
