<?xml version="1.0" encoding="utf-8"?>
<!-- Generator: Adobe Illustrator 17.1.0, SVG Export Plug-In . SVG Version: 6.00 Build 0)  -->
<!DOCTYPE svg PUBLIC "-//W3C//DTD SVG 1.1//EN" "http://www.w3.org/Graphics/SVG/1.1/DTD/svg11.dtd">
<svg version="1.1" xmlns="http://www.w3.org/2000/svg" xmlns:xlink="http://www.w3.org/1999/xlink" x="0px" y="0px"
	 viewBox="0 0 143 134" enable-background="new 0 0 143 134" xml:space="preserve">
<g id="Colors">
	<linearGradient id="SVGID_1_" gradientUnits="userSpaceOnUse" x1="98.8551" y1="116.5003" x2="44.1565" y2="12.0436">
		<stop  offset="0" style="stop-color:#FAA61A"/>
		<stop  offset="0.6011" style="stop-color:#FFF450"/>
		<stop  offset="1" style="stop-color:#FFFFFF"/>
	</linearGradient>
	<circle fill="url(#SVGID_1_)" cx="72.4" cy="66" r="57"/>
	<linearGradient id="SVGID_2_" gradientUnits="userSpaceOnUse" x1="111.3496" y1="129.6865" x2="60.4533" y2="42.8306">
		<stop  offset="0" style="stop-color:#F26722"/>
		<stop  offset="1" style="stop-color:#FFF450"/>
		<stop  offset="1" style="stop-color:#FFFFFF"/>
	</linearGradient>
	<path fill="url(#SVGID_2_)" d="M110,24.2c5.4,7.1,9,14.7,10.8,23.4c2.5,12.5,1.8,26.3-4.5,37.7c-6.4,11.6-18.1,19.2-30.8,22.6
		c-12.6,3.3-26.3,2.9-38.5-1.5c-9.3-3.3-17-9-23.5-16.3c-0.6-0.7-1.3-1.5-1.9-2.2c3.4,5.8,6.8,11.6,11.2,16.8
		c4.2,5,9.4,9.2,15.3,12.1c6.1,3,12.9,4.6,19.6,5.1c6.9,0.5,13.9-0.1,20.6-1.7c6.3-1.6,12.4-4.2,17.8-7.9c5.2-3.6,9.7-8.3,13.2-13.5
		c3.7-5.5,6.4-11.5,8.3-17.8c1.8-6.1,2.9-12.6,2.8-19c-0.1-5.8-1.2-11.5-3.5-16.8c-2.1-5-5.2-9.4-8.5-13.6c-0.8-1-1.6-2-2.4-3
		L110,24.2z"/>
	<path fill="#FFFFFF" d="M51.5,24.3c-12.7-2.8-16.3,14.6-17,24.4c-0.4,6.3,3.2,12.6,10.3,10.5c6.2-1.8,8-8.2,9.4-13.7
		c1.8-6.9,2.7-12.6-1.2-18.9L51.5,24.3z"/>
	<path fill="#FFFFFF" d="M98.7,26.5c-11.8,4.4-5.6,24.3,1.3,30.9c4.2,4,11,5,14.4-0.7c3.2-5.4,0.8-12.5-1.2-17.9
		c-2.4-6.7-5.8-10.2-12.6-12.4H98.7z"/>
	<path fill="#333333" d="M39.1,91.5c1.7-14.1,15.3-18.3,27.3-20.8c12.2-2.5,25.5-3.7,33.2,8c3.6,5.4,5.2,11.6,6.7,17.9
		c-2.8,3-9.5,3-13.2,3.2c-4.8,0.2-9.3,1-14.1,1c-9.1,0-17.7-1.8-26.4-4.1c-2.8-0.7-10.2-1.9-11.7-3.9L39.1,91.5z"/>
</g>
<g id="Lineart">
	<g>
		<path fill-rule="evenodd" clip-rule="evenodd" d="M72.2,8.1c-32.5,0-58.8,26.3-58.8,58.8c0,32.5,26.3,58.8,58.8,58.8
			c32.5,0,58.8-26.3,58.8-58.8C131,34.4,104.6,8.1,72.2,8.1L72.2,8.1z M108.8,52.3c2.1,0.4,3.8-0.8,4.9-2.4c1.6-2.4,0.5-5.5-0.6-7.8
			c-0.3-2.7-1.3-5.2-2.9-7.5c-0.3-0.4-0.6-0.8-1-1c0,0,0,0,0,0c-0.8-1.3-2.2-1.7-3.6-1c-2.4,1.2-3.6,3.1-3.8,5.8
			c-0.3,3.1,1,6.3,2.1,9.2C104.8,49.7,106.2,51.9,108.8,52.3L108.8,52.3z M113.3,37.5c-1.7-3.8-4.2-8.6-8.1-10.5
			c-3-1.5-13.7-2.2-12.5,3.7c0,0,0.1,0.1,0.1,0c3.3-3.6,8.9-3.1,13-0.8c5.3,3.1,8.4,10.8,9.7,16.5c1,4.4,0.4,10.2-4.5,12
			c-3.8,1.5-7.3,0.5-10.3-2c-6.1-5.2-7.3-14.1-7.5-21.5c0-0.5-0.7-0.6-0.9-0.1c-1.3,5.2,0.6,10.7,2.3,15.6c1.6,4.5,3,8.2,7.3,10.7
			c8.4,4.9,14.5-3.4,15-11C117.3,45.8,115,41.3,113.3,37.5L113.3,37.5z M83.5,28.3c1.4-1,1.7-3.3,2.4-4.8c0.8-2,2.3-4.8,4.5-5.3
			c0.2,0,0.1-0.4,0-0.3c-2.4,0.2-4.1,1.2-5.6,3c-1.3,1.5-3.7,4.8-2.9,6.9C82.1,28.3,82.9,28.8,83.5,28.3L83.5,28.3z M57.7,18.3
			c1.6,0.6,2.9,2.9,3.6,4.4c1,1.8,1.2,3.6,1.6,5.5c0.3,1.3,2.1,0.9,2.2-0.3c0.3-4.2-3.2-9.2-7.4-9.8C57.6,18.1,57.6,18.3,57.7,18.3
			L57.7,18.3z M38.4,36.6c-1.8,2.2-2.5,6.5-2,9c-0.1,1.3,0.1,2.7,0.9,3.7c3.3,4.5,8.3-1.1,9.6-4.2c1.3-3.2,2.5-9.3-1.4-11.4
			C42.5,32.1,39.6,33.7,38.4,36.6L38.4,36.6z M52.4,51.5C52.4,51.4,52.4,51.4,52.4,51.5c-1.1,1.2-0.8,0.8-1.6,2.2
			c-1.6,3.1-4.8,4-7.9,4.1c-5.4,0.1-7-5.7-7.1-9.9c-0.2-8.1,2.6-14,6.6-20.8c0.2-0.4-0.3-0.8-0.6-0.5c-4.3,3.7-5.8,9.5-7,14.8
			c-1.1,5-3,9.5-0.6,14.4C38.4,64.2,51.9,60.1,52.4,51.5L52.4,51.5z M43.8,24.9c7.4-3.2,10.1,4,10.9,9.8c0.7,5-0.9,9.5-1.7,14.4
			c-0.1,0.8,0.9,1,1.1,0.3c2.8-7.4,5.1-16.1,0.5-23.2c-2.4-3.7-8.2-5.5-11.1-1.7C43.4,24.8,43.6,25,43.8,24.9L43.8,24.9z
			 M112.3,82.2c-0.2-0.1-0.4,0.1-0.3,0.3c0.4,1.9,1.6,3.6,2,5.5c0.5,2.2-0.1,4.3-0.1,6.5c0,0.7,1,1,1.4,0.4
			C116.8,91.8,115.8,83.7,112.3,82.2L112.3,82.2z M33.5,79.8c-1.8,1.8-3.3,3-4.3,5.5c-0.8,1.9-1.4,4.5,0.2,6.2
			c0.2,0.3,0.6,0.4,1,0.3c0.4-0.1,0.7-0.4,0.7-0.9c0-0.5-0.4-1.1-0.5-1.5c-0.3-0.8-0.1-1.7,0.1-2.4c0.3-1.4,1-2.7,1.6-4
			C32.7,81.8,33,80.7,33.5,79.8C33.7,79.8,33.6,79.7,33.5,79.8L33.5,79.8z M108.8,95.4c0-0.1-0.1-0.2-0.1-0.3c0-0.2,0-0.4,0-0.6
			c-1.5-7.7-6.3-16.8-12.6-21.6c-6.3-4.8-14.6-5.3-22.2-4.5c-8.8,0.9-17.5,3.3-25.3,7.4c-4.9,2.5-12.2,9.1-11,15.2
			c0,0.2,0.1,0.3,0.2,0.4c-0.1,0.3-0.1,0.7,0.2,1c2.8,4,7.8,5.7,12.4,6.7c6.6,1.3,13.7,1.9,20.4,2.6c7.1,0.8,14.2-0.2,21.2-0.7
			c5.3-0.4,11.5,0,16-3.3c0.7-0.5,1-1.2,0.8-2.1C108.8,95.5,108.8,95.5,108.8,95.4L108.8,95.4z M88.5,99.1
			c-5.3,0.6-10.5,0.7-15.9,0.6c-5.8-0.1-12.4-1.2-17.8-3.1c-5.3-1.8-10.5-2.9-15.1-6.2c-0.2-0.1-0.3-0.2-0.5-0.2
			c0.7-5.3,9.7-10.8,13.5-13.3c5.6-3.7,13.4-5.5,20-6.6c6.8-1.2,14.1-0.6,20.2,2.8c7.1,4,11.6,14.2,11.6,21.9c0,0.5,0.1,0.9,0.4,1.2
			C103,97.6,89.5,99,88.5,99.1L88.5,99.1z M72.5,119.7c-30,0-54.4-24.5-54.4-54.7c0-30.2,24.3-54.7,54.4-54.7
			c30,0,54.4,24.5,54.4,54.7C126.8,95.2,102.5,119.7,72.5,119.7L72.5,119.7z"/>
	</g>
</g>
</svg>
