<?xml version="1.0" encoding="utf-8"?>
<!-- Generator: Adobe Illustrator 17.1.0, SVG Export Plug-In . SVG Version: 6.00 Build 0)  -->
<!DOCTYPE svg PUBLIC "-//W3C//DTD SVG 1.1//EN" "http://www.w3.org/Graphics/SVG/1.1/DTD/svg11.dtd">
<svg version="1.1" xmlns="http://www.w3.org/2000/svg" xmlns:xlink="http://www.w3.org/1999/xlink" x="0px" y="0px"
	 viewBox="0 0 143 134" enable-background="new 0 0 143 134" xml:space="preserve">
<g id="Colors">
	<linearGradient id="SVGID_1_" gradientUnits="userSpaceOnUse" x1="98.7394" y1="117.5133" x2="44.0414" y2="13.0575">
		<stop  offset="0" style="stop-color:#FAA61A"/>
		<stop  offset="0.6011" style="stop-color:#FFF450"/>
		<stop  offset="1" style="stop-color:#FFFFFF"/>
	</linearGradient>
	<circle fill="url(#SVGID_1_)" cx="72.3" cy="67" r="57"/>
	<linearGradient id="SVGID_2_" gradientUnits="userSpaceOnUse" x1="111.234" y1="130.6994" x2="60.3378" y2="43.8436">
		<stop  offset="0" style="stop-color:#F26722"/>
		<stop  offset="1" style="stop-color:#FFF450"/>
		<stop  offset="1" style="stop-color:#FFFFFF"/>
	</linearGradient>
	<path fill="url(#SVGID_2_)" d="M109.9,25.2c5.4,7.1,9,14.7,10.8,23.4c2.5,12.5,1.8,26.3-4.5,37.7c-6.4,11.6-18.1,19.2-30.8,22.6
		c-12.6,3.3-26.3,2.9-38.5-1.5c-9.3-3.3-17-9-23.5-16.3c-0.6-0.7-1.3-1.5-1.9-2.2c3.4,5.8,6.8,11.6,11.2,16.8
		c4.2,5,9.4,9.2,15.3,12.1c6.1,3,12.9,4.6,19.6,5.1c6.9,0.5,13.9-0.1,20.6-1.7c6.3-1.6,12.4-4.2,17.8-7.9c5.2-3.6,9.7-8.3,13.2-13.5
		c3.7-5.5,6.4-11.5,8.3-17.8c1.8-6.1,2.9-12.6,2.8-19c-0.1-5.8-1.2-11.5-3.5-16.8c-2.1-5-5.2-9.4-8.5-13.6c-0.8-1-1.6-2-2.4-3
		L109.9,25.2z"/>
	<path fill="#FFFFFF" d="M54.5,57.3c-5.6-6-10.7-21.8-3-28.1c4.1-3.4,10.7-2.9,14,1.3c3.1,4,3,11.7,2.9,16.5
		c-0.1,7.8-6.1,6.8-11.7,9.6L54.5,57.3z"/>
	<path fill="#FFFFFF" d="M82,49.3c-5-5.7-10.4-16.9-6.1-24.5C81.7,14.7,90,28.2,92,33.5c1.8,4.8,2.8,9.4,3,14.6
		c-3.2-0.9-7.7,0.2-10.7,1.3H82z"/>
	<path fill="#333333" d="M41.4,84.9c4.9,0.6,8.5-2.5,12.5-5c3.8-2.4,8-4.6,11.9-6.8c9.2-5.2,18.1-7.9,28.8-7.4
		c3.1,0.2,6.1,0.2,9.1,0.5c2.9,0.2,6.4-1.1,9-0.3c-4.6,5-7.5,10.2-9.1,16.8c-1.5,5.9-2.2,12.4-7.3,16.4c-9.9,7.8-26.8,8.5-35.6-0.8
		c-4.4-4.7-8-8.9-13.9-11.9L41.4,84.9z"/>
	<path fill="#FFFFFF" d="M42.7,84.5c3.7,0.2,10.3-3.3,13.5-5.2c4-2.2,7.4-5.5,11.3-7.9c8.5-5.3,19.1-6.2,29-5.6
		c5.7,0.3,11.2-1.1,16.9-0.9c-2.9,2.4-6.1,5.1-7.6,8.8c-17,1.2-34,4-49.3,12.5c-1,0.6-4.1,3.5-5.2,3.4c-2-0.1-2.7-3.8-5.4-3.9
		L42.7,84.5z"/>
</g>
<g id="Lineart">
	<g>
		<path fill-rule="evenodd" clip-rule="evenodd" d="M72.5,8.4c-32.5,0-58.8,26.3-58.8,58.8c0,32.5,26.3,58.8,58.8,58.8
			c32.5,0,58.8-26.3,58.8-58.8C131.3,34.7,105,8.4,72.5,8.4L72.5,8.4z M85,30c-1.8-1.2-4.8-0.5-4.8,1.6c-0.6,0.8-0.9,1.8-1,2.8
			c-0.3,3.1,0.4,7.1,2.5,9.6c1.7,2.1,4.4,2.4,6,0.1c1.3-1.9,1-5.2,0.8-7.3C88.1,34,87.3,31.5,85,30L85,30z M80.7,49.8
			c-0.2,0.3-0.4,0.6-0.5,0.9c0,0.1,0,0.1,0.1,0.2c2.2,0.3,4.5-1,6.7-1.2c2.9-0.2,6.5-0.6,9.4-0.1c0.5,0.1,1.1-0.6,0.6-1
			c-0.4-0.4-0.9-0.6-1.3-0.9c0.1-0.1,0.1-0.2,0.2-0.4c0.8-5.1-0.8-9.6-2.6-14.3c-1-2.6-1.9-6.4-5-7.3c0,0-0.1,0,0,0.1
			c5,5.3,5.4,14.4,5.5,21.2c0,0,0,0,0,0C91.9,46.6,90,46.9,88,47c-1.6,0.1-3.9,0.4-5.6,1.3C78.4,43,74.8,34.8,75,28.1c0,0,0,0-0.1,0
			c-1.8,4.4-0.1,8.9,1.1,13.3C76.9,44.3,78.2,47.8,80.7,49.8L80.7,49.8z M74.4,27c1.6-2.3,3.5-4.2,6.5-4.4c1.4-0.1,2.8,0.3,4.1,0.9
			c0.8,0.4,1.3,1.1,2.1,1.4c0.2,0.1,0.5-0.1,0.5-0.4c-0.2-2.9-4.5-3.5-6.7-3.4c-3.4,0.1-5.8,2.6-6.7,5.7C74.2,27,74.4,27,74.4,27
			L74.4,27z M57,33.8c-2.1,0.3-3.1,2.7-3.4,4.5c-0.3,1.6-0.4,4.1,0,6.3c0.1,1.3,0.6,2.8,1.7,3.6c0.6,0.6,1.3,1,2.1,1.1
			c4.9,0.8,5.3-5.2,4.7-9.1c-0.1-1.7-0.4-3.3-1.1-4.7C60.3,34,58.6,33.6,57,33.8L57,33.8z M53,57.8c-0.7,0.6-1.4,1.3-2,2.2
			c-0.1,0.1,0.1,0.3,0.2,0.2c2.6-1.8,6.6-2.8,9.6-3.6c2.5-0.7,6.3-0.3,8.1-2.4c0.2-0.2,0.2-0.5-0.1-0.7c-0.1-0.1-0.2-0.1-0.2-0.1
			c0-0.1,0-0.3,0-0.4c0,0.1-0.1-0.8-0.2-0.6c0-0.4,0-0.8,0-1.1c0-0.7,0.2-1.6-0.3-2.3c-0.2-0.3-0.6-0.3-0.8,0
			c-0.4,0.6-0.5,1.4-0.7,2.1c-0.2,0.6-0.4,1.2-0.5,1.8c-2.4,0-5.2,1.3-7.1,1.9c-1.5,0.4-2.7,1-3.9,1.6c-0.1-0.1-0.1-0.3-0.3-0.4
			c-5-5-5.9-10.9-6.5-17.8c0-0.1-0.1-0.1-0.1,0c-2.4,3.4-0.8,9.2,0.2,13C49.1,52.9,50.7,57,53,57.8L53,57.8z M48.2,36.8
			c1.3-6.9,7.6-12,14.4-7.8c5.5,3.4,5.2,12.6,5,18.1c0,0.5,0.6,0.5,0.8,0.1c2.2-6.3,0.7-18-6.7-20.6C54.8,24.2,47,29.1,48.2,36.8
			C48.2,36.9,48.2,36.9,48.2,36.8L48.2,36.8z M98.4,104c-3.2,0.9-5.8,3.6-9.1,4.8c-2.2,0.8-4.4,1.3-6.8,1.5
			c-2.4,0.2-4.4-0.4-6.8,0.2c-0.2,0-0.2,0.3,0,0.4c5.1,1.3,9.2,1.8,14.3,0.5c3.3-0.9,8.5-2.9,9.2-6.7
			C99.2,104.3,98.9,103.8,98.4,104L98.4,104z M121.8,45.1c-1.2-1-2.8-1.4-4.3-1.5c-2.2-0.1-6.5,1.3-4.8,4.2c0.1,0.2,0.4,0.2,0.5,0
			c0.9-1.5,2.7-1.8,4.3-1.7c0.9,0.1,1.7,0.4,2.5,0.9c0.6,0.4,0.8,1.1,1.5,1.4c0.4,0.2,0.8,0.2,1.1-0.1
			C123.5,47.3,122.8,45.9,121.8,45.1L121.8,45.1z M30.3,69c0.9,0.2,1.9-0.6,1.6-1.6c-1.2-3.4-6.1-2.3-8.2-0.7
			c-1.3,1-2.2,2.3-2.8,3.9c-0.6,1.6,0,2.7,0.8,4.1c0.1,0.3,0.5,0.1,0.5-0.2c-0.2-0.9,0.4-2.2,0.8-3c0.5-1,1.1-1.8,1.9-2.5
			c0.8-0.7,1.8-1.1,2.9-1.1C28.7,67.9,29.4,68.8,30.3,69L30.3,69z M119.1,55.8c0.1,3.4-1.5,5.6-4,6.9c-0.2,0.1-0.4,0.2-0.6,0.3
			c-5.9,2.8-16.1,1.5-21,1.9c-7.8,0.7-14.9,0.7-22.2,4.1c-6.6,3.1-12.3,8-18.8,11.4c-4,2.1-8.3,3-12.8,2.7
			c-3.9-0.2-11.4-2.3-11.3-7.3c0-0.1,0-0.3-0.1-0.4c0,0,0-0.1,0-0.1c-0.3-0.6-1.3-0.4-1.4,0.2c-1.6,6.6,5.6,11,11.4,11.3
			c1.7,0.1,3.3,0,4.8-0.3c9.1,2.1,12.9,11.9,20.3,17c7,4.9,19,3.5,26.4,0.3c9-3.8,13.4-10.5,15.4-19.9c1.2-5.7,2.2-10.8,6.5-15.1
			c2.4-2.3,4.9-3.4,6.8-5.6c2.2-1.6,3.7-4,3.8-7.5C122.4,53.7,119.1,53.7,119.1,55.8L119.1,55.8z M105.3,72.3
			C105.3,72.3,105.3,72.3,105.3,72.3c-16.9,1.2-33,6.1-48,13.4c0,0,0,0.1,0,0.1C72,79.9,88.6,74.9,104.5,75c-1,4.2-1.1,8.7-2.1,12.9
			c-1.8,7.1-7.2,11.1-13.7,13.4c-4.7,1.7-9.7,2.2-14.7,2.1c-6.6-0.2-11.1-3.6-15.1-8.5c-3.3-4.1-6.7-7.9-11-9.7
			c6.3-2.3,11.8-6.7,17.3-10.5c11-7.5,24.5-9.2,37.6-8.4c2,0.1,4.3,0.2,6.5-0.1C107.6,68.1,106.2,70,105.3,72.3L105.3,72.3z
			 M72.8,120c-30,0-54.4-24.5-54.4-54.7c0-30.2,24.3-54.7,54.4-54.7s54.4,24.5,54.4,54.7C127.1,95.5,102.8,120,72.8,120L72.8,120z"
			/>
	</g>
</g>
</svg>
