<?xml version="1.0" encoding="utf-8"?>
<!-- Generator: Adobe Illustrator 18.0.0, SVG Export Plug-In . SVG Version: 6.00 Build 0)  -->
<!DOCTYPE svg PUBLIC "-//W3C//DTD SVG 1.1//EN" "http://www.w3.org/Graphics/SVG/1.1/DTD/svg11.dtd">
<svg version="1.1" xmlns="http://www.w3.org/2000/svg" xmlns:xlink="http://www.w3.org/1999/xlink" x="0px" y="0px"
	 viewBox="0 0 174 162.4" enable-background="new 0 0 174 162.4" xml:space="preserve">
<g id="Colors">
	
		<linearGradient id="SVGID_1_" gradientUnits="userSpaceOnUse" x1="143.8763" y1="51.2778" x2="79.6267" y2="-71.4184" gradientTransform="matrix(0.9828 0.1845 -0.1845 0.9828 -25.0739 72.5361)">
		<stop  offset="0" style="stop-color:#72B3E2"/>
		<stop  offset="0.6011" style="stop-color:#BFE7FB"/>
		<stop  offset="1" style="stop-color:#FFFFFF"/>
	</linearGradient>
	<circle fill="url(#SVGID_1_)" cx="87.3" cy="85.5" r="66.9"/>
	
		<linearGradient id="SVGID_2_" gradientUnits="userSpaceOnUse" x1="158.5523" y1="66.7663" x2="98.7694" y2="-35.2548" gradientTransform="matrix(0.9828 0.1845 -0.1845 0.9828 -25.0739 72.5361)">
		<stop  offset="0" style="stop-color:#2E8DCC"/>
		<stop  offset="1" style="stop-color:#A4CDEE"/>
	</linearGradient>
	<path fill="url(#SVGID_2_)" d="M139.7,45.3c4.7,9.3,7.2,18.9,7.4,29.4c0.2,15-3.7,30.7-13.4,42.5c-9.9,12-25,17.9-40.5,19.4
		c-20.7,1.9-31-2.4-44.2-10.1c-10.1-5.9-17.7-14.1-23.6-23.9c-0.6-1-1.2-2-1.7-3c2.7,7.4,5.3,14.9,9.3,21.8
		c3.8,6.7,8.8,12.6,15,17.3c6.4,4.8,13.8,8.1,21.6,10.2c7.8,2.1,16.1,2.9,24.1,2.5c7.6-0.4,15.2-2.1,22.2-5.2
		c6.8-3.1,12.9-7.5,18.1-12.7c5.4-5.5,9.9-11.9,13.4-18.7c3.5-6.7,6-13.9,7.3-21.3c1.1-6.7,1.1-13.5-0.4-20.1
		c-1.4-6.2-3.9-12-6.8-17.6c-0.7-1.3-1.4-2.7-2.1-4L139.7,45.3z"/>
	<linearGradient id="SVGID_3_" gradientUnits="userSpaceOnUse" x1="18.8851" y1="83.121" x2="18.1507" y2="-5.4103">
		<stop  offset="0" style="stop-color:#72B3E2"/>
		<stop  offset="0.5165" style="stop-color:#FFFFFF"/>
	</linearGradient>
	<path fill="url(#SVGID_3_)" d="M36.1,44.2C26.5,24.9-0.3,49.4,1.3,64.1c0.7,6.6,6.5,5.9,9.1,0.9c1.4,3.7,5.5,1.7,7.6-0.1
		c5.6,8,13.1-12.4,15.4-15.2c-0.2,0.2-0.4,0.5-0.6,0.8L36.1,44.2z"/>
	<linearGradient id="SVGID_4_" gradientUnits="userSpaceOnUse" x1="159.601" y1="95.144" x2="148.9477" y2="-4.0407">
		<stop  offset="0" style="stop-color:#72B3E2"/>
		<stop  offset="0.5165" style="stop-color:#FFFFFF"/>
	</linearGradient>
	<path fill="url(#SVGID_4_)" d="M138.9,44.2c11.3-21.3,33.2,11,32.8,24c-0.2,6.5-5.8,8.8-9.4,2.9c-2.4,2.1-5.7-0.2-6.9-2.6
		c-8.3,5.4-8.5-16.3-14.7-17.8L138.9,44.2z"/>
	<path fill="#FFFFFF" d="M75.4,42.4C65,38.8,60.9,51.2,61.8,59.6c1.1,10.1,12.7,11.2,15.6,1.5c1.4-4.8,1.3-10.3,0.2-15.1L75.4,42.4z
		"/>
	<path fill="#FFFFFF" d="M100.4,41.6c-10.8,0-11.6,11.9-8.4,20.1c1.5,4,4.4,7.4,9.1,6.6c5.4-0.9,6.2-6.1,6.4-10.7
		c0.2-5.4,0-10.2-4.4-13.8L100.4,41.6z"/>
</g>
<g id="Lineart">
	<g>
		<path fill-rule="evenodd" clip-rule="evenodd" d="M87.3-138.1c-38.1,0-69,30.9-69,69s30.9,69,69,69c38.1,0,69-30.9,69-69
			C156.4-107.2,125.5-138.1,87.3-138.1z M86-7.9c-34.4,0-62.2-28-62.2-62.6c0-34.6,27.9-62.6,62.2-62.6c34.4,0,62.2,28,62.2,62.6
			C148.3-35.9,120.4-7.9,86-7.9z"/>
	</g>
	<g>
		<path fill-rule="evenodd" clip-rule="evenodd" d="M242.6-138.1c-38.1,0-69,30.9-69,69s30.9,69,69,69c38.1,0,69-30.9,69-69
			C311.6-107.2,280.7-138.1,242.6-138.1z M241.3-7.9c-34.4,0-62.2-28-62.2-62.6c0-34.6,27.9-62.6,62.2-62.6
			c34.4,0,62.2,28,62.2,62.6C303.5-35.9,275.6-7.9,241.3-7.9z"/>
	</g>
	<g>
		<path fill-rule="evenodd" clip-rule="evenodd" d="M-67.9-138.1c-38.1,0-69,30.9-69,69s30.9,69,69,69c38.1,0,69-30.9,69-69
			C1.1-107.2-29.8-138.1-67.9-138.1z M-69.2-7.9c-34.4,0-62.2-28-62.2-62.6c0-34.6,27.9-62.6,62.2-62.6c34.4,0,62.2,28,62.2,62.6
			C-7-35.9-34.8-7.9-69.2-7.9z"/>
	</g>
	<g>
		<path fill-rule="evenodd" clip-rule="evenodd" d="M87.3,17.2c-38.1,0-69,30.9-69,69c0,38.1,30.9,69,69,69c38.1,0,69-30.9,69-69
			C156.4,48.1,125.5,17.2,87.3,17.2z M86,147.3c-34.4,0-62.2-28-62.2-62.6c0-34.6,27.9-62.6,62.2-62.6c34.4,0,62.2,28,62.2,62.6
			C148.3,119.3,120.4,147.3,86,147.3z"/>
		<g>
			<path d="M146.5,33.5c2.9-5.5,0.5-10.6-4.4-14c-6.8-4.8-14.9-6.8-23-8.2C109,9.5,98.7,8.5,88.5,8.4C79,8.3,69.4,9.1,59.9,10.1
				c-7.7,0.8-15.4,2.5-22,6.7c-3.7,2.3-9,7.5-6.9,12.5c1.9,4.4,9.6,8.9,14.1,6c0.3-0.2,0.2-0.6-0.2-0.6c-6.6,0.1-15.4-5.2-9.8-12.2
				c3.8-4.7,10.5-6.8,16.1-8.1c11.9-2.8,25.1-3,37.2-2.9c13.2,0,27.1,2.1,39.8,6c5.1,1.6,10.8,4.1,13.9,8.7
				c4.6,6.6-7.5,9.2-11.6,9.1c-2.5-0.1-3.1,4.1-0.6,4.4C135.4,40.3,143.6,39,146.5,33.5z"/>
			<path d="M114,84.3c-4.9-2.1-10.8,5.1-12.7,8.8c-1.9,3.9-3.1,8.8-3.9,13.1c-1.1,5.8-2.6,12.6-9.1,14.4
				c-10.7,3-11.7-17.9-14.2-23.8c-3.1-7.5-10-12.1-17.9-9.2c-0.2,0.1-0.2,0.3,0,0.3c6,1.6,10.1,3.4,13.2,9.1
				c2.3,4.2,2.8,9.5,3.9,14.1c1.6,6.8,5.9,12.8,13.3,13.4c7.8,0.6,12.1-8.1,13.8-14.3c1.3-4.9,2.9-9.8,4-14.8
				c1.2-5.5,3.6-9.2,9.4-10.2C114.4,85.3,114.5,84.5,114,84.3z"/>
			<path d="M120,81.2c-1.3-0.9-2.7-0.8-4.2-1c-0.1,0-0.1,0.1-0.1,0.1c2.5,2.4,4.1,5.6,2,8.9c-1.2,1.9-2,5.2,1.6,3.9
				c3.1-1.2,3.8-5.6,3.1-8.4C122.2,83.4,121.2,82,120,81.2z"/>
			<path d="M51.3,89.3c-0.1-1.6,1.3-6.1,3-6.7c0.1,0,0.2-0.3,0-0.3c-1.5-0.7-2.9-1.2-4.2,0.3c-1.5,1.8-2.7,3.8-3.1,6.1
				c-0.6,3.6,2.9,10,7.3,8.2c1.1-0.4,1.7-1.6,1.1-2.7C54.2,92.1,51.4,92.1,51.3,89.3z"/>
			<path d="M64.8,34.1c-5.1,3.2-6.4,7.7-7.7,13.2c-0.1,0.3,0.3,0.4,0.4,0.2c2.1-3.6,6-7.5,9.4-9.7c3.5-2.2,8.3-1.3,11.4-3.7
				c0.3-0.3,0.4-0.7,0.1-1C75.1,29.3,68.3,31.9,64.8,34.1z"/>
			<path d="M105.7,38.5c1.7,1.8,3,4.1,4.1,6.3c0.7,1.5,1.6,3.6,3.1,4.5c0.2,0.1,0.5,0.1,0.7-0.1c3.8-3.9-2.8-11.8-5.5-14.4
				c-2.1-2-12.2-7.6-13.4-2c0,0,0,0.1,0,0.1c1.4,1,3.4,0.6,5,1C102.1,34.6,104.1,36.7,105.7,38.5z"/>
			<path d="M71.1,41c-7.4-0.4-10.8,11.2-10.7,17c0.2,7.7,9.3,16.3,15,10.2c5.9-3.8,5-13.6,4-19.6C78.6,43.8,75.3,39,71.1,41z M75,66
				c-7.9,3.2-10.6-3.7-10.1-11c0.3-5.4,2.7-9.8,7-12.6c4.2,0.4,5.1,5.7,5.5,10.1C77.8,57.7,77,61.6,75,66z"/>
			<path d="M89.4,57.3c0.5,3.7,1.7,7.5,4.4,10.3c1.4,1.5,3.7,2.7,5.6,2.5c1.7,0.2,3.6-0.4,5.4-1.6c3.9-2.7,4.9-8.1,5-12.5
				c0.2-4.7-1.2-9.8-4.7-13.1c-2.7-2.4-6.6-3.9-9.4-2C89.7,42.2,88.7,52.8,89.4,57.3z M104.2,47.3c1.3,2.2,1.6,5.1,1.7,7.5
				c0.2,2.8-0.3,5.6-1.4,8.2c-1.1,2.6-2.8,3.6-4.8,3.7c-2-0.6-4-0.9-5.5-3c-1.6-2.3-2.3-5.2-2.6-8C91,50,93,46,96.5,42
				C99.6,41.9,102.7,44.9,104.2,47.3z"/>
			<path d="M96.3,49c0,0-0.1,0.1-0.1,0.1c-0.2,0.2-0.5,0.3-0.7,0.6c-1.3,1.4-1.9,3.7-1.2,5.6c0.4,1.2,1.1,2.1,2.2,2.7
				c1.3,0.8,3,0.6,4.2-0.2c2.1-1.4,2.8-3.9,2.5-6.3c-0.2-1.3-1.2-2.4-2.3-3.1C99.5,47.6,97.6,47.9,96.3,49z"/>
			<path d="M71.6,47.8c-1.3,0.1-2.1,0.6-3.1,1.3c-1.2,0.9-2.1,2.7-1.9,4.2c0.1,1.5,0.8,2.6,2,3.4c0.9,0.6,2.1,0.8,3.1,0.7
				c0.1,0,0.2,0,0.3,0c0.1,0,0.1,0,0.2,0c0,0,0.1,0,0.1,0c0.1,0,0.2,0,0.3-0.1c0.4-0.1,0.8-0.3,1.1-0.5c0.6-0.3,1-0.9,1.4-1.4
				c0.5-0.8,0.7-1.8,0.7-2.7c0-1-0.2-2.2-0.7-3C74.3,48.6,73.1,47.7,71.6,47.8z"/>
			<path d="M101.7,122.1c-4,2.8-6.4,6.9-11.5,8.3c-6.5,1.8-10.7-3.1-16.1-5.4c-0.1,0-0.2,0-0.1,0.1c3.1,6.4,8.1,10.2,15.4,10.1
				c6.4-0.1,13.2-6,13.3-12.6C102.7,122.2,102.1,121.8,101.7,122.1z"/>
			<path d="M56.9,56.9c-1.3,5.6,0.3,14.1,7.1,15.3c0.4,0.1,0.9-0.4,0.6-0.8c-1.4-2.2-3.5-3.8-4.8-6.1c-1.4-2.5-2.1-5.7-2.8-8.4
				C57,56.8,56.9,56.8,56.9,56.9z"/>
			<path d="M113.7,56.6c0.4,2.5-0.6,5.5-1.8,7.7c-1.2,2.3-3.5,3.9-4.5,6.2c-0.1,0.3,0.1,0.7,0.5,0.6c3.1-0.6,5.1-3.8,6.2-6.5
				c1.3-3,0.9-5.2-0.3-8C113.8,56.5,113.7,56.5,113.7,56.6z"/>
			<path d="M29.9,35.2c-4.3-1.2-8.1-0.7-12,1.3c-3.8,2-6.7,5.7-9.2,9c-1.8,2.5-4.2,5.8-5.1,9c-0.3,0.6-0.6,1.3-0.8,2
				c-0.6,1.1-1,2.5-1.3,3.6c-0.7,2.5-0.9,5.3,0.6,7.6c1,1.6,2.9,2.3,4.7,2c0.8,0.1,1.7-0.3,2.5-0.9c0.3-0.2,0.6-0.4,0.8-0.6
				c1.9,2,5.7,0.2,7.5-1.8c0.6,0.6,1.3,1,2.1,1c0.9,0.1,1.8-0.2,2.6-0.6c1-0.4,1.3-1.1,1.7-2.1c0.3-0.7-0.5-1.4-1.2-1.2
				c-0.6,0.1-1,0.1-1.6,0.4c-0.4,0.2-0.8,0.5-1.3,0.5c-0.3,0-0.4-0.2-0.6-0.4c2.8-3.8,5.5-8.8,4.9-13.3c0-0.2-0.2-0.2-0.3,0
				c-1.1,2.9-2.1,5.4-3.8,8c-0.1,0.2-6.6,8.8-7.5,6.7c-0.1-0.2-0.1-0.3-0.2-0.4c0.3-0.5,0.6-1,0.9-1.4c2.7-4.6,3.3-9.5,4.3-14.6
				c0-0.1-0.1-0.1-0.1-0.1c-1.6,3.5-3.3,7.2-5,10.7c-1,2.2-2.3,4.3-4,6c-0.2,0.3-0.5,0.5-0.7,0.7C6.3,67.1,4.9,67,4,65.6
				c-0.7-1.2-0.9-2.6-0.8-4.1c0.5-1.7,1.1-3.5,1.9-5.1C6,54.6,7.2,52.9,7.7,51c0,0,0-0.1,0.1-0.1c2-3.1,4.3-6.1,7-8.6
				c3.1-2.9,7.1-4.2,11.3-3.5c4,0.7,5.6,4.2,9,5.6c1,0.4,2.2-0.6,2.2-1.6C37.2,39.1,33.3,36.1,29.9,35.2z"/>
			<path d="M166.2,47.5c-3.6-5.2-9-11.1-15.6-11.8c-4.2-0.5-9.6,3.2-11.6,6.8c-0.2,0.4-0.2,1,0.2,1.3c0.2,0.2,0.4,0.3,0.6,0.4
				c0.5,0.3,1-0.1,1-0.6c0.1-0.1,0.3-0.4,0.7-0.8c1.1-1.1,2.5-2,3.8-2.9c6-4.2,11.5,2.1,15.1,6.4c3.4,4.1,6,8.7,7.8,13.7
				c1.1,3.1,2.3,8.8,0.7,12.3c-4.1,2.8-5.6-3.6-7-6.8c-2-4.6-3-9.9-6-14c0,0,0,0,0,0c1.8,6.1,2.7,12.6,4.9,18.6
				c-3.5-0.4-5.1-6-6.1-8.8c-1-2.9-1.6-7-3.8-9.3c0,0-0.1,0-0.1,0.1c0.5,2,2,10.4,4.5,16.1c-0.5-0.1-1.1-0.3-1.6-0.5
				c-0.5-0.3-0.9-0.6-1.4-1c-0.2-0.2-0.4-0.3-0.6-0.4c-0.5-0.3-0.2,0.2-0.6-0.7c0-0.1-0.1-0.1-0.2,0c-0.1,0.7-0.5,1.3-0.3,2
				c0.2,0.9,0.6,1.6,1.3,2.3c1.4,1.4,3.3,1.8,5.2,1.9c0.1,0,0.1,0,0.2,0c1.3,1.7,2.9,2.3,4.7,1.3c1.5,3.1,5.7,4.8,7.6,2.9
				c2.1-1,3.4-3.8,3.7-6.4C174.2,61.5,170.8,54,166.2,47.5z M140.8,43.7C140.8,43.8,140.7,43.8,140.8,43.7L140.8,43.7z"/>
		</g>
	</g>
</g>
</svg>
