<?xml version="1.0" encoding="utf-8"?>
<!-- Generator: Adobe Illustrator 17.1.0, SVG Export Plug-In . SVG Version: 6.00 Build 0)  -->
<!DOCTYPE svg PUBLIC "-//W3C//DTD SVG 1.1//EN" "http://www.w3.org/Graphics/SVG/1.1/DTD/svg11.dtd">
<svg version="1.1" xmlns="http://www.w3.org/2000/svg" xmlns:xlink="http://www.w3.org/1999/xlink" x="0px" y="0px"
	 viewBox="0 0 143 134" enable-background="new 0 0 143 134" xml:space="preserve">
<g id="Colors">
	<linearGradient id="SVGID_1_" gradientUnits="userSpaceOnUse" x1="98.9092" y1="118.4527" x2="44.2107" y2="13.996">
		<stop  offset="0" style="stop-color:#FAA61A"/>
		<stop  offset="0.6011" style="stop-color:#FFF450"/>
		<stop  offset="1" style="stop-color:#FFFFFF"/>
	</linearGradient>
	<circle fill="url(#SVGID_1_)" cx="72.5" cy="68" r="57"/>
	<linearGradient id="SVGID_2_" gradientUnits="userSpaceOnUse" x1="111.4034" y1="131.6386" x2="60.5078" y2="44.7839">
		<stop  offset="0" style="stop-color:#F26722"/>
		<stop  offset="1" style="stop-color:#FFF450"/>
		<stop  offset="1" style="stop-color:#FFFFFF"/>
	</linearGradient>
	<path fill="url(#SVGID_2_)" d="M110,26.1c5.4,7.1,9,14.7,10.8,23.4c2.5,12.5,1.8,26.3-4.5,37.7c-6.4,11.6-18.1,19.2-30.8,22.6
		c-12.6,3.3-26.3,2.9-38.5-1.5c-9.3-3.3-17-9-23.5-16.3c-0.6-0.7-1.3-1.5-1.9-2.2c3.4,5.8,6.8,11.6,11.2,16.8
		c4.2,5,9.4,9.2,15.3,12.1c6.1,3,12.9,4.6,19.6,5.1c6.9,0.5,13.9-0.1,20.6-1.7c6.3-1.6,12.4-4.2,17.8-7.9c5.2-3.6,9.7-8.3,13.2-13.5
		c3.7-5.5,6.4-11.5,8.3-17.8c1.8-6.1,2.9-12.6,2.8-19c-0.1-5.8-1.2-11.5-3.5-16.8c-2.1-5-5.2-9.4-8.5-13.6c-0.8-1-1.6-2-2.4-3
		L110,26.1z"/>
	<path fill="#FFFFFF" d="M61.9,22.7c-5.5,0.5-9.7,1.7-12,7C48,34.1,46.4,40.3,47.3,45c1,5.5,6.1,9,11.6,6.7c4.8-2,6.6-7.5,7.9-12.1
		c1.7-6,1.7-11-2.7-15.7L61.9,22.7z"/>
	<path fill="#FFFFFF" d="M77.4,23.6c-6.1,7-3,20.9,4.5,26.3c12.2,8.7,14.9-10.7,11.4-18.4c-2.8-6.1-8-8.1-14.3-8.9L77.4,23.6z"/>
</g>
<g id="Lineart">
	<g>
		<path fill-rule="evenodd" clip-rule="evenodd" d="M72.5,9.4c-32.5,0-58.8,26.3-58.8,58.8c0,32.5,26.3,58.8,58.8,58.8
			c32.5,0,58.8-26.3,58.8-58.8C131.3,35.7,105,9.4,72.5,9.4L72.5,9.4z M97.2,34.4c0.7,2.5,0.9,5.1,0.9,7.7c-0.1,3.4-1.3,5.5-3.1,8.2
			c-0.2,0.3,0.1,0.7,0.4,0.6C101.2,49,98.8,38.3,97.2,34.4C97.2,34.4,97.2,34.4,97.2,34.4L97.2,34.4z M60,53.8
			c0.1-0.1-0.1-0.3-0.2-0.2c-1.3,0.7-2.4,1.7-3.8,2.1c-1.7,0.5-3.4-0.2-4.7-1.1c-2.7-1.8-4.7-5.7-5.1-8.9c0-0.1-0.1-0.1-0.1,0
			c-0.2,4.1,1.2,7.6,4.5,10.2C53.5,58.1,58.4,57.3,60,53.8L60,53.8z M74.9,40c0.6,1.8,1.8,4,3.7,4.7c2,0.7,3.8-0.1,4.6-2
			c1.8-4.3-3.1-17-8.6-11.3c-0.2,0.2-0.3,0.3-0.4,0.5c0-1.9,0.3-3.8,1.6-5.5c3.9-5.4,10.4-1.8,14.7,1c0,0,0.1,0,0.1-0.1
			c-2.3-4.8-10.7-7.3-14.9-3.9c-3.2,2.6-3.3,11.5-1.1,15.1C74.7,39.1,74.8,39.6,74.9,40L74.9,40z M80.2,73.5
			c-3.5,0.3-8.3,3.3-7.9,7.3c0,0.1,0.1,0.1,0.2,0.1c1.3-0.8,2.1-2.1,3.2-3c1.4-1.2,3-1.7,4.8-2C81.9,75.7,81.5,73.4,80.2,73.5
			L80.2,73.5z M93.8,57.1C93.9,57.1,93.8,57,93.8,57.1c-3.4,2.1-5.2,5.8-5.6,9.8c-2.9-2.1-8.1-1.1-11.2-0.3
			c-5.5,1.4-10.5,5.2-14.3,9.4c-1.1-4.6-4.1-8.8-8.5-10.4c-0.1,0-0.2,0.1-0.1,0.2c3.3,3.7,5.2,7.1,5.5,12.1c0.2,4-1.2,8.2-1.6,12.2
			c0,0.2,0.2,0.3,0.4,0.2c4.2-3.1,5.5-8.6,4.5-13.6c3.9-2.4,7.5-5.1,11.8-6.9c4.8-2,8.8-0.5,13.5-0.4c0.2,6.1,3.7,12,10.1,12.8
			c0.1,0,0.2-0.2,0.1-0.3C91.6,76.1,87.6,64.9,93.8,57.1L93.8,57.1z M76.5,43.1C76.4,43,76.3,43.1,76.5,43.1
			c3.6,5.4,6.9,12.7,14.7,8.7c2.9-1.4,3.8-5,4.5-7.8c1.1-4.6-0.1-8.7-2.2-12.9c-0.1-0.2-0.4-0.1-0.3,0.1c2.7,6.5,3.7,12.7-1.4,18.2
			C86.3,55.4,79.5,47.4,76.5,43.1L76.5,43.1z M54.1,53.6c6.1,1.1,11-5.3,12.6-11c1.3-2.1,1.7-5.4,1.1-7.8c0.7-4.9-0.9-12.3-6.5-13.2
			c-4.8-0.7-9.2,3.3-10.8,7.4c0,0,0,0.1,0.1,0c2.4-3.1,6-5.7,10.1-5.1c3.7,0.6,5.2,3.5,6.1,6.7c-0.5-0.7-1.2-1.1-2.2-1.2
			c-2.9-0.4-4.5,2.5-5.1,4.9c-0.7,2.5-0.8,5.7,0.5,8.1c0.9,1.5,2.9,2.8,4.6,2.2c-1.8,3.7-4.1,7.2-8.6,7.6c-3.5,0.3-5.5-3.1-6.7-5.8
			c-1.6-3.9-1.2-8.6-0.5-12.6c0-0.1-0.1-0.1-0.1,0c-1,5.1-2.4,9.4-0.7,14.5C49,51.2,51,53.1,54.1,53.6L54.1,53.6z M72.8,121
			c-30,0-54.4-24.5-54.4-54.7c0-30.2,24.3-54.7,54.4-54.7s54.4,24.5,54.4,54.7C127.1,96.5,102.8,121,72.8,121L72.8,121z"/>
	</g>
</g>
</svg>
