<?xml version="1.0" encoding="utf-8"?>
<!-- Generator: Adobe Illustrator 17.1.0, SVG Export Plug-In . SVG Version: 6.00 Build 0)  -->
<!DOCTYPE svg PUBLIC "-//W3C//DTD SVG 1.1//EN" "http://www.w3.org/Graphics/SVG/1.1/DTD/svg11.dtd">
<svg version="1.1" xmlns="http://www.w3.org/2000/svg" xmlns:xlink="http://www.w3.org/1999/xlink" x="0px" y="0px"
	 viewBox="0 0 143 134" enable-background="new 0 0 143 134" xml:space="preserve">
<g id="Colors">
	<linearGradient id="SVGID_1_" gradientUnits="userSpaceOnUse" x1="99.8292" y1="118.4236" x2="45.1307" y2="13.9668">
		<stop  offset="0" style="stop-color:#FAA61A"/>
		<stop  offset="0.6011" style="stop-color:#FFF450"/>
		<stop  offset="1" style="stop-color:#FFFFFF"/>
	</linearGradient>
	<circle fill="url(#SVGID_1_)" cx="73.4" cy="68" r="57"/>
	<linearGradient id="SVGID_2_" gradientUnits="userSpaceOnUse" x1="112.3243" y1="131.6103" x2="61.4281" y2="44.7545">
		<stop  offset="0" style="stop-color:#F26722"/>
		<stop  offset="1" style="stop-color:#FFF450"/>
		<stop  offset="1" style="stop-color:#FFFFFF"/>
	</linearGradient>
	<path fill="url(#SVGID_2_)" d="M111,26.1c5.4,7.1,9,14.7,10.8,23.4c2.5,12.5,1.8,26.3-4.5,37.7c-6.4,11.6-18.1,19.2-30.8,22.6
		c-12.6,3.3-26.3,2.9-38.5-1.5c-9.3-3.3-17-9-23.5-16.3c-0.6-0.7-1.3-1.5-1.9-2.2c3.4,5.8,6.8,11.6,11.2,16.8
		c4.2,5,9.4,9.2,15.3,12.1c6.1,3,12.9,4.6,19.6,5.1c6.9,0.5,13.9-0.1,20.6-1.7c6.3-1.6,12.4-4.2,17.8-7.9c5.2-3.6,9.7-8.3,13.2-13.5
		c3.7-5.5,6.4-11.5,8.3-17.8c1.8-6.1,2.9-12.6,2.8-19c-0.1-5.8-1.2-11.5-3.5-16.8c-2.1-5-5.2-9.4-8.5-13.6c-0.8-1-1.6-2-2.4-3
		L111,26.1z"/>
	<path fill="#FFFFFF" d="M63,23.9c-5-1.2-7.8-0.1-10.3,4.4c-2,3.6-4.3,8.2-4,12.4c0.9,11,16.3,8.9,18.3-0.6
		c1.1-5.4,0.2-10.6-2.8-15.2L63,23.9z"/>
	<path fill="#FFFFFF" d="M84,21.1c-4.1,2-6.4,5.8-6.4,10.3C77.4,35,78,41.7,80.3,44.6c2.7,3.4,8.6,2.8,11.5-0.1
		c3.2-3.2,2.4-8.4,1.7-12.5c-0.9-5.1-1.9-9.4-7.3-11H84z"/>
	<path fill="#333333" d="M74.8,55C62.2,55,53,57.8,49.9,71.1c-2.3,10.1-5,26.8,2.5,35.4c7.1,8.1,23,9.7,32.6,6.2
		c13.1-4.8,14.3-18.1,12.1-30.1c-2-11.2-1.4-23.2-13.8-26.6c-1.4-0.4-4.7-0.4-6.1-0.7L74.8,55z"/>
	<path fill="#FFFFFF" d="M50.7,68.6c1.8-7,5.7-11,12.8-12.7c7.1-1.6,16.4-2.9,23.1,0.6c3.5,1.8,5,4.4,5.9,8.2
		c-10.4,2.1-21.1,2.8-32,2.8c-2.5,0-7.2-0.5-8.7,0.3L50.7,68.6z"/>
	<path fill="#FFFFFF" d="M49.4,101.6c4.9,2.6,13.3,1.2,18.7,0.6c6.3-0.6,12.7-1,18.7-1.9c3.5-0.5,6.7-0.9,10.1-1.9
		c-3.3,17.5-25,18.4-38.3,12.6c-3.5-1.5-7.6-3-8.2-7.3L49.4,101.6z"/>
</g>
<g id="Lineart">
	<g>
		<path fill-rule="evenodd" clip-rule="evenodd" d="M73.9,9.4c-32.5,0-58.8,26.3-58.8,58.8c0,32.5,26.3,58.8,58.8,58.8
			c32.5,0,58.8-26.3,58.8-58.8C132.6,35.7,106.3,9.4,73.9,9.4L73.9,9.4z M73.2,103.2c3.9,0,7.8-0.2,11.7-0.8
			c2.9-0.4,6.2-0.4,8.3-2.5c0.2-0.2,0-0.5-0.2-0.5c-2.3,0-4.5,0.6-6.8,1c-4.3,0.8-8.7,1-13,1.2c-6.7,0.3-13.5,1.1-20.2,0.5
			c0,0,0,0,0,0C58.5,105,67.1,103.2,73.2,103.2L73.2,103.2z M108.3,69.4c-0.1-0.1-0.2-0.1-0.3,0.1c-0.2,1.4,0.2,2.4,0.5,3.7
			c0.3,1.1,0.5,2.9,1.7,3.4c0.2,0.1,0.4,0,0.5-0.2c0.6-1-0.3-2.5-0.6-3.6C109.7,71.4,109.4,70.3,108.3,69.4L108.3,69.4z M104,66.1
			c0-0.1-0.3-0.1-0.3,0c0,3.2,0.8,6.2,1.4,9.3c0.5,2.3,0.3,5.9,2.1,7.7c0.2,0.2,0.5,0.2,0.6,0.1c2-1.6,1.1-4.1,0.5-6.3
			C107.5,73.1,105.2,69.8,104,66.1L104,66.1z M39.6,69.1c-1.9,1.5-2.6,3.6-3.3,5.9c-0.5,1.6-1.5,4.8-0.4,6.3
			c0.2,0.2,0.5,0.4,0.7,0.1c1-1.3,0.8-3.7,1.1-5.3c0.4-2.4,1.3-4.6,2-6.9C39.8,69.1,39.7,69,39.6,69.1L39.6,69.1z M44.5,66.3
			c-2.5,2.5-3.4,6.2-4.5,9.5c-1,3.1-2.6,7.7-0.8,10.7c0.2,0.3,0.7,0.4,0.9,0c1.6-2.9,1.4-6.9,2.1-10.1c0.7-3.4,1.6-6.6,2.5-9.9
			C44.8,66.3,44.6,66.2,44.5,66.3L44.5,66.3z M94.9,73.5c0.4,11.6,4.2,24.6-3.6,34.1c-0.7,0.8-1.6,1.5-2.5,2.1
			c-3.6,2.3-8.2,3-12.3,3.2c-7.3,0.5-15.6-1.2-22-4.9c0,0-0.1,0-0.1,0.1c1,3.2,5.2,4.2,8.1,5.2c4.9,1.7,10.5,2.2,15.6,1.9
			c5-0.2,12.4-2.1,16.1-6.4c2.8-2.6,4.1-8,4.4-10.9C99.1,90.4,98.4,80.4,94.9,73.5C95,73.4,94.9,73.4,94.9,73.5L94.9,73.5z M49.1,85
			c0.5-7.3,1.1-14.1,3.1-21.2c0-0.1-0.1-0.2-0.2-0.1c-4,5.6-3.9,14.7-4.8,21.3c-1.2,9-0.2,15.6,5.2,22.8c0.1,0.1,0.3,0.1,0.3-0.1
			c-1.1-3-2.4-5.9-3.1-9C48.6,94.3,48.8,89.5,49.1,85L49.1,85z M87.6,58.8c2.5,1.2,3.8,3.4,4.7,5.9c-0.1-0.1-0.2-0.1-0.3-0.1
			c-2.9-0.1-5.9,0.9-8.8,1.2c-2.5,0.3-5.1,0.5-7.6,0.6c0-0.1,0-0.3,0-0.4c-0.4-1.5-0.7-3.1-0.9-4.7c-0.1-1-0.1-2.7-0.8-3.4
			c0,0-0.1,0-0.1,0.1c0.2,0.4,0,1.1-0.1,1.5c-0.1,0.8-0.1,1.7-0.1,2.6c0,1.5-0.4,3.1-0.1,4.6c-0.6,0-1.2,0.1-1.8,0.1
			c-5.9,0.4-13-0.5-18.7,1.2c0,0,0,0,0,0c13.4,0.6,26,0.5,39.2-2.3c0.2,0,0.3-0.2,0.3-0.4c0.8,2.3,1.2,4.8,1.8,6.9
			c0,0.1,0.2,0.1,0.2,0c-0.1-10-4.1-17.6-14.8-18c-8.1-0.3-22.8,0-26.9,8.4c0,0.1,0.1,0.2,0.1,0.1c6.6-5.5,14.5-5.4,22.7-5.7
			C79.8,56.6,83.7,56.9,87.6,58.8L87.6,58.8z M81.3,46.9c1.8,1.5,4.3,1.5,6.5,1.1c3.1-0.6,4.4-3.1,6.2-5.4c0-0.1,0-0.1-0.1-0.1
			c1.9-3.1,0.6-8.9,0-12c-0.6-3.7-2.3-9.3-6.9-8.7c-0.2,0-0.2,0.3,0,0.3c3.9,0.9,4.8,6.6,5.3,9.8c0.7,3.9,0.4,7.7,0.3,11.6
			c0,0,0,0.1,0,0.1c-3.3,2.5-8.7,3.9-11.3-0.1c-0.9-1.4-1.2-3.3-1.6-5c0.6,1,1.4,1.7,2.6,1.9c3.1,0.6,4.6-2.8,4.7-5.3
			c0-2.9-0.8-6.7-2.7-9c-0.6-0.8-1.9-1.3-3-1.3c0.2-0.3,0.4-0.6,0.7-0.8c2.1-2.2,7.2-5.6,10.4-5.1c0.1,0,0.1-0.1,0-0.1
			c-3.5-1.7-8.7,0.5-11.5,2.9c-2,1.7-3.3,3.7-4,6.2c-0.5,1.9-0.2,3.4,0.4,4.9C76.8,37.7,77.9,44,81.3,46.9L81.3,46.9z M80.7,27.1
			c-0.2,0.1-0.5,0.2-0.7,0.4c0,0,0,0-0.1,0.1c0,0,0-0.1,0-0.1C80.2,27.2,80.5,27.1,80.7,27.1L80.7,27.1z M50.8,44
			c0.1,0,0.1-0.1,0.1-0.1c-3.7-5.4,2.1-16,5.9-19.7c0.1,0,0.1-0.1,0.1-0.2c1.2,0,2.7,0.5,3.3,0.7c0.8,0.3,1.5,0.7,2.2,1.1
			c-1,0.5-1.9,1.5-2.4,2.5c-0.9,1.8-0.9,4-0.9,5.9c0.1,2,0.4,4.2,1.8,5.7c1.3,1.4,3.2,1,4.5,0c-0.2,1.7-0.5,3.4-1.4,4.9
			c-2.7,4.3-10.4,3.2-13.6,0.3c0,0-0.1,0-0.1,0c0.9,5.4,8.9,4.9,12.7,3.2c2.2-0.9,3.4-3.2,4.1-5.3c0.8-2.3,1.5-5.9,0.9-8.6
			c1.3-4.8-1.9-10.2-5.7-13c-2.6-2-9.1-3.9-11.6-0.9c0,0,0,0,0,0c2.8-1.2,6.6-0.1,9.2,1.6c-1.1-0.2-2.3-0.3-3.3,0.2
			c-0.2,0.1-0.3,0.2-0.4,0.3c-0.2,0-0.4,0-0.6,0.1c-4,2.7-5.7,8.4-6.4,13C48.9,38.3,47.4,43,50.8,44L50.8,44z M74.1,121
			c-30,0-54.4-24.5-54.4-54.7c0-30.2,24.3-54.7,54.4-54.7c30,0,54.4,24.5,54.4,54.7C128.5,96.5,104.1,121,74.1,121L74.1,121z"/>
	</g>
</g>
</svg>
