<?xml version="1.0" encoding="utf-8"?>
<!-- Generator: Adobe Illustrator 17.1.0, SVG Export Plug-In . SVG Version: 6.00 Build 0)  -->
<!DOCTYPE svg PUBLIC "-//W3C//DTD SVG 1.1//EN" "http://www.w3.org/Graphics/SVG/1.1/DTD/svg11.dtd">
<svg version="1.1" xmlns="http://www.w3.org/2000/svg" xmlns:xlink="http://www.w3.org/1999/xlink" x="0px" y="0px"
	 viewBox="0 0 143 134" enable-background="new 0 0 143 134" xml:space="preserve">
<g id="Colors">
	<linearGradient id="SVGID_1_" gradientUnits="userSpaceOnUse" x1="99.9449" y1="117.4105" x2="45.2464" y2="12.9538">
		<stop  offset="0" style="stop-color:#FAA61A"/>
		<stop  offset="0.6011" style="stop-color:#FFF450"/>
		<stop  offset="1" style="stop-color:#FFFFFF"/>
	</linearGradient>
	<circle fill="url(#SVGID_1_)" cx="73.5" cy="66.9" r="57"/>
	<linearGradient id="SVGID_2_" gradientUnits="userSpaceOnUse" x1="112.4391" y1="130.5959" x2="61.5428" y2="43.7401">
		<stop  offset="0" style="stop-color:#F26722"/>
		<stop  offset="1" style="stop-color:#FFF450"/>
		<stop  offset="1" style="stop-color:#FFFFFF"/>
	</linearGradient>
	<path fill="url(#SVGID_2_)" d="M111.1,25.1c5.4,7.1,9,14.7,10.8,23.4c2.5,12.5,1.8,26.3-4.5,37.7c-6.4,11.6-18.1,19.2-30.8,22.6
		C74,112,60.2,111.6,48,107.2c-9.3-3.3-17-9-23.5-16.3c-0.6-0.7-1.3-1.5-1.9-2.2c3.4,5.8,6.8,11.6,11.2,16.8
		c4.2,5,9.4,9.2,15.3,12.1c6.1,3,12.9,4.6,19.6,5.1c6.9,0.5,13.9-0.1,20.6-1.7c6.3-1.6,12.4-4.2,17.8-7.9c5.2-3.6,9.7-8.3,13.2-13.5
		c3.7-5.5,6.4-11.5,8.3-17.8c1.8-6.1,2.9-12.6,2.8-19c-0.1-5.8-1.2-11.5-3.5-16.8c-2.1-5-5.2-9.4-8.5-13.6c-0.8-1-1.6-2-2.4-3
		L111.1,25.1z"/>
	<path fill="#FFFFFF" d="M61.3,29.6c-5.1-0.6-10.1-0.9-13.2,3.7c-2.5,3.6-4.5,9.8-4.1,14.2c1.2,10.6,17.7,9.5,20.7,0.5
		c1.8-5.4,0.1-11.4-1.5-16.6L61.3,29.6z"/>
	<path fill="#FFFFFF" d="M77.5,23.6c-11.4,2.4-9,16.2-1.3,22.1c9.2,7,19.2-3.1,15.4-12.9c-2.1-5.4-6.7-7.8-11.8-9.8L77.5,23.6z"/>
</g>
<g id="Lineart">
	<g>
		<path fill-rule="evenodd" clip-rule="evenodd" d="M73.5,9.1c-32.5,0-58.8,26.3-58.8,58.8c0,32.5,26.3,58.8,58.8,58.8
			c32.5,0,58.8-26.3,58.8-58.8C132.3,35.4,106,9.1,73.5,9.1L73.5,9.1z M74.3,16.6c0.1-0.3,0-0.7-0.4-0.7c-3.1,0.3-5.6,2-8.5,3.1
			c-3.9,1.4-8.7,2.1-12.6,0.4c-0.1-0.1-0.3,0.1-0.2,0.2C57.9,24.6,71,23.8,74.3,16.6L74.3,16.6z M91.5,39.6
			c-0.4,2.1-1.6,3.8-3.1,5.2c-1.7,1.6-4.1,2.3-6.3,2.5c-2.6,0.2-4.1-0.9-6.3-1.9c-0.1,0-0.2,0-0.2,0.1c1.6,5.2,9.2,4,12.8,2.1
			c4.4-2.3,6.7-9.6,3.5-13.7c-0.2-0.2-0.4-0.1-0.5,0.1C91.3,35.8,91.9,37.6,91.5,39.6L91.5,39.6z M68.7,32.3c0.4,4,3,9.8,5.9,12.4
			c0.1,0.1,0.4,0,0.4-0.2c-0.2-2.4-1.7-4.9-2.9-7.4c1,0.4,2.1,0.4,3.1,0.2c2.4,0.1,4.7-2,5.1-4.3c0.4-2.6-1.3-6.3-3.8-7.6
			c5.3-1.6,11,1.8,14,6.4c0.1,0.1,0.3,0,0.2-0.1c-2.8-7.4-9.9-11.4-17.5-7.4C69.8,26,68.3,28.5,68.7,32.3L68.7,32.3z M52.3,55.6
			c8.2,1.9,12.9-3.8,13.8-11.5c0.1-0.5-0.7-0.6-0.9-0.1c-0.8,3.2-1,6-3.5,8.5c-2.1,2-6.3,1.6-8.9,1.2c-2.8-0.5-5.5-1.5-7-4
			c-1.2-2-1-5.2-0.7-7.5c0-0.1-0.1-0.1-0.1,0C41.9,49.3,44.8,53.9,52.3,55.6L52.3,55.6z M45.7,39.6c1.8-4.3,4.1-8.4,9-9.1
			c-1.1,1.3-1.6,3.2-1.6,4.7c0,4.5,5.2,8.7,9.3,5.8c0.9-0.7,1.7-1.6,2.2-2.7c0.1,0.5,0.3,1.1,0.4,1.7c0,0.3,0.4,0.2,0.4-0.1
			c0.4-3.2,0.2-5.9-1.2-8.7c-1.4-2.8-4.6-3.2-7.4-3.3c-6.9-0.1-9.7,5.8-11.1,11.6C45.6,39.7,45.7,39.7,45.7,39.6L45.7,39.6z M125,50
			c-0.1-0.1-0.3-0.1-0.4-0.1c-1.3,0.3-1.9,1.9-2.8,2.7c-1,0.9-2.5,1-3.8,1.2c-0.3,0-0.5,0.2-0.6,0.4c-0.4,0.9,0.7,1.6,1.4,1.7
			c1.2,0.2,2.4-0.2,3.4-0.6C123.9,54.7,126.7,52,125,50L125,50z M35.4,91.2c-1.7,1.3-3.2,2.2-5.4,1.2c-2.7-1.2-2.6-4.1-3.4-6.4
			c0-0.1-0.2-0.2-0.3,0c-1.3,2.7,0.4,6.7,2.6,8.4c2.3,1.8,7.1,1.7,8.4-1.3C37.7,91.9,36.6,90.3,35.4,91.2L35.4,91.2z M119.1,45.4
			c-8-1.3-14.1-0.6-21.5,3.1c-9.7,4.9-17.1,12.4-28,15c-8.7,2.1-18.4,2.3-26.5,6.1c-7,3.3-13.4,10.1-13.2,18.3c0,1.9,3,2.4,3.4,0.5
			c0.9-4.5,2.1-8.8,5.1-12.3c2.9-3.3,7.5-4.8,11.6-6c7.7-2.2,15.6-3.7,23.4-5.7c7.3-1.9,13.1-7,19.3-10.9c3.7-2.4,7.9-4.1,12.1-5.3
			c2.6-0.7,4.9-0.5,7.6-0.4c2.2,0.1,3.6,1.3,5.7,1.8C120.8,50.4,122,45.8,119.1,45.4L119.1,45.4z M73.8,120.7
			c-30,0-54.4-24.5-54.4-54.7c0-30.2,24.3-54.7,54.4-54.7c30,0,54.4,24.5,54.4,54.7C128.2,96.2,103.8,120.7,73.8,120.7L73.8,120.7z"
			/>
	</g>
</g>
</svg>
