<?xml version="1.0" encoding="utf-8"?>
<!-- Generator: Adobe Illustrator 17.1.0, SVG Export Plug-In . SVG Version: 6.00 Build 0)  -->
<!DOCTYPE svg PUBLIC "-//W3C//DTD SVG 1.1//EN" "http://www.w3.org/Graphics/SVG/1.1/DTD/svg11.dtd">
<svg version="1.1" xmlns="http://www.w3.org/2000/svg" xmlns:xlink="http://www.w3.org/1999/xlink" x="0px" y="0px"
	 viewBox="0 0 143 134" enable-background="new 0 0 143 134" xml:space="preserve">
<g id="Colors">
	<linearGradient id="SVGID_1_" gradientUnits="userSpaceOnUse" x1="97.8292" y1="117.4236" x2="43.1306" y2="12.9669">
		<stop  offset="0" style="stop-color:#FAA61A"/>
		<stop  offset="0.6011" style="stop-color:#FFF450"/>
		<stop  offset="1" style="stop-color:#FFFFFF"/>
	</linearGradient>
	<circle fill="url(#SVGID_1_)" cx="71.4" cy="67" r="57"/>
	<linearGradient id="SVGID_2_" gradientUnits="userSpaceOnUse" x1="110.3239" y1="130.6096" x2="59.4276" y2="43.7537">
		<stop  offset="0" style="stop-color:#F26722"/>
		<stop  offset="1" style="stop-color:#FFF450"/>
		<stop  offset="1" style="stop-color:#FFFFFF"/>
	</linearGradient>
	<path fill="url(#SVGID_2_)" d="M109,25.1c5.4,7.1,9,14.7,10.8,23.4c2.5,12.5,1.8,26.3-4.5,37.7c-6.4,11.6-18.1,19.2-30.8,22.6
		c-12.6,3.3-26.3,2.9-38.5-1.5c-9.3-3.3-17-9-23.5-16.3c-0.6-0.7-1.3-1.5-1.9-2.2c3.4,5.8,6.8,11.6,11.2,16.8
		c4.2,5,9.4,9.2,15.3,12.1c6.1,3,12.9,4.6,19.6,5.1c6.9,0.5,13.9-0.1,20.6-1.7c6.3-1.6,12.4-4.2,17.8-7.9c5.2-3.6,9.7-8.3,13.2-13.5
		c3.7-5.5,6.4-11.5,8.3-17.8c1.8-6.1,2.9-12.6,2.8-19c-0.1-5.8-1.2-11.5-3.5-16.8c-2.1-5-5.2-9.4-8.5-13.6c-0.8-1-1.6-2-2.4-3
		L109,25.1z"/>
	<path fill="#333333" d="M61.3,84.2c11-9.3,29.5-4.7,30,11.3c0.2,6.5-1.9,13.6-7.7,17.1c-5.4,3.3-15.7,5.2-20.7,0.3
		c-5.6-5.4-2.3-17.6-2.3-24.5L61.3,84.2z"/>
	<path fill="#FFFFFF" d="M62.9,23.7c-8-0.5-15.3,0.4-18.9,8.5c-3.3,7.4-3.7,17.6-1.9,25.4C43.8,65.1,49.8,72,58.2,70
		c8.5-2,11.3-11.6,12.3-19.2c1.3-9.2,0.2-17.5-4.7-25.5L62.9,23.7z"/>
	<path fill="#FFFFFF" d="M93.9,24.4c-9.2,1.5-12.6,6.2-13,15.5c-0.3,7.9-0.3,17.7,3.7,24.9c3.3,5.9,11.8,11.8,17.7,5.6
		c5.3-5.6,4.3-16.5,4-23.6c-0.4-8.9-2.6-15.3-9.6-21.1L93.9,24.4z"/>
</g>
<g id="Lineart">
	<g>
		<path fill-rule="evenodd" clip-rule="evenodd" d="M71.9,8.1c-32.5,0-58.8,26.3-58.8,58.8c0,32.5,26.3,58.8,58.8,58.8
			c32.5,0,58.8-26.3,58.8-58.8C130.6,34.4,104.3,8.1,71.9,8.1L71.9,8.1z M87.5,45c0,1.8,0.2,3.6,1,5.3c0.8,1.9,3,2.8,4.9,1.9
			c1.8-0.9,2.8-2.9,3.4-4.8c0.7-2.4,0.6-5.9-0.7-8.4c-0.1-0.3-0.3-0.7-0.4-1c-0.8-1.7-2.2-2.9-4.1-2.7c-0.8,0.1-1.5,0.6-2.1,1.2
			c-1.1,0.8-1.8,1.9-1.6,3c0,0.1-0.1,0.2-0.1,0.3C87.3,41.5,87.3,43.3,87.5,45L87.5,45z M57.1,50c1.4,1.3,3.2,1.3,4.5,0.2
			c0.8-0.4,1.5-1.1,1.9-2c1-1.9,0.9-4.5,0.7-6.6c-0.1-0.7-0.2-1.5-0.4-2.3c0-0.1,0-0.2,0-0.3c-0.2-1.4-0.9-2.7-2-3.5
			c-1-1-2.2-1.6-3.8-1.3c-3.3,0.5-3.9,5-3.8,8.1C54,45.3,54.8,48.5,57.1,50L57.1,50z M85.6,110.2c-6.3,5-13.2,6.1-20.7,2.8
			c-4.8-2.1-4.1-6.8-3.5-11.2c0.5-3.5,0.1-7.3-0.6-10.8c0,0-0.1,0-0.1,0c-0.7,3.4-0.4,6.9-1,10.3c-0.4,2.6-1.4,5-1.4,7.7
			c0,3.4,3.1,5.8,5.9,7.1c6.2,2.8,19.1,1.4,22-5.5C86.5,110.2,85.9,110,85.6,110.2L85.6,110.2z M79.6,78.5
			c-5.1-1.6-21.8-0.3-18.7,8.4c0,0.1,0.2,0.1,0.2,0c0.7-7.1,12.9-6.9,17.7-5.4c4.3,1.4,7.8,4.8,10.1,8.6c3.2,5.3,0.4,11.4-0.6,16.9
			c-0.1,0.4,0.4,0.8,0.8,0.5C98.5,97,91.9,82.2,79.6,78.5L79.6,78.5z M115.6,49.9C115.6,49.9,115.6,49.9,115.6,49.9
			c-0.1,2.8-0.5,5.8-1,8.5c-0.5,2.4-2,5.1-1.8,7.5c0,0.3,0.3,0.5,0.7,0.4C118.7,63.9,116.4,54.1,115.6,49.9L115.6,49.9z M38.3,68.2
			c-1.3-1.8-1.9-4.1-2.5-6.1c-0.9-3.5-1.1-7.1-1.9-10.5c0,0,0,0,0,0c-0.9,4-0.8,8.2-0.1,12.2c0.5,3,2.2,8.2,6,8.2
			c0.3,0,0.5-0.3,0.5-0.6C39.8,70.2,39.1,69.3,38.3,68.2L38.3,68.2z M105.2,40.6c0-0.1-0.1,0-0.1,0c0.2,2.2,0.3,4.5,0.4,6.7
			c0.1,1.5,0,3,0.4,4.4c0.1,4.1,0.2,8.1-1.2,12.4c-0.7,2.2-1.6,4.1-3.1,5.9c-3,3.7-7.4,1.4-10.3-1c-9-7.3-9.6-20.1-9.9-30.7
			c0,0,0,0,0,0c-1,7.8-2.2,15.3,0.7,22.9c2.2,5.7,6.6,11.3,12.3,13.6c10.7,4.3,13.2-13.9,12.8-23.9
			C107.7,47.5,106.6,43.3,105.2,40.6L105.2,40.6z M82.5,31.9c2.3-4.3,7.1-6.2,11.7-5.3c5.4,1.1,6.8,6.5,10.4,9.8
			c0.3,0.3,0.8,0.1,0.8-0.3c-0.2-6-5.8-11.1-11.5-12.1c-5.8-1-9.7,2.9-11.6,7.9C82.3,31.9,82.4,31.9,82.5,31.9L82.5,31.9z M70,48.2
			c-0.1-0.4-0.6-0.3-0.7,0c-2.4,6.1-2.1,12.3-6.4,17.8c-2.5,3.2-6.5,4.7-10.2,2.8c-3.1-1.5-4.2-5.5-5.5-8.5c0-0.1-0.2,0-0.2,0
			c0.6,6.7,5.4,14.9,13.3,11C68.6,67.4,71.2,56.6,70,48.2L70,48.2z M42.8,52.1c-0.7-5.9,0.3-11.8,0.7-17.7c0-0.1-0.1-0.1-0.2,0
			c-2.5,6.8-3.7,14.1-2.8,21.3c0.6,4.5,2.5,12.2,7.6,13.6c0.4,0.1,0.8-0.3,0.7-0.7c-0.5-2.1-1.7-3.5-2.8-5.3
			C44.1,59.9,43.2,55.9,42.8,52.1L42.8,52.1z M44.7,31.4c2.1-4.8,8.6-6.9,13.6-6.9c8.6,0,11.3,8.1,12.5,15.1c0.1,0.3,0.6,0.3,0.6,0
			c1.9-8.3-3-16.3-11.4-17.6c-5.9-0.9-14.3,3-15.4,9.3C44.4,31.4,44.6,31.5,44.7,31.4L44.7,31.4z M72.1,119.7
			c-30,0-54.4-24.5-54.4-54.7c0-30.2,24.3-54.7,54.4-54.7c30,0,54.4,24.5,54.4,54.7C126.5,95.2,102.1,119.7,72.1,119.7L72.1,119.7z"
			/>
	</g>
</g>
</svg>
