<?xml version="1.0" encoding="utf-8"?>
<!-- Generator: Adobe Illustrator 17.1.0, SVG Export Plug-In . SVG Version: 6.00 Build 0)  -->
<!DOCTYPE svg PUBLIC "-//W3C//DTD SVG 1.1//EN" "http://www.w3.org/Graphics/SVG/1.1/DTD/svg11.dtd">
<svg version="1.1" xmlns="http://www.w3.org/2000/svg" xmlns:xlink="http://www.w3.org/1999/xlink" x="0px" y="0px"
	 viewBox="0 0 143 134" enable-background="new 0 0 143 134" xml:space="preserve">
<g id="Colors">
	<linearGradient id="SVGID_1_" gradientUnits="userSpaceOnUse" x1="100.1689" y1="117.5479" x2="45.4703" y2="13.0911">
		<stop  offset="0" style="stop-color:#FAA61A"/>
		<stop  offset="0.6011" style="stop-color:#FFF450"/>
		<stop  offset="1" style="stop-color:#FFFFFF"/>
	</linearGradient>
	<circle fill="url(#SVGID_1_)" cx="73.7" cy="67.1" r="57"/>
	<linearGradient id="SVGID_2_" gradientUnits="userSpaceOnUse" x1="112.6639" y1="130.7345" x2="61.7669" y2="43.8775">
		<stop  offset="0" style="stop-color:#F26722"/>
		<stop  offset="1" style="stop-color:#FFF450"/>
		<stop  offset="1" style="stop-color:#FFFFFF"/>
	</linearGradient>
	<path fill="url(#SVGID_2_)" d="M111.3,25.2c5.4,7.1,9,14.7,10.8,23.4c2.5,12.5,1.8,26.3-4.5,37.7c-6.4,11.6-18.1,19.2-30.8,22.6
		c-12.6,3.3-26.3,2.9-38.5-1.5c-9.3-3.3-17-9-23.5-16.3c-0.6-0.7-1.3-1.5-1.9-2.2c3.4,5.8,6.8,11.6,11.2,16.8
		c4.2,5,9.4,9.2,15.3,12.1c6.1,3,12.9,4.6,19.6,5.1c6.9,0.5,13.9-0.1,20.6-1.7c6.3-1.6,12.4-4.2,17.8-7.9c5.2-3.6,9.7-8.3,13.2-13.5
		c3.7-5.5,6.4-11.5,8.3-17.8c1.8-6.1,2.9-12.6,2.8-19c-0.1-5.8-1.2-11.5-3.5-16.8c-2.1-5-5.2-9.4-8.5-13.6c-0.8-1-1.6-2-2.4-3
		L111.3,25.2z"/>
	<path fill="#333333" d="M55.4,74.7c-5.7,6.4-10.5,19.5,1.6,22.4c5.2,1.2,10.4-1.1,15.5-1.4c5.1-0.3,8.2,2,11.8,5.3
		c3.1,2.8,6.9,6.8,11.5,5.3c4.9-1.6,6.9-8,7.3-12.5c1-10.4-5.1-19.2-14.1-23.8c-9.3-4.7-20.1-4.6-29,0.9c-0.9,0.6-1.8,1.1-2.7,1.7
		L55.4,74.7z"/>
	<path fill="#8FD6EA" d="M36.4,43.6c-3.7,2.7-10.7,5.2-11.9,10.1c-0.7,2.8,0.7,6,4,5.8c3-0.2,4.1-3.2,4.9-5.6c1-3,1.6-6.2,2.4-9.3
		L36.4,43.6z"/>
	<path fill="#8FD6EA" d="M108,47.1c1.9,4.2,3,12.2,9,12.4c7.3,0.3,4.9-8.8-0.3-10.4c-2.9-0.9-5.4-1.2-8-3L108,47.1z"/>
</g>
<g id="Lineart">
	<g>
		<path fill-rule="evenodd" clip-rule="evenodd" d="M73.9,9.1c-32.5,0-58.8,26.3-58.8,58.8s26.3,58.8,58.8,58.8
			c32.5,0,58.8-26.3,58.8-58.8C132.6,35.4,106.3,9.1,73.9,9.1L73.9,9.1z M86.5,34.5c3.2,0,5.6,1.1,8,3.2c2,1.8,4.2,4.8,5.3,7.3
			c0,0.1,0.1,0,0.1,0c0.4-4-1.1-6.9-3.9-9.9c-0.2-0.2-0.4-0.4-0.5-0.5c2.7,0.8,5.2,2.1,7.7,3.1c0.1,0,0.1,0,0.1-0.1
			c-1.6-2.9-5.4-4.4-8.4-5.6c-1.7-0.7-5.3-1.6-7.4-0.7c-0.5,0-0.9,0.1-1.4,0.1C84.3,31.7,84.8,34.5,86.5,34.5L86.5,34.5z M43.8,39.8
			c1.6-2,4.2-3.2,6.5-4.3C48,38.3,46.6,42,47.4,45c0,0.1,0.1,0.1,0.2,0c1.3-2,2.6-4.1,4-6.1c1.7-2.5,4.1-4,6.5-5.8
			c1.1-0.9-0.1-2.7-1.3-2.3c-0.5,0.1-0.9,0.3-1.4,0.5c-2,0.1-4.2,1.4-5.7,2.1c-2.7,1.4-4.6,3.5-6,6.2C43.6,39.7,43.7,39.9,43.8,39.8
			L43.8,39.8z M122.6,52.8c-2.3-4.9-10-2.7-13.4-6.3c0,0-0.1,0-0.1,0.1c1.3,2.4,3.4,3.2,5.9,3.8c1.8,0.4,3.5,0.9,5,2.1
			c1.2,1,1.6,2.8,0.9,4.2c-0.4,0.8-1,1.1-1.7,1.3c-2.2,0.2-4.3-0.9-6-2.7c-2.3-2.4-2.8-6-5.3-8.3c0,0-0.1,0-0.1,0.1
			c1.6,2.2,1.8,4.8,2.8,7.2c0.8,1.9,1.8,3.2,3.5,4.4c1.6,1.2,5.4,2.4,6.9,0.8c0.4-0.2,0.7-0.6,1-0.9
			C123.6,56.8,123.4,54.6,122.6,52.8L122.6,52.8z M36,43.8c-1.8,2.8-2.2,6.4-3.2,9.5c-0.5,1.7-1.5,3.7-3,4.7c-3.8,2.4-4.8-3-3.5-5.4
			c2.1-4.1,7.4-5.5,10.1-9.3c0,0,0,0,0,0c-4,4.6-16,6.4-12.2,14.9c1.3,2.9,6,3.9,7.7,0.8c2.4-4.5,3.5-10.1,4.8-15
			C36.7,43.7,36.2,43.5,36,43.8L36,43.8z M107.5,68.7c-0.1,0-0.1,0.1-0.1,0.1c3.7,3.7,5,8.7,5.3,13.8c0.3,4-1.6,8.3-0.6,12.1
			c0.1,0.4,0.6,0.4,0.8,0.1C117.3,87.6,116.2,72.3,107.5,68.7L107.5,68.7z M96.4,74.1c-10.5-10.1-28.6-10.9-39.9-2
			c-4.8,3.8-9.6,10.3-8.7,16.8c0.4,2.9,1.8,6.1,4.3,7.9c3.7,2.7,5.7,0.8,9.7,0.2c0.1,0,0-0.1,0-0.1c-7.3-0.6-13.3-5.6-11-13.3
			c1.6-5.4,6.6-9.7,11.2-12.5c9.2-5.6,20.4-3.4,29.7,1.3c1.6,1.5,3.3,2.7,4.9,4.2c2.3,2.3,3.9,5.5,5,8.5c2,5.8,0.9,13.1-2.2,18.3
			c0,0.1,0.1,0.2,0.1,0.1C108.2,95.1,105.8,80.7,96.4,74.1L96.4,74.1z M97.1,105.5c-4.1,2.9-8-2.5-10.3-5c-1.6-1.7-3.5-3-5.6-3.9
			c-5.3-2.3-11-1.6-16.4-0.3c0,0,0,0,0,0c4.3-0.3,8.7-0.2,12.9,0.9c4.2,1.1,6.4,4.3,9.1,7.3c3.2,3.6,6.7,4.6,10.5,1.1
			C97.3,105.6,97.2,105.4,97.1,105.5L97.1,105.5z M51,61.4c0.1-0.1,0-0.2-0.1-0.2c-6.9,2.5-15.3,21-8.8,26.6
			c0.3,0.3,0.8,0.2,0.9-0.2c0.6-2,0.3-2.1,0-4.5c-0.3-2.6,0.4-5.2,1-7.7C45.3,70.6,47.9,65.2,51,61.4L51,61.4z M74.1,120.7
			c-30,0-54.4-24.5-54.4-54.7c0-30.2,24.3-54.7,54.4-54.7c30,0,54.4,24.5,54.4,54.7C128.5,96.2,104.1,120.7,74.1,120.7L74.1,120.7z"
			/>
	</g>
</g>
</svg>
