<?xml version="1.0" encoding="utf-8"?>
<!-- Generator: Adobe Illustrator 18.0.0, SVG Export Plug-In . SVG Version: 6.00 Build 0)  -->
<!DOCTYPE svg PUBLIC "-//W3C//DTD SVG 1.1//EN" "http://www.w3.org/Graphics/SVG/1.1/DTD/svg11.dtd">
<svg version="1.1" id="Layer_1" xmlns="http://www.w3.org/2000/svg" xmlns:xlink="http://www.w3.org/1999/xlink" x="0px" y="0px"
	 viewBox="0 0 100 100" enable-background="new 0 0 100 100" xml:space="preserve">
<path fill="#FFFFFF" d="M45.8,50.8l39.4-18.4c4.6-2.2,10.1-0.1,12.3,4.5l0,0c2.2,4.6,0.1,10.1-4.5,12.3L53.6,67.6
	c-4.6,2.2-10.1,0.1-12.3-4.5l0,0C39.2,58.5,41.2,52.9,45.8,50.8z"/>
<path fill="#FFFFFF" d="M46.4,67.6L7,49.2c-4.6-2.2-6.6-7.7-4.5-12.3l0,0c2.2-4.6,7.7-6.6,12.3-4.5l39.4,18.4
	c4.6,2.2,6.6,7.7,4.5,12.3l0,0C56.5,67.7,51,69.7,46.4,67.6z"/>
</svg>
