<?xml version="1.0" encoding="utf-8"?>
<!-- Generator: Adobe Illustrator 18.0.0, SVG Export Plug-In . SVG Version: 6.00 Build 0)  -->
<!DOCTYPE svg PUBLIC "-//W3C//DTD SVG 1.1//EN" "http://www.w3.org/Graphics/SVG/1.1/DTD/svg11.dtd">
<svg version="1.1" id="Layer_1" xmlns="http://www.w3.org/2000/svg" xmlns:xlink="http://www.w3.org/1999/xlink" x="0px" y="0px"
	 viewBox="0 0 100 100" enable-background="new 0 0 100 100" xml:space="preserve">
<path fill="#FFFFFF" d="M54.2,48.1L14.8,66.4C10.2,68.6,4.7,66.6,2.5,62l0,0C0.4,57.3,2.4,51.8,7,49.7l39.4-18.4
	c4.6-2.2,10.1-0.1,12.3,4.5l0,0C60.8,40.4,58.8,45.9,54.2,48.1z"/>
<path fill="#FFFFFF" d="M53.6,31.3L93,49.7c4.6,2.2,6.6,7.7,4.5,12.3l0,0c-2.2,4.6-7.7,6.6-12.3,4.5L45.8,48.1
	c-4.6-2.2-6.6-7.7-4.5-12.3l0,0C43.5,31.2,49,29.1,53.6,31.3z"/>
</svg>
