<?xml version="1.0" encoding="utf-8"?>
<!-- Generator: Adobe Illustrator 17.1.0, SVG Export Plug-In . SVG Version: 6.00 Build 0)  -->
<!DOCTYPE svg PUBLIC "-//W3C//DTD SVG 1.1//EN" "http://www.w3.org/Graphics/SVG/1.1/DTD/svg11.dtd">
<svg version="1.1" id="Layer_1" xmlns="http://www.w3.org/2000/svg" xmlns:xlink="http://www.w3.org/1999/xlink" x="0px" y="0px"
	 viewBox="0 0 100 100" enable-background="new 0 0 100 100" xml:space="preserve">
<path fill="#FFFFFF" stroke="#000000" stroke-miterlimit="10" d="M78.1,62.7c-7,7-18.4,7-25.4,0L21.9,31.9c-7-7-7-18.4,0-25.4l0,0
	c7-7,18.4-7,25.4,0l30.8,30.8C85.1,44.3,85.1,55.6,78.1,62.7L78.1,62.7z"/>
<path fill="#FFFFFF" stroke="#000000" stroke-miterlimit="10" d="M78.2,37.3c7,7,7,18.4,0,25.4L47.4,93.6c-7,7-18.4,7-25.4,0l0,0
	c-7-7-7-18.4,0-25.4l30.8-30.8C59.8,30.3,71.2,30.3,78.2,37.3L78.2,37.3z"/>
</svg>
